<svg width="315" height="240" viewBox="0 0 315 240" fill="none" xmlns="http://www.w3.org/2000/svg">
<g clip-path="url(#clip0_554_1485)">
<path d="M126.047 49.7705H124.898V18.2457C124.898 15.8496 124.427 13.477 123.511 11.2634C122.596 9.04971 121.254 7.03832 119.562 5.34405C117.87 3.64978 115.861 2.30581 113.651 1.38888C111.44 0.471944 109.071 2.03013e-06 106.678 0H39.9831C35.1509 -9.2249e-06 30.5166 1.92229 27.0997 5.34401C23.6828 8.76573 21.7632 13.4066 21.7632 18.2456V191.193C21.7632 193.589 22.2345 195.962 23.1501 198.175C24.0657 200.389 25.4078 202.4 27.0997 204.095C28.7915 205.789 30.8001 207.133 33.0106 208.05C35.2212 208.967 37.5904 209.439 39.9831 209.439H106.678C111.51 209.439 116.145 207.516 119.562 204.095C122.979 200.673 124.898 196.032 124.898 191.193V72.2103H126.047V49.7705Z" fill="#3F3D56"/>
<path d="M107.413 4.74707H98.7074C99.1078 5.73002 99.2606 6.79649 99.1524 7.85252C99.0443 8.90855 98.6784 9.92173 98.0871 10.8028C97.4958 11.6839 96.6972 12.4058 95.7617 12.9051C94.8261 13.4043 93.7824 13.6654 92.7223 13.6655H54.5135C53.4534 13.6654 52.4096 13.4043 51.4741 12.9051C50.5385 12.4059 49.7399 11.6839 49.1486 10.8028C48.5573 9.92174 48.1915 8.90855 48.0833 7.85252C47.9751 6.79649 48.128 5.73002 48.5283 4.74707H40.397C38.6102 4.74707 36.8408 5.09951 35.19 5.78426C33.5392 6.46901 32.0392 7.47267 30.7758 8.73793C29.5123 10.0032 28.51 11.5053 27.8263 13.1584C27.1425 14.8116 26.7905 16.5834 26.7905 18.3727V191.066C26.7905 192.856 27.1425 194.628 27.8263 196.281C28.51 197.934 29.5123 199.436 30.7758 200.701C32.0392 201.966 33.5392 202.97 35.19 203.655C36.8408 204.34 38.6101 204.692 40.3969 204.692H107.413C109.2 204.692 110.969 204.34 112.62 203.655C114.271 202.97 115.771 201.966 117.035 200.701C118.298 199.436 119.3 197.934 119.984 196.281C120.668 194.628 121.02 192.856 121.02 191.066V18.3727C121.02 16.5834 120.668 14.8116 119.984 13.1584C119.3 11.5053 118.298 10.0032 117.035 8.73793C115.771 7.47267 114.271 6.46901 112.62 5.78426C110.969 5.09951 109.2 4.74707 107.413 4.74707Z" fill="white"/>
<path d="M147.424 209.469H0.385928C0.283573 209.469 0.185411 209.428 0.113035 209.356C0.0406598 209.283 0 209.185 0 209.082C0 208.98 0.0406598 208.881 0.113035 208.809C0.185411 208.737 0.283573 208.696 0.385928 208.696H147.424C147.527 208.696 147.625 208.737 147.697 208.809C147.77 208.881 147.81 208.98 147.81 209.082C147.81 209.185 147.77 209.283 147.697 209.356C147.625 209.428 147.527 209.469 147.424 209.469Z" fill="#CBCBCB"/>
<path d="M106.325 103.675C107.802 85.8228 94.5277 70.1528 76.6752 68.6753C58.8228 67.1978 43.1528 80.4723 41.6753 98.3247C40.1978 116.177 53.4723 131.847 71.3247 133.325C89.1771 134.802 104.847 121.528 106.325 103.675Z" fill="#D51958"/>
<path d="M82.1986 87.9955L74 96.1947L65.8014 87.9955C64.4743 86.6682 62.3225 86.6682 60.9954 87.9955C59.6682 89.3227 59.6682 91.4746 60.9954 92.8019L69.1939 101.001L60.9954 109.2C59.6694 110.529 59.6715 112.681 60.9999 114.007C62.3265 115.331 64.4748 115.331 65.8014 114.007L74 105.808L82.1986 114.007C83.527 115.333 85.6787 115.331 87.0046 114.002C88.3288 112.676 88.3288 110.527 87.0046 109.2L78.8061 101.001L87.0046 92.8019C88.3318 91.4746 88.3318 89.3227 87.0046 87.9955C85.6775 86.6682 83.5257 86.6682 82.1986 87.9955Z" fill="white"/>
<path d="M267.928 212.677C268.325 212.035 268.792 211.439 269.32 210.901C269.538 210.674 269.768 210.461 270.005 210.254C271.446 208.969 273.202 208.092 275.094 207.713C276.985 207.334 278.944 207.466 280.767 208.096C282.591 208.726 284.214 209.831 285.47 211.298C286.726 212.764 287.569 214.539 287.912 216.44C289.504 210.545 285.361 204.739 281.195 200.279C277.027 195.821 272.263 190.93 272.287 184.821C272.299 181.422 273.96 178.389 276.467 176.141C276.544 176.073 276.621 176.005 276.7 175.939C279.731 173.338 283.629 171.977 287.617 172.129C295.027 172.527 301.496 177.513 305.989 183.429C313.221 192.946 316.39 206.307 311.327 217.141C306.874 226.67 297.377 232.329 287.683 236.878C286.33 237.513 284.979 238.13 283.631 238.727C283.622 238.729 283.612 238.735 283.603 238.738C283.538 238.766 283.474 238.795 283.413 238.824C283.135 238.947 282.856 239.07 282.58 239.191L282.708 239.275L283.107 239.534C282.968 239.45 282.832 239.368 282.694 239.285C282.652 239.259 282.609 239.235 282.568 239.21C277.807 236.349 272.98 233.323 269.691 228.857C266.28 224.22 264.909 217.579 267.928 212.677Z" fill="#F1F1F1"/>
<path d="M299.691 201.908C300.745 204.309 301.444 206.852 301.766 209.455C302.019 211.777 301.924 214.123 301.484 216.417C300.538 221.13 298.476 225.546 295.472 229.295C293.205 232.141 290.588 234.689 287.683 236.878C286.33 237.513 284.979 238.129 283.631 238.726C283.622 238.729 283.612 238.735 283.603 238.737C283.538 238.766 283.473 238.794 283.412 238.824C283.134 238.947 282.856 239.07 282.58 239.191L282.708 239.275L283.106 239.533C282.968 239.449 282.832 239.368 282.693 239.284C282.652 239.259 282.609 239.235 282.568 239.21C283.616 235.54 283.77 231.672 283.017 227.93C282.264 224.188 280.627 220.681 278.243 217.704C275.845 214.764 272.788 212.432 269.32 210.9C269.538 210.674 269.767 210.461 270.004 210.253C271.34 210.868 272.619 211.599 273.826 212.439C278.144 215.427 281.386 219.728 283.073 224.705C284.578 229.221 284.767 234.073 283.615 238.691C283.854 238.535 284.094 238.374 284.327 238.215C288.762 235.219 292.849 231.622 295.928 227.211C298.584 223.483 300.283 219.159 300.876 214.618C301.467 209.658 300.227 204.781 298.016 200.355C295.574 195.621 292.497 191.243 288.871 187.343C285.229 183.335 281.11 179.789 276.608 176.784C276.506 176.715 276.435 176.61 276.409 176.49C276.382 176.371 276.403 176.245 276.466 176.141C276.515 176.045 276.599 175.973 276.7 175.939C276.751 175.926 276.805 175.924 276.857 175.935C276.909 175.945 276.959 175.967 277.001 176C277.557 176.371 278.108 176.746 278.652 177.132C283.187 180.347 287.304 184.114 290.911 188.346C294.397 192.425 297.568 196.957 299.691 201.908Z" fill="white"/>
<path d="M202.628 15.1541C206.451 15.1541 209.55 12.0509 209.55 8.22303C209.55 4.39512 206.451 1.29199 202.628 1.29199C198.806 1.29199 195.707 4.39512 195.707 8.22303C195.707 12.0509 198.806 15.1541 202.628 15.1541Z" fill="#F1F1F1"/>
<path d="M288.69 107.907C291.02 107.907 292.91 106.016 292.91 103.682C292.91 101.348 291.02 99.4561 288.69 99.4561C286.359 99.4561 284.47 101.348 284.47 103.682C284.47 106.016 286.359 107.907 288.69 107.907Z" fill="#F1F1F1"/>
<path d="M165.193 119.502C167.523 119.502 169.413 117.61 169.413 115.276C169.413 112.942 167.523 111.05 165.193 111.05C162.862 111.05 160.973 112.942 160.973 115.276C160.973 117.61 162.862 119.502 165.193 119.502Z" fill="#F1F1F1"/>
<path d="M167.576 240H314.614C314.717 240 314.815 239.959 314.887 239.887C314.96 239.814 315 239.716 315 239.614C315 239.511 314.96 239.413 314.887 239.34C314.815 239.268 314.717 239.227 314.614 239.227H167.576C167.474 239.227 167.375 239.268 167.303 239.34C167.231 239.413 167.19 239.511 167.19 239.614C167.19 239.716 167.231 239.814 167.303 239.887C167.375 239.959 167.474 240 167.576 240Z" fill="#CBCBCB"/>
<path d="M240.089 64.9277C247.762 64.9277 253.982 58.6986 253.982 51.0146C253.982 43.3306 247.762 37.1016 240.089 37.1016C232.416 37.1016 226.195 43.3306 226.195 51.0146C226.195 58.6986 232.416 64.9277 240.089 64.9277Z" fill="#2F2E41"/>
<path d="M241.205 43.1547C244.195 40.1188 247.813 37.776 251.804 36.2913C254.366 35.3408 257.155 34.7535 259.833 35.2933C262.512 35.8331 265.045 37.6887 265.792 40.3205C266.403 42.4725 265.772 44.7896 264.824 46.8154C263.876 48.8412 262.609 50.7197 261.843 52.8211C261.06 54.9653 260.825 57.2712 261.158 59.5295C261.491 61.7879 262.382 63.9271 263.751 65.7531C265.119 67.579 266.921 69.0339 268.993 69.9856C271.065 70.9372 273.342 71.3556 275.616 71.2027C272.984 71.5561 270.558 72.7946 267.986 73.4538C265.413 74.113 262.377 74.0684 260.466 72.2228C258.443 70.2702 258.402 67.0954 258.5 64.2837C258.646 60.104 258.791 55.9243 258.936 51.7446C259.011 49.613 259.074 47.4131 258.306 45.4236C257.539 43.4341 255.714 41.6919 253.585 41.71C251.97 41.7238 250.542 42.703 249.247 43.6687C247.953 44.6344 246.583 45.6647 244.975 45.8084C243.367 45.952 241.531 44.7605 241.651 43.1485L241.205 43.1547Z" fill="#2F2E41"/>
<path d="M187.321 144.434C185.987 144.805 184.563 144.673 183.32 144.064C182.077 143.454 181.1 142.409 180.575 141.126C180.05 139.843 180.013 138.412 180.471 137.104C180.929 135.796 181.85 134.702 183.06 134.028L195.063 120.392L205.215 122.588L190.936 136.593C191.287 137.338 191.471 138.151 191.474 138.974C191.478 139.797 191.301 140.612 190.956 141.359C190.612 142.107 190.107 142.769 189.479 143.301C188.851 143.832 188.114 144.219 187.321 144.434Z" fill="#FFB7B7"/>
<path d="M226.809 95.6154L196.894 133.219L187.775 129.027L222.937 74.2075L226.809 95.6154Z" fill="#3F3D56"/>
<path d="M202.939 209.164L195.81 209.052L196.667 233.386H202.938L202.939 209.164Z" fill="#FFB7B7"/>
<path d="M204.538 231.336L192.188 231.335H192.187C190.1 231.336 188.098 232.166 186.622 233.644C185.146 235.122 184.317 237.127 184.317 239.217V239.473L204.538 239.474L204.538 231.336Z" fill="#2F2E41"/>
<path d="M250.145 202.709L242.356 207.717L257.936 226.486L263.213 223.093L250.145 202.709Z" fill="#FFB7B7"/>
<path d="M263.453 220.502L253.06 227.184L253.059 227.184C251.303 228.313 250.067 230.095 249.622 232.137C249.177 234.18 249.561 236.315 250.689 238.074L250.827 238.29L267.843 227.35L263.453 220.502Z" fill="#2F2E41"/>
<path d="M252.92 128.402C252.92 128.402 235.615 70.8456 230.053 70.0678C224.492 69.29 215.532 84.8361 215.532 84.8361C203.914 99.6799 191.935 147.762 191.935 147.762C191.935 147.762 211.905 149.013 226.503 156.791C241.102 164.569 258.33 156.398 258.33 156.398L252.92 128.402Z" fill="#3F3D56"/>
<path opacity="0.1" d="M252.92 128.402C252.92 128.402 235.615 70.8453 230.053 70.0675C224.492 69.2897 217.808 84.9936 217.808 84.9936C212.019 108.955 191.935 147.762 191.935 147.762C191.935 147.762 211.905 149.013 226.503 156.791C241.102 164.569 258.33 156.397 258.33 156.397L252.92 128.402Z" fill="black"/>
<path d="M238.722 111.181V140.103L242.121 181.998L259.102 213.689L250.997 219.486L227.842 189.341L218.683 159.409L204.3 225.67L193.494 224.897L200.999 133.028L215.24 107.169L238.722 111.181Z" fill="#2F2E41"/>
<path d="M221.275 83.2075C215.872 88.6181 220.889 94.4152 220.889 94.4152L214.714 108.328L239.027 114.898L247.524 76.8777L241.735 70.6941C230.157 70.3077 230.151 70.0674 230.151 70.0674C228.122 72.0553 221.275 83.2075 221.275 83.2075Z" fill="#D51958"/>
<path d="M248.503 72.9389C247.398 72.1226 246.143 71.5339 244.81 71.2068C243.477 70.8796 242.093 70.8206 240.737 71.0332C239.381 71.2457 238.08 71.7256 236.911 72.445C235.741 73.1644 234.726 74.109 233.923 75.2241C227.811 83.7468 222.159 97.5086 229.947 114.672C242.45 142.231 253.331 156.34 257.755 156.338C257.948 156.34 258.14 156.31 258.323 156.249C261.046 155.324 264.983 150.71 265.695 146.644C265.951 145.188 265.89 143.161 264.152 141.769C259.16 137.771 250.198 125.321 247.402 108.933C245.857 99.8782 248.853 91.63 251.639 86.3053C252.815 84.102 253.159 81.5479 252.608 79.1112C252.057 76.6744 250.647 74.5183 248.637 73.038L248.503 72.9389Z" fill="#3F3D56"/>
<path d="M240.803 63.5606C245.759 60.8475 247.581 54.6247 244.871 49.6616C242.162 44.6984 235.948 42.8744 230.992 45.5875C226.036 48.3006 224.214 54.5234 226.924 59.4865C229.633 64.4497 235.847 66.2737 240.803 63.5606Z" fill="#FFB7B7"/>
<path d="M221.515 53.7996H236.282L236.434 51.6764L237.191 53.7996H239.465L239.765 49.5915L241.266 53.7996H245.666V53.5911C245.662 50.6615 244.499 47.8528 242.43 45.7812C240.361 43.7096 237.557 42.5443 234.631 42.541H232.549C229.624 42.5443 226.819 43.7096 224.75 45.7812C222.682 47.8527 221.518 50.6615 221.515 53.5911V53.7996Z" fill="#2F2E41"/>
<path d="M243.435 61.4318L249.737 59.3839V44.0581H237.833L238.128 44.3528C242.228 48.4536 246.788 63.0028 243.435 61.4318Z" fill="#2F2E41"/>
<path d="M248.851 152.711C249.78 153.74 251.054 154.393 252.431 154.547C253.808 154.7 255.193 154.343 256.323 153.543C257.453 152.744 258.25 151.557 258.563 150.208C258.876 148.859 258.683 147.442 258.02 146.224L255.17 128.283L245.413 124.685L249.99 144.159C249.294 144.599 248.704 145.185 248.261 145.878C247.817 146.57 247.531 147.351 247.423 148.167C247.314 148.982 247.386 149.812 247.633 150.597C247.879 151.382 248.295 152.104 248.851 152.711Z" fill="#FFB7B7"/>
<path d="M234.403 82.7101L246.907 139.316L256.943 139.721L250.347 74.9563L234.403 82.7101Z" fill="#3F3D56"/>
</g>
<defs>
<clipPath id="clip0_554_1485">
<rect width="315" height="240" fill="white"/>
</clipPath>
</defs>
</svg>
