<svg width="353" height="100" viewBox="0 0 353 100" fill="none" xmlns="http://www.w3.org/2000/svg">
<path opacity="0.6" d="M5.13 93.216C4.11 93.216 3.192 93 2.376 92.568C1.572 92.136 0.996 91.584 0.648 90.912L1.998 89.904C2.754 91.068 3.81 91.65 5.166 91.65C5.85 91.65 6.414 91.482 6.858 91.146C7.302 90.798 7.524 90.33 7.524 89.742C7.524 88.758 6.912 88.038 5.688 87.582L3.996 86.934C2.988 86.562 2.25 86.1 1.782 85.548C1.326 84.984 1.098 84.27 1.098 83.406C1.098 82.374 1.47 81.552 2.214 80.94C2.97 80.316 3.93 80.004 5.094 80.004C5.874 80.004 6.588 80.166 7.236 80.49C7.884 80.802 8.412 81.222 8.82 81.75L7.596 82.83C6.888 81.99 6.042 81.57 5.058 81.57C4.41 81.57 3.864 81.738 3.42 82.074C2.976 82.398 2.754 82.818 2.754 83.334C2.754 83.85 2.904 84.258 3.204 84.558C3.504 84.858 3.996 85.134 4.68 85.386L6.228 85.98C7.212 86.352 7.95 86.832 8.442 87.42C8.946 88.008 9.198 88.758 9.198 89.67C9.198 90.738 8.814 91.596 8.046 92.244C7.29 92.892 6.318 93.216 5.13 93.216ZM11.7128 93V80.22H13.3868V93H11.7128ZM12.5588 78.87C12.2588 78.87 12.0068 78.768 11.8028 78.564C11.5988 78.36 11.4968 78.114 11.4968 77.826C11.4968 77.538 11.5988 77.292 11.8028 77.088C12.0068 76.872 12.2588 76.764 12.5588 76.764C12.8468 76.764 13.0928 76.872 13.2968 77.088C13.5008 77.292 13.6028 77.538 13.6028 77.826C13.6028 78.114 13.5008 78.36 13.2968 78.564C13.0928 78.768 12.8468 78.87 12.5588 78.87ZM16.8293 80.22H18.3593L23.0933 86.592L27.8633 80.22H29.3753V93H27.7193V83.064L23.1113 89.256L18.5033 83.064V93H16.8293V80.22ZM31.2427 93L36.8947 80.22H38.2807L43.9507 93H42.2047L40.5487 89.274H34.5907L32.9707 93H31.2427ZM37.5607 82.488L35.2567 87.762H39.8827L37.5607 82.488ZM47.4171 93L53.0691 80.22H54.4551L60.1251 93H58.3791L56.7231 89.274H50.7651L49.1451 93H47.4171ZM53.7351 82.488L51.4311 87.762H56.0571L53.7351 82.488ZM65.5792 93.18C64.2232 93.18 63.0952 92.73 62.1952 91.83C61.3072 90.93 60.8632 89.82 60.8632 88.5C60.8632 87.18 61.3072 86.07 62.1952 85.17C63.0952 84.27 64.2232 83.82 65.5792 83.82C66.4912 83.82 67.3072 84.036 68.0272 84.468C68.7592 84.9 69.3292 85.488 69.7372 86.232L68.3872 86.988C68.1232 86.46 67.7452 86.04 67.2532 85.728C66.7732 85.416 66.2152 85.26 65.5792 85.26C64.6552 85.26 63.8992 85.572 63.3112 86.196C62.7232 86.82 62.4292 87.588 62.4292 88.5C62.4292 89.412 62.7232 90.18 63.3112 90.804C63.8992 91.428 64.6552 91.74 65.5792 91.74C66.2152 91.74 66.7732 91.584 67.2532 91.272C67.7452 90.96 68.1232 90.54 68.3872 90.012L69.7372 90.768C69.3292 91.512 68.7592 92.1 68.0272 92.532C67.3072 92.964 66.4912 93.18 65.5792 93.18ZM75.8109 93.18C74.4549 93.18 73.3269 92.73 72.4269 91.83C71.5389 90.93 71.0949 89.82 71.0949 88.5C71.0949 87.18 71.5389 86.07 72.4269 85.17C73.3269 84.27 74.4549 83.82 75.8109 83.82C76.7229 83.82 77.5389 84.036 78.2589 84.468C78.9909 84.9 79.5609 85.488 79.9689 86.232L78.6189 86.988C78.3549 86.46 77.9769 86.04 77.4849 85.728C77.0049 85.416 76.4469 85.26 75.8109 85.26C74.8869 85.26 74.1309 85.572 73.5429 86.196C72.9549 86.82 72.6609 87.588 72.6609 88.5C72.6609 89.412 72.9549 90.18 73.5429 90.804C74.1309 91.428 74.8869 91.74 75.8109 91.74C76.4469 91.74 77.0049 91.584 77.4849 91.272C77.9769 90.96 78.3549 90.54 78.6189 90.012L79.9689 90.768C79.5609 91.512 78.9909 92.1 78.2589 92.532C77.5389 92.964 76.7229 93.18 75.8109 93.18ZM85.9887 93.18C84.6087 93.18 83.4867 92.736 82.6227 91.848C81.7587 90.96 81.3267 89.844 81.3267 88.5C81.3267 87.168 81.7647 86.058 82.6407 85.17C83.5167 84.27 84.6387 83.82 86.0067 83.82C87.2187 83.82 88.2327 84.228 89.0487 85.044C89.8767 85.848 90.2907 86.946 90.2907 88.338C90.2907 88.518 90.2847 88.674 90.2727 88.806H82.8927C82.9167 89.646 83.2167 90.348 83.7927 90.912C84.3807 91.476 85.1187 91.758 86.0067 91.758C87.2667 91.758 88.2027 91.236 88.8147 90.192L90.0387 91.038C89.1627 92.466 87.8127 93.18 85.9887 93.18ZM83.0007 87.546H88.7067C88.5867 86.826 88.2687 86.256 87.7527 85.836C87.2487 85.404 86.6487 85.188 85.9527 85.188C85.2447 85.188 84.6087 85.404 84.0447 85.836C83.4927 86.256 83.1447 86.826 83.0007 87.546ZM95.2597 93.18C94.4317 93.18 93.7057 93.006 93.0817 92.658C92.4577 92.298 92.0077 91.776 91.7317 91.092L92.9917 90.39C93.1597 90.834 93.4537 91.182 93.8737 91.434C94.2937 91.686 94.7617 91.812 95.2777 91.812C95.7217 91.812 96.0937 91.704 96.3937 91.488C96.6937 91.272 96.8437 90.978 96.8437 90.606C96.8437 90.282 96.7237 90.012 96.4837 89.796C96.2557 89.58 95.8537 89.382 95.2777 89.202L94.3777 88.914C92.8777 88.482 92.1277 87.606 92.1277 86.286C92.1277 85.542 92.4217 84.948 93.0097 84.504C93.6097 84.048 94.3477 83.82 95.2237 83.82C96.5917 83.82 97.5817 84.342 98.1937 85.386L97.0417 86.178C96.5497 85.494 95.9257 85.152 95.1697 85.152C94.7617 85.152 94.4077 85.254 94.1077 85.458C93.8197 85.65 93.6757 85.908 93.6757 86.232C93.6757 86.532 93.7657 86.79 93.9457 87.006C94.1377 87.21 94.4737 87.384 94.9537 87.528L95.9437 87.834C97.5757 88.338 98.3917 89.22 98.3917 90.48C98.3917 91.32 98.0977 91.98 97.5097 92.46C96.9337 92.94 96.1837 93.18 95.2597 93.18ZM103.417 93.18C102.589 93.18 101.863 93.006 101.239 92.658C100.615 92.298 100.165 91.776 99.8892 91.092L101.149 90.39C101.317 90.834 101.611 91.182 102.031 91.434C102.451 91.686 102.919 91.812 103.435 91.812C103.879 91.812 104.251 91.704 104.551 91.488C104.851 91.272 105.001 90.978 105.001 90.606C105.001 90.282 104.881 90.012 104.641 89.796C104.413 89.58 104.011 89.382 103.435 89.202L102.535 88.914C101.035 88.482 100.285 87.606 100.285 86.286C100.285 85.542 100.579 84.948 101.167 84.504C101.767 84.048 102.505 83.82 103.381 83.82C104.749 83.82 105.739 84.342 106.351 85.386L105.199 86.178C104.707 85.494 104.083 85.152 103.327 85.152C102.919 85.152 102.565 85.254 102.265 85.458C101.977 85.65 101.833 85.908 101.833 86.232C101.833 86.532 101.923 86.79 102.103 87.006C102.295 87.21 102.631 87.384 103.111 87.528L104.101 87.834C105.733 88.338 106.549 89.22 106.549 90.48C106.549 91.32 106.255 91.98 105.667 92.46C105.091 92.94 104.341 93.18 103.417 93.18ZM117.968 93.18C117.308 93.18 116.69 93.036 116.114 92.748C115.55 92.448 115.112 92.07 114.8 91.614V93H113.252V79.5H114.8V85.386C115.112 84.93 115.55 84.558 116.114 84.27C116.69 83.97 117.308 83.82 117.968 83.82C119.216 83.82 120.26 84.276 121.1 85.188C121.952 86.1 122.378 87.204 122.378 88.5C122.378 89.796 121.952 90.9 121.1 91.812C120.26 92.724 119.216 93.18 117.968 93.18ZM115.538 90.822C116.114 91.446 116.846 91.758 117.734 91.758C118.622 91.758 119.354 91.446 119.93 90.822C120.506 90.198 120.794 89.424 120.794 88.5C120.794 87.576 120.506 86.802 119.93 86.178C119.354 85.554 118.622 85.242 117.734 85.242C116.846 85.242 116.114 85.554 115.538 86.178C114.962 86.802 114.674 87.576 114.674 88.5C114.674 89.424 114.962 90.198 115.538 90.822ZM126.21 81.282C126.006 81.486 125.748 81.588 125.436 81.588C125.124 81.588 124.86 81.486 124.644 81.282C124.428 81.066 124.32 80.802 124.32 80.49C124.32 80.19 124.428 79.932 124.644 79.716C124.86 79.5 125.124 79.392 125.436 79.392C125.748 79.392 126.006 79.5 126.21 79.716C126.414 79.932 126.516 80.19 126.516 80.49C126.516 80.802 126.414 81.066 126.21 81.282ZM124.644 93V84H126.192V93H124.644ZM129.181 93V84H130.729V85.746C130.897 85.194 131.221 84.75 131.701 84.414C132.193 84.078 132.709 83.91 133.249 83.91C133.513 83.91 133.747 83.934 133.951 83.982V85.584C133.735 85.488 133.453 85.44 133.105 85.44C132.481 85.44 131.929 85.71 131.449 86.25C130.969 86.79 130.729 87.552 130.729 88.536V93H129.181ZM137.818 93L143.47 80.22H144.856L150.526 93H148.78L147.124 89.274H141.166L139.546 93H137.818ZM144.136 82.488L141.832 87.762H146.458L144.136 82.488ZM151.404 93V91.776L156.552 85.422H151.476V84H158.55V85.242L153.402 91.578H158.712V93H151.404ZM161.148 93V80.22H162.822V93H161.148ZM165.996 93V84H167.544V85.386C168.156 84.342 169.11 83.82 170.406 83.82C171.426 83.82 172.248 84.15 172.872 84.81C173.496 85.47 173.808 86.352 173.808 87.456V93H172.278V87.69C172.278 86.934 172.086 86.34 171.702 85.908C171.318 85.464 170.802 85.242 170.154 85.242C169.41 85.242 168.786 85.536 168.282 86.124C167.79 86.712 167.544 87.516 167.544 88.536V93H165.996ZM177.735 93V81.804H173.757V80.22H183.351V81.804H179.373V93H177.735ZM187.572 93.18C186.192 93.18 185.07 92.736 184.206 91.848C183.342 90.96 182.91 89.844 182.91 88.5C182.91 87.168 183.348 86.058 184.224 85.17C185.1 84.27 186.222 83.82 187.59 83.82C188.802 83.82 189.816 84.228 190.632 85.044C191.46 85.848 191.874 86.946 191.874 88.338C191.874 88.518 191.868 88.674 191.856 88.806H184.476C184.5 89.646 184.8 90.348 185.376 90.912C185.964 91.476 186.702 91.758 187.59 91.758C188.85 91.758 189.786 91.236 190.398 90.192L191.622 91.038C190.746 92.466 189.396 93.18 187.572 93.18ZM184.584 87.546H190.29C190.17 86.826 189.852 86.256 189.336 85.836C188.832 85.404 188.232 85.188 187.536 85.188C186.828 85.188 186.192 85.404 185.628 85.836C185.076 86.256 184.728 86.826 184.584 87.546ZM194.125 93V79.5H195.673V93H194.125ZM202.621 93.18C201.241 93.18 200.119 92.736 199.255 91.848C198.391 90.96 197.959 89.844 197.959 88.5C197.959 87.168 198.397 86.058 199.273 85.17C200.149 84.27 201.271 83.82 202.639 83.82C203.851 83.82 204.865 84.228 205.681 85.044C206.509 85.848 206.923 86.946 206.923 88.338C206.923 88.518 206.917 88.674 206.905 88.806H199.525C199.549 89.646 199.849 90.348 200.425 90.912C201.013 91.476 201.751 91.758 202.639 91.758C203.899 91.758 204.835 91.236 205.447 90.192L206.671 91.038C205.795 92.466 204.445 93.18 202.621 93.18ZM199.633 87.546H205.339C205.219 86.826 204.901 86.256 204.385 85.836C203.881 85.404 203.281 85.188 202.585 85.188C201.877 85.188 201.241 85.404 200.677 85.836C200.125 86.256 199.777 86.826 199.633 87.546ZM213.188 93.18C211.832 93.18 210.704 92.73 209.804 91.83C208.916 90.93 208.472 89.82 208.472 88.5C208.472 87.18 208.916 86.07 209.804 85.17C210.704 84.27 211.832 83.82 213.188 83.82C214.1 83.82 214.916 84.036 215.636 84.468C216.368 84.9 216.938 85.488 217.346 86.232L215.996 86.988C215.732 86.46 215.354 86.04 214.862 85.728C214.382 85.416 213.824 85.26 213.188 85.26C212.264 85.26 211.508 85.572 210.92 86.196C210.332 86.82 210.038 87.588 210.038 88.5C210.038 89.412 210.332 90.18 210.92 90.804C211.508 91.428 212.264 91.74 213.188 91.74C213.824 91.74 214.382 91.584 214.862 91.272C215.354 90.96 215.732 90.54 215.996 90.012L217.346 90.768C216.938 91.512 216.368 92.1 215.636 92.532C214.916 92.964 214.1 93.18 213.188 93.18ZM223.402 93.18C222.046 93.18 220.918 92.73 220.018 91.83C219.13 90.918 218.686 89.808 218.686 88.5C218.686 87.192 219.13 86.088 220.018 85.188C220.918 84.276 222.046 83.82 223.402 83.82C224.746 83.82 225.862 84.276 226.75 85.188C227.65 86.088 228.1 87.192 228.1 88.5C228.1 89.808 227.65 90.918 226.75 91.83C225.862 92.73 224.746 93.18 223.402 93.18ZM221.134 90.804C221.722 91.428 222.478 91.74 223.402 91.74C224.326 91.74 225.076 91.428 225.652 90.804C226.228 90.18 226.516 89.412 226.516 88.5C226.516 87.588 226.228 86.82 225.652 86.196C225.076 85.572 224.326 85.26 223.402 85.26C222.478 85.26 221.722 85.572 221.134 86.196C220.558 86.82 220.27 87.588 220.27 88.5C220.27 89.412 220.558 90.18 221.134 90.804ZM241.968 93V87.708C241.968 86.964 241.812 86.37 241.5 85.926C241.2 85.47 240.762 85.242 240.186 85.242C239.466 85.242 238.878 85.524 238.422 86.088C237.978 86.652 237.744 87.42 237.72 88.392V93H236.172V87.708C236.172 86.952 236.016 86.352 235.704 85.908C235.404 85.464 234.972 85.242 234.408 85.242C233.664 85.242 233.064 85.542 232.608 86.142C232.152 86.73 231.924 87.528 231.924 88.536V93H230.376V84H231.924V85.386C232.5 84.342 233.406 83.82 234.642 83.82C236.01 83.82 236.934 84.462 237.414 85.746C237.654 85.158 238.038 84.69 238.566 84.342C239.094 83.994 239.694 83.82 240.366 83.82C241.338 83.82 242.106 84.15 242.67 84.81C243.234 85.47 243.516 86.358 243.516 87.474V93H241.968ZM262.343 93V87.708C262.343 86.964 262.187 86.37 261.875 85.926C261.575 85.47 261.137 85.242 260.561 85.242C259.841 85.242 259.253 85.524 258.797 86.088C258.353 86.652 258.119 87.42 258.095 88.392V93H256.547V87.708C256.547 86.952 256.391 86.352 256.079 85.908C255.779 85.464 255.347 85.242 254.783 85.242C254.039 85.242 253.439 85.542 252.983 86.142C252.527 86.73 252.299 87.528 252.299 88.536V93H250.751V84H252.299V85.386C252.875 84.342 253.781 83.82 255.017 83.82C256.385 83.82 257.309 84.462 257.789 85.746C258.029 85.158 258.413 84.69 258.941 84.342C259.469 83.994 260.069 83.82 260.741 83.82C261.713 83.82 262.481 84.15 263.045 84.81C263.609 85.47 263.891 86.358 263.891 87.474V93H262.343ZM270.385 93.18C269.125 93.18 268.075 92.772 267.235 91.956C266.395 91.14 265.975 90.042 265.975 88.662V88.194H273.373C273.349 87.366 273.043 86.67 272.455 86.106C271.867 85.53 271.183 85.242 270.403 85.242C269.191 85.242 268.279 85.764 267.667 86.808L266.443 85.962C267.331 84.534 268.651 83.82 270.403 83.82C271.711 83.82 272.791 84.27 273.643 85.17C274.495 86.058 274.921 87.168 274.921 88.5C274.921 89.832 274.495 90.948 273.643 91.848C272.791 92.736 271.705 93.18 270.385 93.18ZM270.403 91.812C271.063 91.812 271.669 91.602 272.221 91.182C272.785 90.75 273.133 90.174 273.265 89.454H267.559C267.667 90.186 267.979 90.762 268.495 91.182C269.023 91.602 269.659 91.812 270.403 91.812ZM278.757 93H277.209V79.5H278.757V85.386C279.369 84.342 280.323 83.82 281.619 83.82C282.639 83.82 283.461 84.15 284.085 84.81C284.709 85.47 285.021 86.352 285.021 87.456V93H283.491V87.69C283.491 86.934 283.299 86.34 282.915 85.908C282.531 85.464 282.015 85.242 281.367 85.242C280.623 85.242 279.999 85.536 279.495 86.124C279.003 86.712 278.757 87.516 278.757 88.536V93ZM290.58 93.18C289.752 93.18 289.026 93.006 288.402 92.658C287.778 92.298 287.328 91.776 287.052 91.092L288.312 90.39C288.48 90.834 288.774 91.182 289.194 91.434C289.614 91.686 290.082 91.812 290.598 91.812C291.042 91.812 291.414 91.704 291.714 91.488C292.014 91.272 292.164 90.978 292.164 90.606C292.164 90.282 292.044 90.012 291.804 89.796C291.576 89.58 291.174 89.382 290.598 89.202L289.698 88.914C288.198 88.482 287.448 87.606 287.448 86.286C287.448 85.542 287.742 84.948 288.33 84.504C288.93 84.048 289.668 83.82 290.544 83.82C291.912 83.82 292.902 84.342 293.514 85.386L292.362 86.178C291.87 85.494 291.246 85.152 290.49 85.152C290.082 85.152 289.728 85.254 289.428 85.458C289.14 85.65 288.996 85.908 288.996 86.232C288.996 86.532 289.086 86.79 289.266 87.006C289.458 87.21 289.794 87.384 290.274 87.528L291.264 87.834C292.896 88.338 293.712 89.22 293.712 90.48C293.712 91.32 293.418 91.98 292.83 92.46C292.254 92.94 291.504 93.18 290.58 93.18ZM299.206 93.18C298.222 93.18 297.424 92.85 296.812 92.19C296.2 91.518 295.894 90.63 295.894 89.526V84H297.442V89.292C297.442 90.048 297.622 90.648 297.982 91.092C298.354 91.536 298.852 91.758 299.476 91.758C300.196 91.758 300.79 91.464 301.258 90.876C301.738 90.276 301.978 89.472 301.978 88.464V84H303.526V93H301.978V91.614C301.39 92.658 300.466 93.18 299.206 93.18ZM306.498 93V79.5H308.046V93H306.498ZM314.22 93.18C313.236 93.18 312.438 92.85 311.826 92.19C311.214 91.518 310.908 90.63 310.908 89.526V84H312.456V89.292C312.456 90.048 312.636 90.648 312.996 91.092C313.368 91.536 313.866 91.758 314.49 91.758C315.21 91.758 315.804 91.464 316.272 90.876C316.752 90.276 316.992 89.472 316.992 88.464V84H318.54V93H316.992V91.614C316.404 92.658 315.48 93.18 314.22 93.18ZM325.22 93.18C323.972 93.18 322.922 92.724 322.07 91.812C321.23 90.9 320.81 89.796 320.81 88.5C320.81 87.204 321.23 86.1 322.07 85.188C322.922 84.276 323.972 83.82 325.22 83.82C325.88 83.82 326.492 83.97 327.056 84.27C327.632 84.558 328.076 84.93 328.388 85.386V79.5H329.936V93H328.388V91.614C328.076 92.07 327.632 92.448 327.056 92.748C326.492 93.036 325.88 93.18 325.22 93.18ZM325.454 91.758C326.342 91.758 327.074 91.446 327.65 90.822C328.226 90.198 328.514 89.424 328.514 88.5C328.514 87.576 328.226 86.802 327.65 86.178C327.074 85.554 326.342 85.242 325.454 85.242C324.554 85.242 323.816 85.554 323.24 86.178C322.664 86.802 322.376 87.576 322.376 88.5C322.376 89.424 322.664 90.198 323.24 90.822C323.816 91.446 324.554 91.758 325.454 91.758ZM336.09 93.18C335.106 93.18 334.308 92.85 333.696 92.19C333.084 91.518 332.778 90.63 332.778 89.526V84H334.326V89.292C334.326 90.048 334.506 90.648 334.866 91.092C335.238 91.536 335.736 91.758 336.36 91.758C337.08 91.758 337.674 91.464 338.142 90.876C338.622 90.276 338.862 89.472 338.862 88.464V84H340.41V93H338.862V91.614C338.274 92.658 337.35 93.18 336.09 93.18ZM343.382 93V84H344.93V85.746C345.098 85.194 345.422 84.75 345.902 84.414C346.394 84.078 346.91 83.91 347.45 83.91C347.714 83.91 347.948 83.934 348.152 83.982V85.584C347.936 85.488 347.654 85.44 347.306 85.44C346.682 85.44 346.13 85.71 345.65 86.25C345.17 86.79 344.93 87.552 344.93 88.536V93H343.382ZM350.789 92.748C350.537 93.012 350.225 93.144 349.853 93.144C349.481 93.144 349.163 93.012 348.899 92.748C348.647 92.484 348.521 92.166 348.521 91.794C348.521 91.434 348.653 91.122 348.917 90.858C349.181 90.582 349.493 90.444 349.853 90.444C350.213 90.444 350.525 90.582 350.789 90.858C351.053 91.122 351.185 91.434 351.185 91.794C351.185 92.166 351.053 92.484 350.789 92.748Z" fill="#474975"/>
<path d="M219.37 16H212.519V20.1015H219.37V16Z" fill="#474975"/>
<path d="M193.564 34.0102C195.528 35.921 198.14 36.9852 200.855 36.9815C202.144 36.9815 203.363 36.5302 203.363 35.6278C203.363 34.7253 202.414 34.2742 200.175 33.8635C196.447 33.1732 190.748 32.2844 190.748 26.5042C190.748 22.5989 193.936 19.041 200.142 19.041C203.837 19.041 207.16 20.1127 209.738 22.2537L206.076 27.1945C204.11 25.6762 201.566 24.9158 199.768 24.9158C198.074 24.9158 197.7 25.5364 197.7 26.1252C197.7 27.0275 198.617 27.3344 201.021 27.7495C204.752 28.406 210.28 29.5115 210.28 34.8314C210.28 39.9122 206.582 42.8497 200.514 42.8497C195.699 42.8497 192.409 41.3968 190 39.1857L193.564 34.0102Z" fill="#474975"/>
<path d="M212.519 42.4415V21.877H219.37V42.4415H212.519Z" fill="#474975"/>
<path d="M223.03 38.666V42.4404H226.736L223.03 38.666Z" fill="#474975"/>
<path d="M241.517 42.4418H248.368V31.0146L241.517 37.995V42.4418Z" fill="#474975"/>
<path d="M268.977 42.4419L268.091 39.4706H259.408L258.522 42.4419H251.105L259.448 19.3936H268.06L276.402 42.4419H268.977ZM263.754 25.5437L261.177 33.6657H266.331L263.754 25.5437Z" fill="#474975"/>
<path d="M248.366 16.009V25.7508L241.516 32.7335L231.99 42.4415L227.201 37.5615L227.203 37.5592L223.03 33.3065V23.5533L223.032 23.5488L231.992 32.6793L248.358 16L248.366 16.009Z" fill="#474975"/>
<path d="M50.8361 30.231H53.8595L52.3478 26.6451L50.8361 30.231ZM55.2657 33.4654L54.6329 31.9537H50.0978L49.465 33.4654H47.3556L51.2931 24.6412H53.4376L57.3751 33.5005L55.2657 33.4654Z" fill="#474975"/>
<path d="M58.0078 33.4654V32.4459L62.2969 26.3287H58.2187V24.6412H64.9336V25.4849L60.7148 31.6373H65.0391V33.4654H58.0078Z" fill="#474975"/>
<path d="M68.7306 24.6412H66.7618V33.5005H68.7306V24.6412Z" fill="#474975"/>
<path d="M77.2384 33.4654L72.8439 27.8052L72.9142 30.7232V33.4654H70.9454V24.6412H72.6329L77.0626 30.3716L76.922 27.5943V24.6412H78.9259V33.4654H77.2384Z" fill="#474975"/>
<path d="M83.0392 33.4654V26.399H80.3673V24.6412H87.6798V26.399H85.0079V33.4654H83.0392Z" fill="#474975"/>
<path d="M89.1564 33.4654V24.6412H95.6603V26.4341H91.0548V28.1568H95.4142V29.8795H91.0548V31.6724H95.8361V33.4654H89.1564Z" fill="#474975"/>
<path d="M97.6643 33.4654V24.6412H99.6331V31.6724H104.028V33.4654H97.6643Z" fill="#474975"/>
<path d="M105.469 33.4654V24.6412H112.008V26.4341H107.402V28.1568H111.727V29.8795H107.402V31.6724H112.184V33.4654H105.469Z" fill="#474975"/>
<path d="M121.5 32.4099C120.586 33.2888 119.391 33.7459 118.125 33.7107C114.75 33.7107 113.414 31.531 113.414 29.1404C113.414 26.8552 114.891 24.4646 118.125 24.4646C119.355 24.4646 120.516 24.9568 121.359 25.8357L120.129 27.0662C119.566 26.574 118.863 26.2927 118.125 26.3279C116.121 26.3279 115.348 27.8748 115.348 29.1755C115.348 30.4763 116.051 31.9177 118.125 31.9177C118.934 31.9177 119.707 31.6013 120.27 31.074L121.5 32.4099Z" fill="#474975"/>
<path d="M126.949 33.6763C124.137 33.6763 122.203 31.9185 122.203 29.0356C122.203 26.1528 124.137 24.395 126.949 24.395C129.762 24.395 131.695 26.1528 131.695 29.0356C131.695 31.9185 129.762 33.6763 126.949 33.6763ZM126.949 26.188C125.402 26.1528 124.137 27.3833 124.102 28.895C124.102 28.9653 124.102 29.0005 124.102 29.0708C124.137 30.6177 125.402 31.8833 126.984 31.8481C128.531 31.813 129.797 30.5474 129.762 28.9653C129.762 27.4185 128.496 26.188 126.949 26.188Z" fill="#474975"/>
<path d="M141.082 27.3482L138.375 30.7584H138.024L135.387 27.313V33.5005H133.418V24.6412H135.668L138.234 28.0513L140.836 24.6412H143.051V33.5005H141.082V27.3482Z" fill="#474975"/>
<path fill-rule="evenodd" clip-rule="evenodd" d="M28.6875 39.8281H7.13672V18.1719H28.6875V39.8281ZM0 11H35.8242V47H0V11Z" fill="#474975"/>
<rect opacity="0.7" x="168" width="1" height="59" fill="#474975"/>
</svg>
