<svg width="298" height="90" viewBox="0 0 298 90" fill="none" xmlns="http://www.w3.org/2000/svg">
<path d="M242.684 67.0725V52.0946L231.809 34.3447H236.216L244.614 48.54L252.968 34.3447H257.353L246.5 52.0946V67.0725H242.684Z" fill="#D51958"/>
<path d="M211.742 67.0725V38.0558H202.664V34.3447H224.635V38.0558H215.601V67.0725H211.742Z" fill="#D51958"/>
<path d="M187.815 67.0725V34.3447H191.631V67.0725H187.815Z" fill="#D51958"/>
<path d="M163.888 67.0725V38.0558H154.811V34.3447H176.781V38.0558H167.747V67.0725H163.888Z" fill="#D51958"/>
<path d="M116.72 67.0719V33.0479L140.203 59.2029V34.3444H143.843V68.3463L120.359 42.4816V67.0719H116.72Z" fill="#D51958"/>
<path d="M86.5664 67.0725V34.3447H103.494V37.899H90.3816V47.2881H103.494V50.9099H90.3816V63.4508H103.494V67.0725H86.5664Z" fill="#D51958"/>
<path d="M51.106 63.4061H53.5401C57.4867 63.4061 60.2203 63.2347 61.7408 62.8921C63.2609 62.5342 64.5252 61.9306 65.5339 61.0812C66.8497 59.9636 67.851 58.5253 68.538 56.7669C69.225 54.9932 69.5683 52.9665 69.5683 50.6863C69.5683 48.3911 69.225 46.3791 68.538 44.6504C67.8654 42.9066 66.8641 41.4686 65.5339 40.336C64.5252 39.4713 63.2388 38.8605 61.6749 38.5026C60.1254 38.1301 57.4138 37.944 53.5401 37.944H51.106V63.4061ZM47.2471 67.0725V34.3447H53.4084C57.9691 34.3447 61.1778 34.5833 63.0342 35.0601C64.9054 35.522 66.5425 36.3046 67.9459 37.4072C69.7876 38.853 71.1837 40.701 72.1338 42.9513C73.0839 45.2018 73.559 47.795 73.559 50.7309C73.559 53.6519 73.0839 56.2376 72.1338 58.4881C71.1984 60.7237 69.8023 62.5642 67.9459 64.0097C66.5425 65.1127 64.9418 65.9024 63.1439 66.3793C61.3607 66.8414 58.5758 67.0725 54.7898 67.0725H53.4084H47.2471Z" fill="#D51958"/>
<path d="M28.9336 67.0725V34.3447H32.7488V67.0725H28.9336Z" fill="#D51958"/>
<path d="M275.219 15.6355H287.9V20.5535H275.219V33.1902H269.875V20.5535H257.126V15.6355H269.875V2.99902H275.219V15.6355Z" fill="#D51958"/>
</svg>
