<svg width="190" height="91" viewBox="0 0 190 91" fill="none" xmlns="http://www.w3.org/2000/svg">
<g id="logo">
<path id="Vector" d="M64.3521 0H49.3412V9.51921H64.3521V0Z" fill="white"/>
<path id="Vector_2" d="M7.80283 41.7974C11.5184 45.6473 17.0918 48.6945 23.7795 48.6945C26.6039 48.6945 29.2789 47.6518 29.2789 45.5665C29.2789 43.4815 27.198 42.4392 22.2934 41.477C14.1196 39.8733 1.63601 37.7876 1.63601 24.3953C1.63601 15.3338 8.62086 7.07324 22.2202 7.07324C30.3201 7.07324 37.6026 9.55905 43.25 14.5318L35.224 25.9989C30.9136 22.4708 25.3402 20.7066 21.4015 20.7066C17.6859 20.7066 16.8686 22.1497 16.8686 23.5099C16.8686 25.5959 18.8722 26.3179 24.1512 27.2794C32.3257 28.8073 44.4382 31.3725 44.4382 43.7225C44.4382 55.5105 36.3405 62.3271 23.0368 62.3271C12.4843 62.3271 5.27629 58.9596 0 53.8285L7.80283 41.7974Z" fill="white"/>
<path id="Vector_3" d="M49.3412 61.3623V13.6398H64.3521V61.3623H49.3412Z" fill="white"/>
<path id="Vector_4" d="M72.381 52.6049V61.366H80.5016L72.381 52.6049Z" fill="white"/>
<path id="Vector_5" d="M112.889 61.3646H127.9V34.8329L112.889 51.0321V61.3646Z" fill="white"/>
<path id="Vector_6" d="M173.066 61.3637L171.132 54.467H152.112L150.177 61.3637H133.906L152.186 7.87445H171.063L189.344 61.3637H173.066ZM161.623 22.1475L155.976 40.9942H167.271L161.623 22.1475Z" fill="white"/>
<path id="Vector_7" d="M127.902 0.0202952V22.6307L112.891 38.8332L92.0125 61.3649L81.5179 50.0398L81.5208 50.0326L72.3784 40.1658V17.5282L72.3845 17.521L92.0161 38.7064L127.883 0L127.902 0.0202952Z" fill="white"/>
<g id="Access">
<path d="M112.824 87.5295H104.415L103.383 90.6042H97.7069L105.326 70.2988H111.883L119.532 90.6042H113.856L112.824 87.5295ZM105.781 83.1153H111.458L108.604 74.8653L105.781 83.1153Z" fill="white"/>
<path d="M119.995 79.249L119.904 79.2186C120.602 78.0618 121.574 77.1485 122.788 76.5092C124.032 75.8699 125.398 75.535 126.886 75.535C128.312 75.535 129.557 75.809 130.619 76.3265C131.621 76.8441 132.41 77.4834 132.926 78.2444L129.891 81.0756C129.618 80.6494 129.223 80.3145 128.737 80.0406C128.282 79.797 127.736 79.6752 127.129 79.6752C126.127 79.6752 125.307 79.9797 124.67 80.619C124.032 81.2583 123.699 82.1411 123.699 83.2066C123.699 84.3026 124.032 85.1854 124.67 85.8247C125.307 86.464 126.127 86.7989 127.129 86.7989C127.736 86.7989 128.282 86.6771 128.737 86.4031C129.253 86.1291 129.648 85.7638 129.921 85.3681L132.957 88.2297C132.441 88.9908 131.651 89.6301 130.65 90.1476C129.587 90.6651 128.343 90.9391 126.916 90.9391C125.429 90.9391 124.063 90.6042 122.818 89.9649C121.634 89.3256 120.663 88.4428 119.965 87.2555C119.267 86.1291 118.933 84.7897 118.933 83.2371C118.933 81.7454 119.297 80.4363 119.995 79.249Z" fill="white"/>
<path d="M134.201 79.249L134.11 79.2186C134.808 78.0618 135.78 77.1485 136.994 76.5092C138.238 75.8699 139.604 75.535 141.092 75.535C142.518 75.535 143.763 75.809 144.825 76.3265C145.827 76.8441 146.616 77.4834 147.132 78.2444L144.097 81.0756C143.824 80.6494 143.429 80.3145 142.943 80.0406C142.488 79.797 141.942 79.6752 141.335 79.6752C140.333 79.6752 139.513 79.9797 138.876 80.619C138.238 81.2583 137.905 82.1411 137.905 83.2066C137.905 84.3026 138.238 85.1854 138.876 85.8247C139.513 86.464 140.333 86.7989 141.335 86.7989C141.942 86.7989 142.488 86.6771 142.943 86.4031C143.459 86.1291 143.854 85.7638 144.127 85.3681L147.163 88.2297C146.647 88.9908 145.857 89.6301 144.856 90.1476C143.793 90.6651 142.549 90.9391 141.122 90.9391C139.635 90.9391 138.269 90.6042 137.024 89.9649C135.84 89.3256 134.869 88.4428 134.171 87.2555C133.473 86.1291 133.139 84.7897 133.139 83.2371C133.139 81.7454 133.503 80.4363 134.201 79.249Z" fill="white"/>
<path d="M148.377 79.3708L148.255 79.4317C148.923 78.2749 149.864 77.3311 151.048 76.631C152.232 75.9308 153.568 75.5959 155.055 75.5959C156.482 75.5959 157.787 75.9308 158.94 76.6005C160.094 77.2703 160.974 78.214 161.612 79.4621C162.249 80.7103 162.583 82.1716 162.583 83.785V84.7897H152.141C152.293 85.5203 152.687 86.1291 153.355 86.6467C153.993 87.1642 154.842 87.4077 155.905 87.4077C156.542 87.4077 157.21 87.286 157.878 87.0424C158.576 86.7989 159.092 86.4945 159.487 86.1291L161.46 89.0517C160.762 89.691 159.881 90.178 158.758 90.5129C157.696 90.8478 156.573 91 155.358 91C153.81 91 152.444 90.6956 151.261 90.0563C150.077 89.417 149.105 88.5341 148.407 87.3469C147.709 86.2205 147.375 84.8505 147.375 83.2675C147.375 81.8367 147.709 80.5276 148.377 79.3708ZM152.96 80.0101C152.475 80.5276 152.171 81.1365 152.05 81.7758H158.09C157.999 81.1365 157.696 80.5581 157.24 80.0406C156.755 79.523 156.026 79.249 155.055 79.249C154.144 79.249 153.446 79.4926 152.96 80.0101Z" fill="white"/>
<path d="M164.703 85.4898V85.4594C165.28 85.9769 166.1 86.4336 167.101 86.8293C168.103 87.2251 169.044 87.4077 169.894 87.4077C170.531 87.4077 171.047 87.3164 171.381 87.1338C171.715 86.9511 171.867 86.6771 171.867 86.3422C171.867 86.0074 171.654 85.7334 171.229 85.5507C170.835 85.3985 170.197 85.2159 169.317 85.0636C168.073 84.8505 167.101 84.607 166.282 84.3635C165.523 84.1199 164.825 83.6633 164.187 83.024C163.58 82.3847 163.277 81.5018 163.277 80.345C163.277 79.4621 163.519 78.6402 164.005 77.9096C164.491 77.1789 165.219 76.6005 166.16 76.1743C167.101 75.7481 168.224 75.535 169.53 75.535C170.683 75.535 171.806 75.7177 172.869 76.0525C173.901 76.3874 174.842 76.8441 175.661 77.4834L173.87 80.5885C173.415 80.1319 172.778 79.7361 171.988 79.4317C171.199 79.1273 170.38 78.9751 169.56 78.9751C168.983 78.9751 168.528 79.0664 168.194 79.249C167.86 79.4317 167.708 79.6752 167.708 79.9797C167.708 80.3145 167.89 80.5581 168.255 80.7103C168.619 80.8625 169.226 81.0147 170.076 81.1669C171.321 81.38 172.322 81.6236 173.142 81.8976C173.961 82.1716 174.69 82.6586 175.327 83.298C175.965 83.9373 176.268 84.881 176.268 86.0987C176.268 87.0424 175.995 87.8644 175.449 88.595C174.902 89.3256 174.144 89.9041 173.142 90.3303C172.14 90.7565 170.956 90.9696 169.59 90.9696C168.315 90.9696 167.041 90.7565 165.766 90.3607C164.521 89.9649 163.519 89.417 162.761 88.7168L164.703 85.4898Z" fill="white"/>
<path d="M178.435 85.4898V85.4594C179.012 85.9769 179.831 86.4336 180.833 86.8293C181.835 87.2251 182.776 87.4077 183.626 87.4077C184.263 87.4077 184.779 87.3164 185.113 87.1338C185.447 86.9511 185.599 86.6771 185.599 86.3422C185.599 86.0074 185.386 85.7334 184.961 85.5507C184.567 85.3985 183.929 85.2159 183.049 85.0636C181.804 84.8505 180.833 84.607 180.013 84.3635C179.254 84.1199 178.556 83.6633 177.919 83.024C177.312 82.3847 177.008 81.5018 177.008 80.345C177.008 79.4621 177.251 78.6402 177.737 77.9096C178.222 77.1789 178.951 76.6005 179.892 76.1743C180.833 75.7481 181.956 75.535 183.261 75.535C184.415 75.535 185.538 75.7177 186.6 76.0525C187.632 76.3874 188.573 76.8441 189.393 77.4834L187.602 80.5885C187.147 80.1319 186.509 79.7361 185.72 79.4317C184.931 79.1273 184.111 78.9751 183.292 78.9751C182.715 78.9751 182.26 79.0664 181.926 79.249C181.592 79.4317 181.44 79.6752 181.44 79.9797C181.44 80.3145 181.622 80.5581 181.986 80.7103C182.351 80.8625 182.958 81.0147 183.808 81.1669C185.052 81.38 186.054 81.6236 186.873 81.8976C187.693 82.1716 188.422 82.6586 189.059 83.298C189.696 83.9373 190 84.881 190 86.0987C190 87.0424 189.727 87.8644 189.18 88.595C188.634 89.3256 187.875 89.9041 186.873 90.3303C185.872 90.7565 184.688 90.9696 183.322 90.9696C182.047 90.9696 180.772 90.7565 179.497 90.3607C178.253 89.9649 177.251 89.417 176.492 88.7168L178.435 85.4898Z" fill="white"/>
</g>
</g>
</svg>
