<svg xmlns="http://www.w3.org/2000/svg" width="58.427" height="58.423" viewBox="0 0 58.427 58.423">
  <g id="Grupo_30233" data-name="Grupo 30233" transform="translate(-222.484 -840.267)">
    <path id="Caminho_127956" data-name="Caminho 127956" d="M32.037,33.431a8.216,8.216,0,0,0-7.3-8.163c0-.017,0-8.269-8.216-8.269S8.3,25.251,8.3,25.269A8.206,8.206,0,0,0,3.794,39.6,8.208,8.208,0,0,0,8.322,51.223a8.2,8.2,0,0,0,16.386,0A8.208,8.208,0,0,0,29.236,39.6,8.188,8.188,0,0,0,32.037,33.431Z" transform="translate(222.398 838.786)" fill="#95c590"/>
    <path id="Caminho_127957" data-name="Caminho 127957" d="M44.867,49.954c0,6.05-2.861,10.954-6.39,10.954S33,56,33,49.954,35.861,39,39.39,39,44.867,43.9,44.867,49.954Z" transform="translate(219.608 836.869)" fill="#f0dc62"/>
    <path id="Caminho_127958" data-name="Caminho 127958" d="M27.867,49.954c0,6.05-1.948,10.954-5.477,10.954S16,56,16,49.954,17.948,39,21.477,39,27.867,43.9,27.867,49.954Z" transform="translate(221.09 836.869)" fill="#f0dc62"/>
    <path id="Caminho_127959" data-name="Caminho 127959" d="M28.913,40.129,28,31h5.477l-.913,9.129Z" transform="translate(220.044 837.566)" fill="#81b87b"/>
    <path id="Caminho_127960" data-name="Caminho 127960" d="M37.606,47.041c0,7.562-2.765,13.693-7.3,13.693S23,54.6,23,47.041,25.765,37,30.3,37,37.606,39.479,37.606,47.041Z" transform="translate(220.48 837.043)" fill="#fcea81"/>
    <path id="Caminho_127961" data-name="Caminho 127961" d="M45.954,17.606S41.39,9.39,35,5.739L40.477,3s6.39,7.3,7.3,14.606Z" transform="translate(219.434 840.005)" fill="#81b87b"/>
    <path id="Caminho_127962" data-name="Caminho 127962" d="M50.826,17.606S55.39,9.39,61.78,5.739L56.3,3s-6.39,7.3-7.3,14.606Z" transform="translate(218.214 840.005)" fill="#81b87b"/>
    <path id="Caminho_127963" data-name="Caminho 127963" d="M50.564,17.431H46.913L46,1h5.477Z" transform="translate(218.476 840.18)" fill="#95c590"/>
    <path id="Caminho_127964" data-name="Caminho 127964" d="M57.257,24.3c0,5.042-4.087,34.689-9.129,34.689S39,29.345,39,24.3,43.087,17,48.129,17,57.257,19.261,57.257,24.3Z" transform="translate(219.086 838.786)" fill="#f59760"/>
    <path id="Caminho_127965" data-name="Caminho 127965" d="M14.808,57.809a7.32,7.32,0,0,1-5.66-6.726.913.913,0,0,0-.61-.812,7.31,7.31,0,0,1-4.887-6.885,7.212,7.212,0,0,1,.864-3.444.913.913,0,0,0-.2-1.12,7.292,7.292,0,0,1,4-12.734.913.913,0,0,0,.811-.9c0-.3.107-7.358,7.3-7.358s7.3,7.056,7.3,7.357a.913.913,0,0,0,.813.907,7.255,7.255,0,0,1,3.776,1.575.913.913,0,1,0,1.148-1.42,9.107,9.107,0,0,0-3.963-1.853,11.332,11.332,0,0,0-1.071-3.758C23.385,18.519,21.143,16,16.431,16s-6.953,2.519-8,4.633A11.329,11.329,0,0,0,7.357,24.39,9.119,9.119,0,0,0,2.6,39.712,9.118,9.118,0,0,0,7.378,51.778a9.157,9.157,0,0,0,7.029,7.813.926.926,0,0,0,.2.022.913.913,0,0,0,.2-1.8Z" transform="translate(222.484 838.873)"/>
    <path id="Caminho_127966" data-name="Caminho 127966" d="M17.477,37.78a.913.913,0,0,0,.913-.913V35.481L22.612,32.1a.913.913,0,0,0-1.141-1.426L18.39,33.142V25.913a.913.913,0,0,0-1.826,0v7.229l-3.081-2.465A.913.913,0,0,0,12.342,32.1l4.222,3.378v1.387A.913.913,0,0,0,17.477,37.78Z" transform="translate(221.438 838.089)"/>
    <path id="Caminho_127967" data-name="Caminho 127967" d="M15.451,41.944a.913.913,0,0,0-.142-1.284L13.483,39.2a.913.913,0,1,0-1.141,1.426l1.826,1.461a.913.913,0,0,0,1.283-.142Z" transform="translate(221.438 836.869)"/>
    <path id="Caminho_127968" data-name="Caminho 127968" d="M39.755,57.7a3.949,3.949,0,0,1-2.846,1.514,2.921,2.921,0,0,1-2.167-1.06c1.922-2.573,3.08-6.7,3.08-11.72,0-5.8-1.67-9.239-5.066-10.45l.5-4.977a.913.913,0,0,0-.908-1H26.867a.913.913,0,0,0-.913,1l.5,4.977a6.359,6.359,0,0,0-2.774,1.907A4.887,4.887,0,0,0,21.39,37.3C17.509,37.3,15,41.958,15,49.17c0,6.655,3.208,11.867,7.3,11.867a4.675,4.675,0,0,0,3.411-1.529,5.716,5.716,0,0,0,7.783,0,4.675,4.675,0,0,0,3.411,1.529A5.623,5.623,0,0,0,41.128,58.9a.913.913,0,1,0-1.369-1.2ZM27.871,31.826H31.34l-.374,3.743a10.329,10.329,0,0,0-2.713,0ZM22.3,59.212c-2.969,0-5.477-4.6-5.477-10.041,0-5.913,1.877-10.041,4.564-10.041a3.048,3.048,0,0,1,1.29.307,15.96,15.96,0,0,0-1.29,7c0,5.021,1.158,9.147,3.08,11.72A2.921,2.921,0,0,1,22.3,59.212Zm7.3,0c-3.7,0-6.39-5.375-6.39-12.78,0-8.044,3.23-9.129,6.39-9.129S36,38.387,36,46.431C36,53.837,33.308,59.212,29.606,59.212Z" transform="translate(221.177 837.653)"/>
    <path id="Caminho_127969" data-name="Caminho 127969" d="M60.881,4.66,55.4,1.922a.913.913,0,0,0-1.1.212,40.853,40.853,0,0,0-3.274,4.393l.31-5.562A.913.913,0,0,0,50.431,0H44.954a.913.913,0,0,0-.913.964l.31,5.563a40.954,40.954,0,0,0-3.278-4.394.913.913,0,0,0-1.1-.212L34.5,4.66a.913.913,0,0,0-.045,1.609c3.88,2.216,7.072,6.185,8.968,8.936a7.621,7.621,0,0,0-5.773,7.616c0,3.378,3.576,35.6,10.041,35.6S57.734,26.2,57.734,22.822a7.62,7.62,0,0,0-5.777-7.616c1.9-2.751,5.088-6.716,8.973-8.936a.913.913,0,0,0-.045-1.609ZM49.466,1.826,48.755,14.64c-.347-.022-.7-.035-1.063-.035s-.716.013-1.063.035L45.919,1.826Zm-12.7,3.743,3.388-1.693a40.3,40.3,0,0,1,4.418,6.642l.19,3.417a34.05,34.05,0,0,0-8-8.365ZM55.908,22.822c0,.433-.033,1.06-.091,1.826H51.344v1.826h4.3c-.253,2.442-.68,5.679-1.245,9.129H49.518v1.826H54.1c-.258,1.479-.539,2.976-.842,4.446-.365,1.756-.718,3.3-1.067,4.683H48.605v1.826h3.1c-1.762,6.315-3.28,8.216-4.01,8.216-.913,0-3.036-2.937-5.34-13.693h2.6V41.079H41.973c-.617-3.1-1.144-6.277-1.552-9.129h4.533V30.124H40.171a71.18,71.18,0,0,1-.694-7.3A6.812,6.812,0,0,1,39.718,21h3.41V19.17H40.615c1.9-2.481,5.66-2.739,7.077-2.739C49.62,16.431,55.908,16.892,55.908,22.822Zm-5.286-8.887.19-3.417a40.348,40.348,0,0,1,4.417-6.641l3.388,1.692a34.056,34.056,0,0,0-7.995,8.366Z" transform="translate(219.522 840.267)"/>
  </g>
</svg>
