<svg xmlns="http://www.w3.org/2000/svg" width="52.532" height="54.358" viewBox="0 0 52.532 54.358">
  <g id="thyme" transform="translate(-21.162 -12.999)">
    <path id="Caminho_128062" data-name="Caminho 128062" d="M279.769,70.9a.564.564,0,0,0-.55.441c-.158.714-.528,2.279-1.1,4.434h0c-.581,2.194-1.367,5-2.349,8.135-.766,2.445-1.65,5.092-2.647,7.809L271.407,96.1a100.419,100.419,0,0,1-5.475,11.446.072.072,0,0,1-.009.016,54.24,54.24,0,0,1-3.525,5.463.633.633,0,0,0,.5,1.013,2.584,2.584,0,0,0,2.009-.97q.235-.291.464-.589c3.613-4.7,6.526-11.1,8.751-17.212l.652-1.952a161.726,161.726,0,0,0,4.761-17.683c.4-1.886.659-3.307.786-4.071a.536.536,0,0,0,.008-.094A.564.564,0,0,0,279.769,70.9Z" transform="translate(-214.141 -51.425)" fill="#50663a"/>
    <path id="Caminho_128063" data-name="Caminho 128063" d="M102.64,136.465a.056.056,0,0,1-.009-.016A100.415,100.415,0,0,1,97.156,125l-1.719-4.377c-1-2.717-1.881-5.364-2.647-7.809-.982-3.136-1.768-5.94-2.349-8.135-.569-2.154-.938-3.72-1.1-4.435a.564.564,0,0,0-1.114.122.533.533,0,0,0,.008.094c.128.764.389,2.185.786,4.071a161.92,161.92,0,0,0,4.761,17.684l.652,1.951c2.225,6.116,5.138,12.513,8.751,17.212q.23.3.464.589a2.584,2.584,0,0,0,2.009.97.632.632,0,0,0,.5-1.012,54.384,54.384,0,0,1-3.525-5.464Z" transform="translate(-59.566 -77.1)" fill="#50663a"/>
    <path id="Caminho_128064" data-name="Caminho 128064" d="M425.941,95.167c0-.011-.008-.023-.011-.036a11.787,11.787,0,0,1,1.966-1.037,5.274,5.274,0,0,1,1.678-.4,2.237,2.237,0,0,1,1.423.368c3.135,2.208.349,5.578,1.858,6.218C432.854,100.276,428.015,101.748,425.941,95.167Z" transform="translate(-359.496 -71.66)" fill="#8dc63f"/>
    <path id="Caminho_128065" data-name="Caminho 128065" d="M438.184,25.949c3.089,3.514-1.949,5.5-1.949,5.5a5.274,5.274,0,0,0-1.678.4,3.234,3.234,0,0,1,.116-4.97c2.009-1.96,1.668-3.023,1.541-3.271a.006.006,0,0,1,.01,0Z" transform="translate(-366.157 -9.422)" fill="#517a2a"/>
    <path id="Caminho_128066" data-name="Caminho 128066" d="M430.076,264.008c.305-5.694-4.112-5.638-4.112-5.638l-2.288,1.739h-.006c1.456,4.931,6.481,3.945,6.481,3.945Z" transform="translate(-357.488 -217.927)" fill="#517a2a"/>
    <path id="Caminho_128067" data-name="Caminho 128067" d="M406.334,323.67a4.227,4.227,0,0,0-.7-2.228s2.989-.992,5.587,2.414a4.99,4.99,0,0,1-5.265,1.275A3.053,3.053,0,0,0,406.334,323.67Z" transform="translate(-341.466 -273.826)" fill="#517a2a"/>
    <path id="Caminho_128068" data-name="Caminho 128068" d="M364.909,315.076a4.9,4.9,0,0,1,.553.734,4.226,4.226,0,0,1,.7,2.228,3.053,3.053,0,0,1-.383,1.461c-.6,1.107-2.015,2.23-4.888,3.113a.377.377,0,0,1-.46-.349C359.7,313.5,364.909,315.076,364.909,315.076Z" transform="translate(-301.264 -268.193)" fill="#8dc63f"/>
    <path id="Caminho_128069" data-name="Caminho 128069" d="M350.377,24.619a1.045,1.045,0,0,1-.763.049c-7.462-2.4-3.806-8.668-3.806-8.668,6.663.48,5.542,6.413,5.145,7.928a1.057,1.057,0,0,1-.361.558,1.024,1.024,0,0,1-.215.133Z" transform="translate(-287.54 -2.665)" fill="#8dc63f"/>
    <path id="Caminho_128070" data-name="Caminho 128070" d="M315.45,404.736a1.329,1.329,0,0,0-.292.7,1.188,1.188,0,0,0-.008.141,1.342,1.342,0,0,0,.03.282,1.3,1.3,0,0,0,.252.542c5.583,7.025,10.238-1.642,10.238-1.642C320.851,399.09,316.715,403.183,315.45,404.736Z" transform="translate(-261.106 -345.359)" fill="#739937"/>
    <path id="Caminho_128071" data-name="Caminho 128071" d="M316,256.519a.866.866,0,0,1-.119.337.891.891,0,0,1-.245.261c-.158.111-.369.249-.622.394a5.884,5.884,0,0,1-2.719.833c-1.389.025-2.9-.665-3.987-3.1,2.647-1.954,4.487-1.907,5.706-1.278a4.336,4.336,0,0,1,1.652,1.592h0a4.888,4.888,0,0,1,.256.469A.863.863,0,0,1,316,256.519Z" transform="translate(-255.031 -213.673)" fill="#739937"/>
    <path id="Caminho_128072" data-name="Caminho 128072" d="M314.632,166.352a4.4,4.4,0,0,1,.914.179,6.578,6.578,0,0,1,.633.225,11.8,11.8,0,0,1,1.942,1.049c.041.027.083.054.123.082-2.068,6.622-6.943,5.03-6.943,5.03,1.509-.639-1.276-4.01,1.858-6.218A2.2,2.2,0,0,1,314.632,166.352Z" transform="translate(-257.687 -136.192)" fill="#8dc63f"/>
    <path id="Caminho_128073" data-name="Caminho 128073" d="M317.9,104.186a4.4,4.4,0,0,0-.914-.179c-.119-.047-5.053-2.053-2-5.525l1.954-2.332a.009.009,0,0,1,.016.009c-.106.261-.332,1.3,1.541,3.26a3.287,3.287,0,0,1,.037,4.992A6.574,6.574,0,0,0,317.9,104.186Z" transform="translate(-260.08 -73.847)" fill="#517a2a"/>
    <path id="Caminho_128074" data-name="Caminho 128074" d="M230.623,295.01a12.292,12.292,0,0,0-1,5.162l5.874,3.265a1.989,1.989,0,0,0,.648.556h0a1.41,1.41,0,0,0,.122-.123,1.326,1.326,0,0,0,.281-.521C237.08,301.419,238.029,295.676,230.623,295.01Z" transform="translate(-185.119 -250.469)" fill="#739937"/>
    <path id="Caminho_128075" data-name="Caminho 128075" d="M113.3,434.337a1.333,1.333,0,0,0-.292-.7c-1.265-1.552-5.4-5.646-10.22.023,0,0,4.655,8.667,10.238,1.642a1.305,1.305,0,0,0,.252-.542,1.341,1.341,0,0,0,.03-.282A1.172,1.172,0,0,0,113.3,434.337Z" transform="translate(-72.498 -371.027)" fill="#8dc63f"/>
    <path id="Caminho_128076" data-name="Caminho 128076" d="M138.743,196.71a11.72,11.72,0,0,1,1.942-1.048,5.24,5.24,0,0,1,1.545-.4,2.2,2.2,0,0,1,1.476.346c3.134,2.209.349,5.579,1.858,6.217,0,0-4.875,1.593-6.943-5.03Z" transform="translate(-104.321 -161.865)" fill="#739937"/>
    <g id="Grupo_30241" data-name="Grupo 30241" transform="translate(31.118 16.567)">
      <path id="Caminho_128077" data-name="Caminho 128077" d="M150.932,129.046c3.089,3.514-2,5.526-2,5.526a5.24,5.24,0,0,0-1.545.4h0a3.2,3.2,0,0,1,.037-4.992c1.913-1.755,1.919-2.663,1.729-3.063Z" transform="translate(-142.139 -117.746)" fill="#8dc63f"/>
      <path id="Caminho_128078" data-name="Caminho 128078" d="M134.857,285.423a.863.863,0,0,1,.077-.491,5.159,5.159,0,0,1,.256-.469,4.329,4.329,0,0,1,1.652-1.593c1.219-.627,3.059-.676,5.706,1.278-1.089,2.434-2.6,3.123-3.987,3.1a5.884,5.884,0,0,1-2.719-.833c-.253-.144-.464-.283-.622-.394a.877.877,0,0,1-.245-.261A.866.866,0,0,1,134.857,285.423Z" transform="translate(-132.089 -255.912)" fill="#8dc63f"/>
      <path id="Caminho_128079" data-name="Caminho 128079" d="M111.077,53.519a1.023,1.023,0,0,1-.215-.133,1.057,1.057,0,0,1-.361-.558c-.4-1.514-1.518-7.448,5.145-7.928,0,0,3.656,6.267-3.806,8.669A1.046,1.046,0,0,1,111.077,53.519Z" transform="translate(-110.176 -44.9)" fill="#8dc63f"/>
    </g>
    <path id="Caminho_128080" data-name="Caminho 128080" d="M62.386,350.342s-2.989-.992-5.587,2.414a4.989,4.989,0,0,0,5.263,1.275l.324-3.689Z" transform="translate(-31.651 -299.493)" fill="#517a2a"/>
    <path id="Caminho_128081" data-name="Caminho 128081" d="M60.68,228.215a1.164,1.164,0,0,1-.106.064,1.223,1.223,0,0,1-.579.149h-.006a1.212,1.212,0,0,1-.651-.188,6.947,6.947,0,0,1-.946-.72,6.385,6.385,0,0,1-.768-.83c-1.15-1.5-1.9-3.946.011-7.63,0,0,4.831-.135,3.57,8.32A1.231,1.231,0,0,1,60.68,228.215Z" transform="translate(-31.354 -183.013)" fill="#739937"/>
    <path id="Caminho_128082" data-name="Caminho 128082" d="M31.073,124.1c-2.074,6.581-6.913,5.109-6.913,5.109,1.509-.639-1.277-4.009,1.858-6.218a2.265,2.265,0,0,1,1.469-.366,4.453,4.453,0,0,1,.95.169,6.815,6.815,0,0,1,.682.233,11.786,11.786,0,0,1,1.966,1.037C31.081,124.077,31.077,124.089,31.073,124.1Z" transform="translate(-2.662 -97.361)" fill="#8dc63f"/>
    <path id="Caminho_128083" data-name="Caminho 128083" d="M31.1,62.2a4.453,4.453,0,0,0-.95-.169s-5.085-1.992-2-5.506l1.784-2.13c-.193.4-.191,1.306,1.727,3.067a3.2,3.2,0,0,1,.116,4.97A6.816,6.816,0,0,0,31.1,62.2Z" transform="translate(-5.324 -36.77)" fill="#739937"/>
    <path id="Caminho_128084" data-name="Caminho 128084" d="M36.4,289.018a1.212,1.212,0,0,1-.651-.188,6.948,6.948,0,0,1-.946-.72,6.386,6.386,0,0,1-.768-.83s-4.443-.058-4.11,5.683c0,0,5.025.987,6.481-3.945Z" transform="translate(-7.771 -243.603)" fill="#8dc63f"/>
    <path id="Caminho_128085" data-name="Caminho 128085" d="M412.018,199.315a1.231,1.231,0,0,1-.525-.837c-1.26-8.454,3.57-8.319,3.57-8.319,1.91,3.683,1.162,6.131.011,7.629a6.317,6.317,0,0,1-.768.831,6.946,6.946,0,0,1-.946.72,1.211,1.211,0,0,1-.651.188H412.7a1.223,1.223,0,0,1-.579-.149A1.162,1.162,0,0,1,412.018,199.315Z" transform="translate(-346.488 -157.345)" fill="#739937"/>
    <path id="Caminho_128086" data-name="Caminho 128086" d="M101.015,343.984s5.214-1.576,4.473,7.185a.377.377,0,0,1-.46.349c-2.873-.884-4.286-2.005-4.888-3.113h0a3.6,3.6,0,0,1,.324-3.689A4.964,4.964,0,0,1,101.015,343.984Z" transform="translate(-69.805 -293.868)" fill="#739937"/>
    <path id="Caminho_128087" data-name="Caminho 128087" d="M223.344,323.91a12.606,12.606,0,0,0-1.254.174,6.6,6.6,0,0,0-3.6,1.755c-1.985,2.043-1.433,5.1-1.069,6.41a1.325,1.325,0,0,0,.281.521,1.4,1.4,0,0,0,.122.123,1.366,1.366,0,0,0,.357.225,1.314,1.314,0,0,0,.588.107c3.4-.191,4.878-1.581,5.4-3.231a4.981,4.981,0,0,0,.195-.89A10.594,10.594,0,0,0,223.344,323.91Z" transform="translate(-173.992 -276.137)" fill="#8dc63f"/>
    <path id="Caminho_128088" data-name="Caminho 128088" d="M105.027,433.663a7.782,7.782,0,0,1,3.994-2.775c-1.757-.419-3.915.051-6.23,2.775,0,0,2.888,5.374,6.842,4.226-2.76-.792-4.605-4.226-4.605-4.226Z" transform="translate(-72.498 -371.031)" fill="#739b34"/>
    <path id="Caminho_128089" data-name="Caminho 128089" d="M59.037,352.447a6.224,6.224,0,0,1,3.349-2.418l0-.041h0s-2.989-.969-5.587,2.437a4.879,4.879,0,0,0,4.724,1.408A4.535,4.535,0,0,1,59.037,352.447Z" transform="translate(-31.652 -299.184)" fill="#3d5b1d"/>
    <path id="Caminho_128090" data-name="Caminho 128090" d="M60.628,227.52a6.384,6.384,0,0,1-.768-.83c-1.077-1.4-1.8-3.639-.321-6.943a3.32,3.32,0,0,0-1.9-.687c-1.91,3.684-1.161,6.133-.011,7.63a6.384,6.384,0,0,0,.768.83,7.109,7.109,0,0,0,.946.73,1.223,1.223,0,0,0,.651.2h.006a1.2,1.2,0,0,0,.686-.228,1.236,1.236,0,0,0,.348-.363C60.9,227.757,60.764,227.643,60.628,227.52Z" transform="translate(-31.354 -183.014)" fill="#517a2a"/>
    <path id="Caminho_128091" data-name="Caminho 128091" d="M26.4,129.209c1.509-.639-1.277-4.009,1.858-6.218a1.9,1.9,0,0,1,.286-.164l-.105-.033a4.454,4.454,0,0,0-.95-.169,2.265,2.265,0,0,0-1.469.366c-3.135,2.209-.349,5.579-1.858,6.218a4.918,4.918,0,0,0,2.294.016Z" transform="translate(-2.662 -97.361)" fill="#739b34"/>
    <path id="Caminho_128092" data-name="Caminho 128092" d="M30.389,56.53l.179-.214c-.812-1.026-.778-1.615-.632-1.915l-1.784,2.13c-3.089,3.514,2,5.506,2,5.506a4.453,4.453,0,0,1,.95.169,6.815,6.815,0,0,1,.682.233,3.64,3.64,0,0,0,.426-.479c-.874-.4-4.554-2.315-1.817-5.429Z" transform="translate(-5.324 -36.77)" fill="#517a2a"/>
    <path id="Caminho_128093" data-name="Caminho 128093" d="M34.452,287.759a6.3,6.3,0,0,1-.412-.481s-4.443-.058-4.11,5.683a6.732,6.732,0,0,0,2.236-.024C31.988,289.766,33.273,288.371,34.452,287.759Z" transform="translate(-7.771 -243.602)" fill="#739b34"/>
    <path id="Caminho_128094" data-name="Caminho 128094" d="M73.489,28.307c-.342-.145-.324-.551-.2-1.511.182-1.368.431-3.241-1.6-4.671a2.233,2.233,0,0,0-.528-.274,4.41,4.41,0,0,0,2.126-2.494,3.373,3.373,0,0,0-1.007-3.046l-1.96-2.338a.341.341,0,0,0-.566.373c.05.1.433,1.016-1.476,2.879a3.849,3.849,0,0,0-1.344,2.852,3.754,3.754,0,0,0,.892,2.239,13.345,13.345,0,0,0-1.924,1.1c.268-1.315.472-2.415.608-3.23a.9.9,0,0,0-1.764-.344c-.031.141-.323,1.443-.867,3.552-.185-.386-.4-.834-.618-1.316a1.384,1.384,0,0,0,.472-.732c.893-3.4-.172-5.392-.671-6.089A6.063,6.063,0,0,0,58.292,13a.336.336,0,0,0-.314.166,6.95,6.95,0,0,0-.6,5.441c.648,1.693,2.195,2.943,4.6,3.716a1.354,1.354,0,0,0,.686.04c.377.815.718,1.534.967,2.026-.535,2.024-1.259,4.61-2.166,7.533a14.16,14.16,0,0,0-2.4-1.472,3.756,3.756,0,0,0,.9-2.182A3.952,3.952,0,0,0,58.7,25.34c-1.809-1.9-1.513-2.8-1.473-2.9a.345.345,0,0,0-.584-.35l-1.949,2.326a3.362,3.362,0,0,0-1.005,3.039,4.444,4.444,0,0,0,2.13,2.505,2.167,2.167,0,0,0-.539.276c-2.03,1.43-1.78,3.3-1.6,4.671.128.961.145,1.367-.2,1.512a.336.336,0,0,0,.027.628,4.807,4.807,0,0,0,1.384.186,5.319,5.319,0,0,0,2.448-.589,7.416,7.416,0,0,0,3.395-4.419c.191.136.362.265.509.382-.712,2.263-1.53,4.709-2.452,7.239a3.73,3.73,0,0,0-.472-.155c-1.515-.378-3.279.166-5.242,1.615a.336.336,0,0,0-.107.407,5.128,5.128,0,0,0,3.163,3.157,3.849,3.849,0,0,0,.639.117,103.383,103.383,0,0,1-4.558,9.671,2.818,2.818,0,0,0-.724-1.153,1.666,1.666,0,0,0,.257-.532c.895-3.224,0-5.2-.62-6.087-1.064-1.538-2.947-2.439-5.594-2.676a.337.337,0,0,0-.336.2,12.666,12.666,0,0,0-1.044,5.176,5.051,5.051,0,0,0-.428.536c-.615.889-1.514,2.862-.62,6.087a1.668,1.668,0,0,0,.256.531,2.831,2.831,0,0,0-.722,1.157,103.434,103.434,0,0,1-4.559-9.675,3.845,3.845,0,0,0,.639-.117,5.128,5.128,0,0,0,3.163-3.157.336.336,0,0,0-.107-.407c-1.964-1.45-3.727-1.994-5.243-1.616a3.732,3.732,0,0,0-.472.155c-.922-2.53-1.74-4.976-2.452-7.239.147-.117.318-.246.509-.382a7.415,7.415,0,0,0,3.395,4.419,5.316,5.316,0,0,0,2.448.589,4.809,4.809,0,0,0,1.384-.186.336.336,0,0,0,.027-.628c-.342-.145-.324-.551-.2-1.511.182-1.368.431-3.241-1.6-4.671a2.166,2.166,0,0,0-.539-.275,4.441,4.441,0,0,0,2.13-2.505,3.358,3.358,0,0,0-1-3.033l-1.755-2.095a.951.951,0,0,0-.337-.37.336.336,0,0,0-.425.506l.19.227a.53.53,0,0,1,.03.147c.024.326-.166,1.084-1.7,2.491A3.656,3.656,0,0,0,34.808,31.3a3.863,3.863,0,0,0,.984,2.382A14.167,14.167,0,0,0,33.4,35.154c-.907-2.922-1.63-5.509-2.166-7.533.249-.493.59-1.211.967-2.026a1.358,1.358,0,0,0,.686-.04c2.4-.773,3.949-2.024,4.6-3.716a6.946,6.946,0,0,0-.6-5.441.334.334,0,0,0-.314-.166,6.063,6.063,0,0,0-4.774,2.258c-.5.7-1.564,2.687-.671,6.089a1.385,1.385,0,0,0,.472.732c-.223.482-.433.93-.618,1.316-.544-2.109-.836-3.411-.867-3.552a.9.9,0,0,0-1.764.344c.136.815.34,1.914.608,3.229a13.347,13.347,0,0,0-1.923-1.1,3.8,3.8,0,0,0,.928-2.331,3.716,3.716,0,0,0-1.388-2.768c-1.532-1.406-1.722-2.164-1.7-2.491a.538.538,0,0,1,.03-.147l.189-.226a.336.336,0,0,0-.425-.506.949.949,0,0,0-.337.37l-1.749,2.088a3.361,3.361,0,0,0-1.006,3.04,4.428,4.428,0,0,0,2.14,2.5,2.241,2.241,0,0,0-.549.282c-2.03,1.43-1.78,3.3-1.6,4.671.128.961.145,1.367-.2,1.512a.336.336,0,0,0,.034.63,4.679,4.679,0,0,0,1.259.156,5.473,5.473,0,0,0,1.625-.245c2.393-.745,3.661-2.968,4.32-4.857.21.144.394.28.547.4a164.128,164.128,0,0,0,4.7,17.459c-.08.138-.145.263-.192.363a1.2,1.2,0,0,0-.109.382,4.711,4.711,0,0,0-1.011.47,10.7,10.7,0,0,1-2.765-1.039,1.57,1.57,0,0,0,.408-.841c.512-3.435.108-5.925-1.2-7.4a3.731,3.731,0,0,0-2.709-1.3.336.336,0,0,0-.288.181c-1.8,3.478-1.322,5.911-.318,7.507a4.478,4.478,0,0,0-2.489,1.292,6.026,6.026,0,0,0-1.353,4.687.336.336,0,0,0,.27.31,6.234,6.234,0,0,0,1.058.08,5.678,5.678,0,0,0,5.741-4.039,1.557,1.557,0,0,0,.278-.074,9.044,9.044,0,0,0,2.7,1.159,3.552,3.552,0,0,0-1.009,3.192,5.554,5.554,0,0,0-.351.459c-.816-.172-3.4-.419-5.7,2.594a.336.336,0,0,0,0,.412,4.983,4.983,0,0,0,3.829,1.638,6.742,6.742,0,0,0,1.537-.185c.8,1.259,2.46,2.281,4.951,3.047a.649.649,0,0,0,.191.029.676.676,0,0,0,.378-.118.748.748,0,0,0,.324-.552c.29-3.432-.282-5.755-1.7-6.9a3.612,3.612,0,0,0-2.817-.713,3,3,0,0,1,2.163-3.224,1.212,1.212,0,0,0,.392.461c.14.1.324.219.541.347A69.34,69.34,0,0,0,42.478,63.29a3.882,3.882,0,0,0-1.407-.337,1.667,1.667,0,0,0-.3-.557c-2.112-2.592-4.239-3-5.319-3.009H35.4c-1.852,0-3.656,1.018-5.364,3.027a.336.336,0,0,0-.04.376,12.291,12.291,0,0,0,1.541,2.145,6.518,6.518,0,0,0,4.1,2.4q.191.017.381.017c1.65,0,3.253-.965,4.77-2.874a1.655,1.655,0,0,0,.318-.681,1.709,1.709,0,0,0,.027-.175,5.634,5.634,0,0,1,2.255.906c.144.186.287.37.432.549a2.908,2.908,0,0,0,2.27,1.095.968.968,0,0,0,.774-1.548,54.2,54.2,0,0,1-3.537-5.5,1.692,1.692,0,0,1,.528-1.945,1.715,1.715,0,0,0,.2.1,1.661,1.661,0,0,0,.653.136l.087,0c2.618-.148,4.4-1.008,5.3-2.558a4.48,4.48,0,0,0,.321-.685,1.534,1.534,0,0,0,.377-.123,1.7,1.7,0,0,0,.2-.1,1.692,1.692,0,0,1,.528,1.945,54.2,54.2,0,0,1-3.537,5.5.968.968,0,0,0,.774,1.548,2.908,2.908,0,0,0,2.27-1.095c.144-.179.288-.363.432-.549a5.62,5.62,0,0,1,2.255-.906,1.714,1.714,0,0,0,.027.175,1.653,1.653,0,0,0,.318.681c1.517,1.909,3.119,2.874,4.77,2.874q.19,0,.381-.017a6.514,6.514,0,0,0,4.1-2.4,12.281,12.281,0,0,0,1.541-2.145.336.336,0,0,0-.04-.376c-1.708-2.009-3.512-3.027-5.364-3.027H59.4c-1.08.011-3.207.417-5.319,3.009a1.666,1.666,0,0,0-.3.557,3.876,3.876,0,0,0-1.407.337,69.3,69.3,0,0,0,7.879-15.993c.217-.128.4-.249.541-.347a1.21,1.21,0,0,0,.393-.462,2.989,2.989,0,0,1,2.162,3.225,3.613,3.613,0,0,0-2.818.713c-1.418,1.148-1.989,3.471-1.7,6.9a.749.749,0,0,0,.324.552.676.676,0,0,0,.378.118.649.649,0,0,0,.191-.029c2.491-.766,4.15-1.788,4.95-3.047a6.735,6.735,0,0,0,1.537.185,4.983,4.983,0,0,0,3.829-1.639.336.336,0,0,0,0-.412c-2.3-3.013-4.888-2.766-5.7-2.594A5.549,5.549,0,0,0,64,46.774a3.554,3.554,0,0,0-1.009-3.192,9.041,9.041,0,0,0,2.7-1.159,1.558,1.558,0,0,0,.278.074A5.678,5.678,0,0,0,71.7,46.536a6.25,6.25,0,0,0,1.058-.08.336.336,0,0,0,.27-.31,6.024,6.024,0,0,0-1.353-4.687,4.479,4.479,0,0,0-2.488-1.292c1-1.6,1.486-4.028-.318-7.507a.336.336,0,0,0-.288-.181,3.735,3.735,0,0,0-2.709,1.3c-1.31,1.476-1.714,3.967-1.2,7.4a1.57,1.57,0,0,0,.408.841,10.694,10.694,0,0,1-2.766,1.039,4.713,4.713,0,0,0-1.011-.47,1.2,1.2,0,0,0-.109-.382c-.048-.1-.113-.225-.192-.363a164.145,164.145,0,0,0,4.7-17.459c.153-.119.337-.254.547-.4.659,1.888,1.926,4.112,4.32,4.857a5.474,5.474,0,0,0,1.625.245,4.672,4.672,0,0,0,1.26-.156.336.336,0,0,0,.034-.63Zm-10.4-7.13a.725.725,0,0,1-.123.251c-1.2-2.624-2.617-5.848-2.637-5.894a.336.336,0,1,0-.615.27c.02.046,1.439,3.278,2.646,5.914a.7.7,0,0,1-.183-.033c-2.2-.707-3.6-1.822-4.174-3.313a6.21,6.21,0,0,1,.459-4.684,5.314,5.314,0,0,1,4.059,1.962c1.37,1.914.781,4.715.568,5.528Zm-8.748,6.116A2.75,2.75,0,0,1,55.2,24.85l1.369-1.634A5.958,5.958,0,0,0,58.212,25.8,3.32,3.32,0,0,1,59.3,28.229a3.188,3.188,0,0,1-.887,1.945q-.172-.064-.345-.119a8.868,8.868,0,0,1-1.047-3.819.336.336,0,1,0-.67.034,10.884,10.884,0,0,0,.816,3.58l-.123-.014c-.275-.116-2.339-1.036-2.7-2.543Zm2.7,8.746a4.738,4.738,0,0,1-2.743.48,3.253,3.253,0,0,0,.043-1.7c-.177-1.33-.378-2.838,1.32-4.034.928-.654,2.478-.105,3.787.625a5.6,5.6,0,0,0-3.939,3.283.336.336,0,1,0,.628.237,4.923,4.923,0,0,1,3.968-2.948,6.806,6.806,0,0,1-3.064,4.06ZM35.479,31.293a3.021,3.021,0,0,1,1.149-2.242,6.267,6.267,0,0,0,1.827-2.4l1.2,1.437a2.744,2.744,0,0,1,.857,2.437c-.363,1.51-2.431,2.429-2.7,2.544l-.123.014a10.9,10.9,0,0,0,.816-3.581.336.336,0,1,0-.67-.034,8.873,8.873,0,0,1-1.047,3.82q-.173.055-.345.119a3.317,3.317,0,0,1-.967-2.114Zm3.865,6.629a5.6,5.6,0,0,0-3.939-3.283c1.309-.73,2.859-1.279,3.787-.625,1.7,1.2,1.5,2.7,1.32,4.034a3.249,3.249,0,0,0,.043,1.7,4.738,4.738,0,0,1-2.743-.48,6.808,6.808,0,0,1-3.065-4.06,4.923,4.923,0,0,1,3.968,2.948.336.336,0,1,0,.628-.237Zm-7.008-19.04a5.314,5.314,0,0,1,4.059-1.962,6.192,6.192,0,0,1,.46,4.679c-.572,1.493-1.977,2.609-4.176,3.317a.7.7,0,0,1-.183.033c1.208-2.635,2.626-5.867,2.646-5.914a.336.336,0,0,0-.615-.27c-.02.046-1.435,3.271-2.637,5.894a.726.726,0,0,1-.123-.251C31.555,23.6,30.966,20.8,32.336,18.882ZM22.223,22.419a2.746,2.746,0,0,1,.863-2.444l1.2-1.432a6.267,6.267,0,0,0,1.827,2.4,3.086,3.086,0,0,1,1.17,2.263,3.26,3.26,0,0,1-.913,2.071q-.2-.071-.393-.13a8.964,8.964,0,0,1-1.075-3.79.336.336,0,1,0-.67.042,10.95,10.95,0,0,0,.849,3.557c-.056-.007-.112-.012-.168-.016-.286-.12-2.325-1.023-2.689-2.521Zm-.035,9.218a3.278,3.278,0,0,0,.04-1.7c-.177-1.33-.378-2.838,1.32-4.034.971-.684,2.6-.107,3.927.622A5.911,5.911,0,0,0,23.4,29.8a.336.336,0,1,0,.619.258,5.3,5.3,0,0,1,3.906-2.932C26.339,31.547,23.438,31.769,22.188,31.636Zm.288,17.12a5.04,5.04,0,0,1,1.179-3.595,3.911,3.911,0,0,1,2.456-1.142,6.7,6.7,0,0,0,.539.585c-.632,1.664-3.11,3.446-4.174,4.153Zm.68.353c1.177-.807,3.271-2.408,4.026-4.042a7.409,7.409,0,0,0,.623.442,1.547,1.547,0,0,0,.394.178,4.987,4.987,0,0,1-5.043,3.422Zm6.362-4.793a.9.9,0,0,1-.2.439,4.032,4.032,0,0,1-1.277-3.005,5.389,5.389,0,0,0-.77-3.4.336.336,0,1,0-.526.417,4.806,4.806,0,0,1,.625,2.959,4.638,4.638,0,0,0,1.318,3.347.878.878,0,0,1-.528-.133,5.871,5.871,0,0,1-2.348-2.729c-.661-1.656-.437-3.614.665-5.821a3.138,3.138,0,0,1,2.008,1.079C29.635,38.776,29.991,41.143,29.518,44.316ZM26.9,53.057a.335.335,0,0,0,.385.277,6.389,6.389,0,0,1,2.338-.01,3.375,3.375,0,0,0,.1.58,3.433,3.433,0,0,0,.132.4,4.68,4.68,0,0,1-4.345-1.061,5.034,5.034,0,0,1,4.624-2.164,4.527,4.527,0,0,0-.495,1.553,7.886,7.886,0,0,0-2.461.038A.336.336,0,0,0,26.9,53.057Zm6.989,2.909a.336.336,0,1,0,.5-.445A13.773,13.773,0,0,1,31.6,50.378a2.956,2.956,0,0,1,2.294.57c1.217.986,1.719,3.173,1.453,6.325a.076.076,0,0,1-.034.054c-2.89-.889-4.552-2.1-4.94-3.588a3.631,3.631,0,0,1,.662-2.856,14.881,14.881,0,0,0,2.854,5.083Zm1.554,4.093c2.326.024,4.136,1.939,4.806,2.762a1,1,0,0,1,.161.281c-.47.128-1.77.288-4.428-.623a11.076,11.076,0,0,0-4.784-.34,5.981,5.981,0,0,1,4.244-2.079Zm4.821,4.006c-1.483,1.867-3.019,2.743-4.563,2.606-2.394-.213-4.241-2.791-4.876-3.8a10.941,10.941,0,0,1,4.941.24,9.163,9.163,0,0,0,4.647.682.951.951,0,0,1-.148.271ZM29,23.309a.228.228,0,1,1,.447-.088,177.43,177.43,0,0,0,6.009,20.155,4.5,4.5,0,0,0-1.13,1.01A159.794,159.794,0,0,1,29,23.309ZM34.442,46.4a.536.536,0,0,1-.106-.1c1.1-.306,4.5-1.179,6.233-.8a.336.336,0,0,0,.145-.655c-1.81-.4-5.087.4-6.382.757A3.86,3.86,0,0,1,36.7,43.571c1.257-.313,2.756.138,4.459,1.344a4.342,4.342,0,0,1-2.614,2.537A5.292,5.292,0,0,1,34.442,46.4ZM46.33,65.028a.3.3,0,0,1,.028.315.287.287,0,0,1-.263.162,2.24,2.24,0,0,1-1.747-.845c-3.174-3.934-6.156-9.622-8.869-16.914a5.8,5.8,0,0,0,1.883.483A78.622,78.622,0,0,0,46.33,65.028Zm-.7-19.9A12.779,12.779,0,0,1,47.6,47.715a7.187,7.187,0,0,0-2.784,1.264,12.365,12.365,0,0,1,.818-3.848ZM43.89,56.317a1,1,0,0,1-.136-.294c-.284-1.023-.8-3.61.525-5.525a5.983,5.983,0,0,1,4.145-2.266,11.1,11.1,0,0,0-2.485,4.106c-.794,2.7-1.677,3.673-2.048,3.979Zm5.629-1.787c-.78,1.341-2.382,2.088-4.76,2.223a.967.967,0,0,1-.306-.035,9.187,9.187,0,0,0,2.128-4.192,10.987,10.987,0,0,1,2.658-4.176c.455,1.1,1.49,4.1.28,6.181Zm1.583-1.74a1,1,0,0,1-.136.294,2.477,2.477,0,0,1-.24-.227,10.911,10.911,0,0,0-1.074-5.233.337.337,0,0,0-.33-.185c-.361.032-.706.078-1.038.135A12.838,12.838,0,0,0,46.432,45a5.984,5.984,0,0,1,4.145,2.266c1.325,1.917.808,4.5.525,5.526Zm3.5,6.8c.67-.822,2.48-2.737,4.806-2.762h.045a6.01,6.01,0,0,1,4.2,2.079,11.084,11.084,0,0,0-4.784.34c-2.664.913-3.964.751-4.428.624a1,1,0,0,1,.162-.282Zm4.484.292a10.964,10.964,0,0,1,4.941-.239c-.634,1.007-2.479,3.583-4.875,3.8-1.546.137-3.081-.738-4.565-2.606a.952.952,0,0,1-.148-.271,9.17,9.17,0,0,0,4.648-.682Zm10.256-9.868A4.679,4.679,0,0,1,65,51.074a3.427,3.427,0,0,0,.132-.4,3.376,3.376,0,0,0,.094-.547,6.609,6.609,0,0,1,2.323-.027.336.336,0,0,0,.147-.655,7.072,7.072,0,0,0-2.475,0,4.5,4.5,0,0,0-.5-1.592,5.08,5.08,0,0,1,4.623,2.16Zm-4.862.49c-.387,1.494-2.049,2.7-4.941,3.592a.076.076,0,0,1-.034-.055c-.266-3.147.234-5.332,1.446-6.32a2.828,2.828,0,0,1,1.809-.61,3.444,3.444,0,0,1,.491.035,13.777,13.777,0,0,1-2.793,5.143.336.336,0,0,0,.5.445,14.89,14.89,0,0,0,2.855-5.085,3.624,3.624,0,0,1,.663,2.854Zm2.176-8.047a1.548,1.548,0,0,0,.395-.178,7.385,7.385,0,0,0,.623-.442c.755,1.634,2.848,3.235,4.025,4.042a4.987,4.987,0,0,1-5.042-3.422Zm4.544-.527a5.042,5.042,0,0,1,1.179,3.595c-1.065-.706-3.542-2.489-4.174-4.153a6.689,6.689,0,0,0,.539-.584A3.907,3.907,0,0,1,71.2,41.929Zm-4.834-7.691a3.14,3.14,0,0,1,2.008-1.078c1.1,2.208,1.325,4.165.665,5.822a5.877,5.877,0,0,1-2.348,2.729.877.877,0,0,1-.528.133A4.637,4.637,0,0,0,67.482,38.5a4.922,4.922,0,0,1,.626-2.961.336.336,0,1,0-.527-.415,5.389,5.389,0,0,0-.77,3.4,4.055,4.055,0,0,1-1.277,3,.9.9,0,0,1-.2-.438c-.473-3.173-.117-5.541,1.03-6.845ZM50.509,61.429a2.24,2.24,0,0,1-1.747.845.287.287,0,0,1-.263-.162.3.3,0,0,1,.028-.315A78.6,78.6,0,0,0,57.495,45a5.808,5.808,0,0,0,1.883-.483c-2.713,7.291-5.695,12.979-8.869,16.913Zm3.379-19.414a.336.336,0,0,0,.4.255c1.73-.381,5.132.491,6.233.8a.53.53,0,0,1-.106.1,5.291,5.291,0,0,1-4.1,1.051A4.343,4.343,0,0,1,53.7,41.683c1.7-1.205,3.2-1.657,4.459-1.344a3.858,3.858,0,0,1,2.367,2.032c-1.3-.354-4.572-1.156-6.382-.757a.336.336,0,0,0-.255.4ZM65.853,20.076a159.815,159.815,0,0,1-5.326,21.078,4.5,4.5,0,0,0-1.13-1.01,177.5,177.5,0,0,0,6.009-20.155.228.228,0,1,1,.447.088Zm1.756-.023A3.217,3.217,0,0,1,68.751,17.7a5.511,5.511,0,0,0,1.694-2.543l1.33,1.587A2.759,2.759,0,0,1,72.64,19.2c-.356,1.48-2.353,2.381-2.648,2.506q-.1.006-.193.017a10.72,10.72,0,0,0,.826-3.558.336.336,0,1,0-.67-.035,8.768,8.768,0,0,1-1.047,3.779q-.211.062-.421.139a3.193,3.193,0,0,1-.878-1.992ZM72.665,28.4a4.835,4.835,0,0,1-1.894-.192c-1.717-.534-3.006-1.985-3.839-4.311a5.222,5.222,0,0,1,3.9,2.933.336.336,0,0,0,.619-.259,5.911,5.911,0,0,0-4.076-3.276c1.326-.729,2.956-1.306,3.928-.621,1.7,1.2,1.5,2.7,1.32,4.034a3.3,3.3,0,0,0,.037,1.692Z" transform="translate(0 0)" fill="#284268"/>
  </g>
</svg>
