<svg xmlns="http://www.w3.org/2000/svg" width="51.218" height="50.164" viewBox="0 0 51.218 50.164">
  <g id="Grupo_30240" data-name="Grupo 30240" transform="translate(-38.891 -32.87)">
    <g id="chard" transform="translate(38.891 32.87)">
      <path id="Caminho_128011" data-name="Caminho 128011" d="M165.675,131.3a6.84,6.84,0,0,1,3.054,2.309,5.27,5.27,0,0,1-.034,6.322s1.218,7.433-8.073,10.257c0,0-.374,4.887-6.741,3.917a55.194,55.194,0,0,0-13.891.137,9.6,9.6,0,0,0,3.6-7.419Z" transform="translate(-119.076 -112.273)" fill="#a9db89"/>
      <path id="Caminho_128012" data-name="Caminho 128012" d="M165.654,144.886c7.593,1.041,11.2-7.514,11.2-7.514,5.967-3.113,6.5-6.944,6.5-8.209a6.311,6.311,0,0,0-3.6-.242L160.949,140.9a14.863,14.863,0,0,1,.317,3.785,21.678,21.678,0,0,1,4.389.2Z" transform="translate(-136.756 -110.135)" fill="#719b56"/>
      <path id="Caminho_128013" data-name="Caminho 128013" d="M36.965,43.463s1.63-4.24-.036-10.761,1.015-9.13,2.753-10.217c0,0,.574-6.708,6.7-6.019,0,0,3.955-5.068,8.629-3a5.714,5.714,0,0,1,3.325,4.517L46.7,39.085a13.85,13.85,0,0,0-9.007,5.1Z" transform="translate(-31.695 -12.453)" fill="#a9db89"/>
      <path id="Caminho_128014" data-name="Caminho 128014" d="M103.017,58.625A26.1,26.1,0,0,1,102.2,66.1c9.919-2.141,11.573-17.359,11.573-17.359A10.649,10.649,0,0,0,113.832,45a13.06,13.06,0,0,0-4.652,4.44S102.895,49.725,103.017,58.625Z" transform="translate(-87.194 -39.474)" fill="#719b56"/>
      <path id="Caminho_128015" data-name="Caminho 128015" d="M100.867,63.837c8.123-5.307-1.926-18.39,8.212-20.78,0,0,3.64-6.377,8.337-5.039,0,0,5.226-5.662,11.572.125,3.173,2.893,2.785,6.268,1.6,8.92,0,0,2.8,5.421-6.123,10.39,0,0-1.985,8.043-13.086,5.745a2.932,2.932,0,0,0-2.115.36c-.8.483-2.343.938-5.131.276a9.731,9.731,0,0,0-3.268,0Z" transform="translate(-86.073 -31.493)" fill="#a9db89"/>
      <path id="Caminho_128016" data-name="Caminho 128016" d="M27.885,152.355a9.607,9.607,0,0,0,1.408,1.063,83.566,83.566,0,0,1,13.022-14.2c7.51-6.283,11.945-9.35,14.725-14.066,0,0-10.526,8.2-16.023,12.233-5.346,3.927-11.339,11.089-13.249,13.446A1.108,1.108,0,0,0,27.885,152.355Z" transform="translate(-24.201 -107.089)" fill="#e54871"/>
      <path id="Caminho_128017" data-name="Caminho 128017" d="M65.617,229.6l1.005,1.005a43.624,43.624,0,0,1,10.31-5.663c7.418-3.07,13.6-5.065,18.712-12.493,0,0-6.213,6.125-18.845,9.931-.776.234-1.543.5-2.293.809a36.578,36.578,0,0,0-8.787,4.883,1.017,1.017,0,0,0-.1,1.527Z" transform="translate(-56.087 -180.726)" fill="#b73463"/>
      <path id="Caminho_128018" data-name="Caminho 128018" d="M10.343,108.883l1.126.721a84.711,84.711,0,0,0,5.709-12.042,189.822,189.822,0,0,1,8.588-17.7s-7.2,8.923-10.459,16.7a61.634,61.634,0,0,1-5.385,10.316,1.438,1.438,0,0,0,.42,2.013Z" transform="translate(-9.152 -68.88)" fill="#b73463"/>
      <path id="Caminho_128019" data-name="Caminho 128019" d="M56.47,37.455c2.665-4.1-.021-8.722-4.728-9.59a5.955,5.955,0,0,0-.344-2.617c3.531-7.377-4.987-13.729-10.507-11.653a9.467,9.467,0,0,0-3.4,2.024,5.644,5.644,0,0,0-3.9.579c-.15-5.578-5.8-8.322-10.321-5.227a12.081,12.081,0,0,0-2.5,2.168c-4.441-.467-6.618,3.389-6.964,6.262-2.19,1.467-4.346,4.493-2.771,10.656a22.146,22.146,0,0,1,.617,7.866A60.082,60.082,0,0,1,6.64,47.375a1.951,1.951,0,0,0-.292,1.5C6.5,49.88,7.594,50.344,8.34,50.846a.53.53,0,0,0,.73-.162A78.658,78.658,0,0,0,14.19,40.091c5.028-3.9,6.232-2.391,9.83-4.187a9.973,9.973,0,0,1-1.244,3.673c-5.431,4-11.561,11.353-13.314,13.515a1.636,1.636,0,0,0,.113,2.186,9.865,9.865,0,0,0,1.546,1.178.527.527,0,0,0,.707-.147A84.252,84.252,0,0,1,24.353,42.555c3.307.713,4.463.136,5.861-.57a10.265,10.265,0,0,1-2.35,8.367,38.027,38.027,0,0,0-12,6.012,1.554,1.554,0,0,0-.155,2.318l1.005,1.005a.527.527,0,0,0,.708.034,43.721,43.721,0,0,1,10.176-5.582q.989-.41,1.949-.8c1.375-.56,2.711-1.1,4.007-1.677a42.071,42.071,0,0,1,7.481.367c3.7.673,6.723-.971,7.29-4.033,6.4-2.155,8.347-6.288,8.148-10.542ZM44.695,35.034c-2.3-1.3-6.821-2.271-9.909-1.257a25.87,25.87,0,0,0,4.76-5.678c.63-.493,1.2-.978,1.674-1.409a1.7,1.7,0,0,1,1.549-.419c.641.152,1.388.145,1.851.7a5.582,5.582,0,0,0,3.788,1.917.527.527,0,0,0,0-1.054,4.4,4.4,0,0,1-2.735-1.3,24.39,24.39,0,0,0,4.83-.66c.4,1.244,1.011,5.26-5.809,9.163Zm4.171-18.318c2.389,2.179,2.916,4.9,1.575,8.084-1.007.271-5.06,1.1-7.683.4,2.67-2.663,3.495-5.123,2.416-5.2a.529.529,0,0,0-.57.476c-.206,2.017-3.949,5.59-7.393,8.1a12.136,12.136,0,0,0,.675-5.208,6.3,6.3,0,0,1,2.9-4.421.527.527,0,0,0-.485-.936A7.005,7.005,0,0,0,37.5,21.143a6.968,6.968,0,0,1,.579-4.624c.5-.516,5.128-4.967,10.792.2ZM20.6,14.184a14.664,14.664,0,0,1,.6,3.258,3.337,3.337,0,0,0-.72-.559,3.413,3.413,0,0,0-1.175-.429.527.527,0,0,0-.137,1.045,2.469,2.469,0,0,1,.787.3,2.427,2.427,0,0,1,1.18,2.291,11.318,11.318,0,0,1-.876,3.2c-1.126,1.543-2.548,3.572-3.958,5.809a12.491,12.491,0,0,0-.343-2.82,6.361,6.361,0,0,0,1.61-4.663.527.527,0,0,0-1.048.113,5.4,5.4,0,0,1-.937,3.341c-1.921-4.433-.619-11.241,5.018-10.886ZM12.05,29.8c-1.048-4.1-.493-7.115,1.643-8.988a11.163,11.163,0,0,0,.8,4.381,11.655,11.655,0,0,1,.621,5.847c-.827,1.4-1.618,2.839-2.308,4.268A24,24,0,0,0,12.05,29.8Zm-3.6,19.869-.668-.427a.916.916,0,0,1-.266-1.275,62.353,62.353,0,0,0,5.433-10.405,65.733,65.733,0,0,1,6.2-10.873c-1.2,2.365-2.572,5.19-3.841,8.042-.51,1.147-1,2.3-1.465,3.436a95.51,95.51,0,0,1-5.4,11.5Zm6.53-11.493c.416-1.013.857-2.038,1.311-3.058.661-1.627,2.168-1.694,3.643-2.238a7.666,7.666,0,0,0,2.7-1.509.527.527,0,0,0-.743-.747,6.86,6.86,0,0,1-2.315,1.264c-.724.262-1.445.424-2.139.716C22,23.581,23.554,18.777,27.8,16.283a.526.526,0,0,0,.243-.7c-.561-1.2-3.857,1.9-5.551,4.773-.049.062-.188.235-.4.506a15.243,15.243,0,0,0-.5-7.057c.8-.9,4.113-4.27,7.82-2.632,2.575,1.138,3.143,3.669,3.148,5.663a14.452,14.452,0,0,0-3.583,3.952C24.255,21.923,23.29,25.87,24,31.451a17.806,17.806,0,0,1,.141,3.19c-3.564,2.017-4.116.459-9.16,3.53Zm9.56.1a15.109,15.109,0,0,0,.5-6.954c-.986-7.574,1.944-8.911,3.906-9.439a17.831,17.831,0,0,1-3.267,15.535l-1.144.857ZM30.071,30.8a6.765,6.765,0,0,1,2.108-2.581,5.47,5.47,0,0,0,2.159-2.887.527.527,0,0,0-1.019-.269,4.476,4.476,0,0,1-1.728,2.28,6.248,6.248,0,0,0-1.1.961c.06-.61.087-1.184.091-1.711a18.493,18.493,0,0,0-.691-5.283c.6-.961,3.469-5.178,6.992-4.73a8.1,8.1,0,0,0-.331,5.137c.764,2.957.217,7.2-2,8.917-1.857,1.433-4.1,3.159-6.281,4.817a18.158,18.158,0,0,0,1.8-4.651Zm-5.99,10.605A84.722,84.722,0,0,0,11.264,55.289c-.428-.361-1.472-.845-.983-1.534C12.018,51.613,18.1,44.322,23.433,40.4c3.722-2.738,9.174-6.932,13.17-10.021-2.829,3.362-8.286,7.436-12.523,11.025Zm5.145-.114a5.547,5.547,0,0,1-3.838.4c1.166-.97,2.244-1.853,3.291-2.711,1.1-.9,2.11-1.728,3.054-2.521A9.877,9.877,0,0,1,35.424,34.7a1.96,1.96,0,0,1,1.772.8,6.53,6.53,0,0,0,2.866,2.229.527.527,0,1,0,.4-.975,6.752,6.752,0,0,1-2.83-2.34A14.362,14.362,0,0,1,44.061,35.9c-1.683,4.485-6.652,6.276-12.341,4.969a3.45,3.45,0,0,0-2.5.425Zm2.035.569c7.864,1.575,12.076-1.193,13.884-5.869,3.625-2.058,5.781-4.441,6.424-7.087a6.124,6.124,0,0,1,3.974,2.432c2.868,3.675-1.212,9.425-6.855,7.749a13.689,13.689,0,0,0,2.451-4.007.527.527,0,1,0-1.007-.311c-1.389,3.173-4.448,7.265-12.55,11.546A3.926,3.926,0,0,0,38.159,44a.527.527,0,0,0-1.045.14c.008,3.213-4.063,4.37-7.478,5.629a11.793,11.793,0,0,0,1.625-7.9Zm-2.115,10.5c-4.711,1.664-11.439,5.573-12.019,6.249l-.676-.676A.49.49,0,0,1,16.5,57.2a35.954,35.954,0,0,1,8.667-4.814c.714-.292,1.469-.559,2.245-.792a56.019,56.019,0,0,0,15.215-7.049c-3.918,3.927-8.428,5.762-13.481,7.819Zm16.722-2.2a5.933,5.933,0,0,1-4.678.821,38.864,38.864,0,0,0-5.345-.4,31.356,31.356,0,0,0,4.56-2.743,5.65,5.65,0,0,1,6.876-.018,4.079,4.079,0,0,1-1.413,2.341Zm2.083-3.159a7.254,7.254,0,0,0-4.938-1.361,27.151,27.151,0,0,0,3.5-4.15c.663-.629,1.266-1.65,2.3-1.318a6.893,6.893,0,0,0,6.632-1.6C55.225,42.607,52.434,45.622,47.951,47.009Z" transform="translate(-6.306 -9.677)" fill="#2b2b2b"/>
    </g>
  </g>
</svg>
