<svg xmlns="http://www.w3.org/2000/svg" width="60.514" height="52.811" viewBox="0 0 60.514 52.811">
  <g id="sementes" transform="translate(0.001 0)">
    <g id="XMLID_91_" transform="translate(0.48 0.461)">
      <g id="Grupo_30270" data-name="Grupo 30270" transform="translate(0 0)">
        <g id="Grupo_30242" data-name="Grupo 30242" transform="translate(11.993 14.885)">
          <path id="Caminho_128095" data-name="Caminho 128095" d="M38.6,32.069c-4.231-.941-9.288,4.082-11.387,8.971-.764,1.782-1.7,3.962-.989,6.474a8.8,8.8,0,0,0,5.446,5.576v0a7.578,7.578,0,0,0,3.957.4,6.393,6.393,0,0,0,4.457-2.987,5.025,5.025,0,0,0,.495-3.487A4.906,4.906,0,0,0,39.1,44.527c.893-1.758,1.686-2.978,1.979-3.487,1.081-1.868,1.782-4.956.495-6.978A5.016,5.016,0,0,0,38.6,32.069Z" transform="translate(-25.972 -31.954)" fill="#ad6a6a"/>
        </g>
        <g id="Grupo_30243" data-name="Grupo 30243" transform="translate(48.38 36.955)">
          <path id="Caminho_128096" data-name="Caminho 128096" d="M102.237,78.165c-.735.576-.648,1.921.187,3.006s2.113,1.5,2.848.932.653-1.921-.187-3.006S102.977,77.593,102.237,78.165Z" transform="translate(-101.737 -77.908)" fill="#ad6a6a"/>
        </g>
        <g id="Grupo_30244" data-name="Grupo 30244" transform="translate(8.729 17.805)">
          <path id="Caminho_128097" data-name="Caminho 128097" d="M21.338,40.305c.749-.528,1.071-1.374.716-1.892s-1.263-.5-2.017.024-1.071,1.378-.716,1.892S20.584,40.838,21.338,40.305Z" transform="translate(-19.177 -38.034)" fill="#ad6a6a"/>
        </g>
        <g id="Grupo_30245" data-name="Grupo 30245" transform="translate(17.442 4.789)">
          <path id="Caminho_128098" data-name="Caminho 128098" d="M38.312,12.926a1,1,0,1,0-.994-1A1,1,0,0,0,38.312,12.926Z" transform="translate(-37.318 -10.933)" fill="#ad6a6a"/>
        </g>
        <g id="Grupo_30246" data-name="Grupo 30246" transform="translate(14.474 6.782)">
          <path id="Caminho_128099" data-name="Caminho 128099" d="M32.127,17.076a1,1,0,1,0-.989-1A.993.993,0,0,0,32.127,17.076Z" transform="translate(-31.138 -15.083)" fill="#ad6a6a"/>
        </g>
        <g id="Grupo_30247" data-name="Grupo 30247" transform="translate(20.414 6.782)">
          <path id="Caminho_128100" data-name="Caminho 128100" d="M44.5,17.076a1,1,0,1,0-.989-1A.993.993,0,0,0,44.5,17.076Z" transform="translate(-43.508 -15.083)" fill="#ad6a6a"/>
        </g>
        <g id="Grupo_30248" data-name="Grupo 30248" transform="translate(17.442 9.769)">
          <path id="Caminho_128101" data-name="Caminho 128101" d="M38.312,23.3a1,1,0,1,0-.994-.994A1,1,0,0,0,38.312,23.3Z" transform="translate(-37.318 -21.303)" fill="#ad6a6a"/>
        </g>
        <g id="Grupo_30249" data-name="Grupo 30249" transform="translate(21.404 11.263)">
          <path id="Caminho_128102" data-name="Caminho 128102" d="M45.568,25.412a.989.989,0,1,0,.989-1A.989.989,0,0,0,45.568,25.412Z" transform="translate(-45.568 -24.413)" fill="#ad6a6a"/>
        </g>
        <g id="Grupo_30250" data-name="Grupo 30250" transform="translate(17.197 47.883)">
          <path id="Caminho_128103" data-name="Caminho 128103" d="M37.8,100.663a1,1,0,1,0,.989,1A.993.993,0,0,0,37.8,100.663Z" transform="translate(-36.808 -100.663)" fill="#ad6a6a"/>
        </g>
        <g id="Grupo_30251" data-name="Grupo 30251" transform="translate(28.579 38.916)">
          <path id="Caminho_128104" data-name="Caminho 128104" d="M61.5,81.993a1,1,0,1,0,.989.994A1,1,0,0,0,61.5,81.993Z" transform="translate(-60.508 -81.993)" fill="#ad6a6a"/>
        </g>
        <g id="Grupo_30252" data-name="Grupo 30252" transform="translate(41.45 49.876)">
          <path id="Caminho_128105" data-name="Caminho 128105" d="M88.3,104.813a1,1,0,1,0,.989,1A.993.993,0,0,0,88.3,104.813Z" transform="translate(-87.308 -104.813)" fill="#ad6a6a"/>
        </g>
        <g id="Grupo_30253" data-name="Grupo 30253" transform="translate(45.907 42.903)">
          <path id="Caminho_128106" data-name="Caminho 128106" d="M97.577,90.293a1,1,0,1,0,.989.994A.992.992,0,0,0,97.577,90.293Z" transform="translate(-96.588 -90.293)" fill="#ad6a6a"/>
        </g>
        <g id="Grupo_30254" data-name="Grupo 30254" transform="translate(41.45 43.897)">
          <path id="Caminho_128107" data-name="Caminho 128107" d="M88.3,92.363a1,1,0,1,0,.989,1A.993.993,0,0,0,88.3,92.363Z" transform="translate(-87.308 -92.363)" fill="#ad6a6a"/>
        </g>
        <g id="Grupo_30255" data-name="Grupo 30255" transform="translate(39.471 46.889)">
          <path id="Caminho_128108" data-name="Caminho 128108" d="M84.177,98.593a1,1,0,1,0,.989.994A.992.992,0,0,0,84.177,98.593Z" transform="translate(-83.188 -98.593)" fill="#ad6a6a"/>
        </g>
        <g id="Grupo_30256" data-name="Grupo 30256" transform="translate(21.649 39.416)">
          <path id="Caminho_128109" data-name="Caminho 128109" d="M47.567,83.033a1.494,1.494,0,1,0,1.484,1.494A1.491,1.491,0,0,0,47.567,83.033Z" transform="translate(-46.078 -83.033)" fill="#ad6a6a"/>
        </g>
        <g id="Grupo_30257" data-name="Grupo 30257" transform="translate(30.164 27.309)">
          <path id="Caminho_128110" data-name="Caminho 128110" d="M66.671,62.468c.85-.384,1.081-1.715.519-2.968s-1.71-1.955-2.555-1.57-1.081,1.715-.519,2.968S65.821,62.852,66.671,62.468Z" transform="translate(-63.809 -57.824)" fill="#ad6a6a"/>
        </g>
        <g id="Grupo_30258" data-name="Grupo 30258" transform="translate(3.652 19.951)">
          <path id="Caminho_128111" data-name="Caminho 128111" d="M9.533,47.244c.869.331,1.964-.447,2.449-1.734s.168-2.6-.7-2.93-1.969.447-2.449,1.734S8.664,46.912,9.533,47.244Z" transform="translate(-8.604 -42.504)" fill="#ad6a6a"/>
        </g>
        <g id="Grupo_30259" data-name="Grupo 30259" transform="translate(26.357 8.026)">
          <path id="Caminho_128112" data-name="Caminho 128112" d="M59.646,21.664c.687-.634.49-1.969-.442-2.978S56.971,17.371,56.289,18s-.485,1.969.442,2.982S58.964,22.3,59.646,21.664Z" transform="translate(-55.883 -17.673)" fill="#ad6a6a"/>
        </g>
        <g id="Grupo_30260" data-name="Grupo 30260" transform="translate(26.763 1.622)">
          <path id="Caminho_128113" data-name="Caminho 128113" d="M59.633,7.736C60.94,7.343,61.785,6.3,61.521,5.4s-1.546-1.3-2.858-.908-2.152,1.441-1.887,2.339,1.546,1.3,2.858.908Z" transform="translate(-56.727 -4.339)" fill="#ad6a6a"/>
        </g>
        <g id="Grupo_30261" data-name="Grupo 30261" transform="translate(9.598 9.249)">
          <path id="Caminho_128114" data-name="Caminho 128114" d="M22.029,25.038c.888.274,1.935-.576,2.334-1.892s0-2.6-.888-2.877-1.935.576-2.334,1.892S21.141,24.764,22.029,25.038Z" transform="translate(-20.986 -20.219)" fill="#ad6a6a"/>
        </g>
        <g id="Grupo_30262" data-name="Grupo 30262" transform="translate(54.817 17.969)">
          <path id="Caminho_128115" data-name="Caminho 128115" d="M118.184,38.668c-1.253-.547-2.574-.3-2.944.557s.341,2,1.594,2.55,2.569.3,2.939-.557S119.433,39.22,118.184,38.668Z" transform="translate(-115.141 -38.376)" fill="#ad6a6a"/>
        </g>
        <g id="Grupo_30263" data-name="Grupo 30263" transform="translate(44.423 46.889)">
          <path id="Caminho_128116" data-name="Caminho 128116" d="M94.487,98.593a1,1,0,1,0,.989.994A.992.992,0,0,0,94.487,98.593Z" transform="translate(-93.498 -98.593)" fill="#ad6a6a"/>
        </g>
        <g id="Grupo_30264" data-name="Grupo 30264" transform="translate(26.106 49.377)">
          <path id="Caminho_128117" data-name="Caminho 128117" d="M56.347,103.773a1,1,0,1,0,.989,1A.993.993,0,0,0,56.347,103.773Z" transform="translate(-55.358 -103.773)" fill="#ad6a6a"/>
        </g>
        <g id="Grupo_30265" data-name="Grupo 30265" transform="translate(31.552 41.904)">
          <ellipse id="Elipse_912" data-name="Elipse 912" cx="1.979" cy="1.993" rx="1.979" ry="1.993" fill="#ad6a6a"/>
        </g>
        <g id="Grupo_30266" data-name="Grupo 30266" transform="translate(41.45 37.918)">
          <path id="Caminho_128118" data-name="Caminho 128118" d="M88.792,79.913a1.5,1.5,0,1,0,1.489,1.5A1.494,1.494,0,0,0,88.792,79.913Z" transform="translate(-87.308 -79.913)" fill="#ad6a6a"/>
        </g>
        <g id="Grupo_30267" data-name="Grupo 30267" transform="translate(37.07)">
          <path id="Caminho_128119" data-name="Caminho 128119" d="M81.68,12.863a7.658,7.658,0,0,0,3.948,1.446c.8.053,3.967.13,5.59-2.075,1.883-2.55.36-6.354-1.1-8.275a8.471,8.471,0,0,0-1.94-1.839c-.024-.014-.048-.029-.067-.043-2.944-2.056-6.935-.985-8.818.912a3.849,3.849,0,0,0-.927,1.537c-.62,1.926.495,3.881,1.609,5.84A19.144,19.144,0,0,0,81.68,12.863Z" transform="translate(-78.188 -0.961)" fill="#ad6a6a"/>
        </g>
        <g id="Grupo_30268" data-name="Grupo 30268" transform="translate(0 36.293)">
          <path id="Caminho_128120" data-name="Caminho 128120" d="M11.268,77.161a18.847,18.847,0,0,0-2.968-.5c-2.238-.187-4.471-.379-5.941,1a3.84,3.84,0,0,0-.989,1.494c-.922,2.536-.178,6.671,2.968,8.467a8.275,8.275,0,0,0,2.473,1c2.353.519,6.416.3,7.919-2.493,1.3-2.411-.106-5.273-.495-5.979A7.735,7.735,0,0,0,11.268,77.161Z" transform="translate(-1.001 -76.53)" fill="#ad6a6a"/>
        </g>
        <g id="Grupo_30269" data-name="Grupo 30269" transform="translate(35.486 17.256)">
          <path id="Caminho_128121" data-name="Caminho 128121" d="M84.322,53.567a6.229,6.229,0,0,0,5.936-1.988c2.512-3,1-8.136-1.484-10.964-3.021-3.434-8.846-5-11.877-2.488a5.911,5.911,0,0,0-1.983,4.98,6.38,6.38,0,0,0,2.733,4.572,8.339,8.339,0,0,1,2.43,2.713A6.408,6.408,0,0,0,84.322,53.567Z" transform="translate(-74.891 -36.892)" fill="#ad6a6a"/>
        </g>
      </g>
      <g id="Grupo_30294" data-name="Grupo 30294" transform="translate(3.336)">
        <g id="Grupo_30271" data-name="Grupo 30271" transform="translate(36.315 24.811)">
          <path id="Caminho_128122" data-name="Caminho 128122" d="M87.6,56.191v0c-.053.062-.1.12-.154.178-.677.682-2.007.447-2.973-.528s-1.205-2.315-.528-2.992a1.194,1.194,0,0,1,.312-.231A7.808,7.808,0,0,1,87.6,56.191Z" transform="translate(-83.563 -52.623)" fill="#604533"/>
        </g>
        <g id="Grupo_30272" data-name="Grupo 30272" transform="translate(8.656 14.885)">
          <path id="Caminho_128123" data-name="Caminho 128123" d="M31.671,53.09a8.8,8.8,0,0,1-5.446-5.576c-.711-2.512.226-4.692.989-6.474,2.1-4.889,7.156-9.913,11.387-8.971a5.016,5.016,0,0,1,2.968,1.993c1.287,2.022.586,5.11-.495,6.978-.293.509-1.085,1.729-1.979,3.487a4.906,4.906,0,0,1,1.484,2.493,5.024,5.024,0,0,1-.495,3.487,6.393,6.393,0,0,1-4.457,2.987,7.578,7.578,0,0,1-3.957-.4Z" transform="translate(-25.972 -31.954)" fill="#eedc9a"/>
        </g>
        <g id="Grupo_30273" data-name="Grupo 30273" transform="translate(14.105 9.769)">
          <path id="Caminho_128124" data-name="Caminho 128124" d="M38.312,21.3a1,1,0,1,1-.994,1A1,1,0,0,1,38.312,21.3Z" transform="translate(-37.318 -21.303)" fill="#89a25b"/>
        </g>
        <g id="Grupo_30274" data-name="Grupo 30274" transform="translate(18.067 11.263)">
          <path id="Caminho_128125" data-name="Caminho 128125" d="M46.557,24.413a1,1,0,1,1-.989,1A.993.993,0,0,1,46.557,24.413Z" transform="translate(-45.568 -24.413)" fill="#89a25b"/>
        </g>
        <g id="Grupo_30275" data-name="Grupo 30275" transform="translate(13.86 47.883)">
          <path id="Caminho_128126" data-name="Caminho 128126" d="M37.8,100.663a1,1,0,1,1-.989,1A.993.993,0,0,1,37.8,100.663Z" transform="translate(-36.808 -100.663)" fill="#89a25b"/>
        </g>
        <g id="Grupo_30276" data-name="Grupo 30276" transform="translate(25.242 38.916)">
          <path id="Caminho_128127" data-name="Caminho 128127" d="M61.5,81.993a1,1,0,1,1-.994.994A1,1,0,0,1,61.5,81.993Z" transform="translate(-60.508 -81.993)" fill="#89a25b"/>
        </g>
        <g id="Grupo_30277" data-name="Grupo 30277" transform="translate(38.113 49.876)">
          <path id="Caminho_128128" data-name="Caminho 128128" d="M88.3,104.813a1,1,0,1,1-.989,1A.993.993,0,0,1,88.3,104.813Z" transform="translate(-87.308 -104.813)" fill="#89a25b"/>
        </g>
        <g id="Grupo_30278" data-name="Grupo 30278" transform="translate(42.57 42.903)">
          <path id="Caminho_128129" data-name="Caminho 128129" d="M97.577,90.293a1,1,0,1,1-.989.994A.992.992,0,0,1,97.577,90.293Z" transform="translate(-96.588 -90.293)" fill="#89a25b"/>
        </g>
        <g id="Grupo_30279" data-name="Grupo 30279" transform="translate(38.113 43.897)">
          <path id="Caminho_128130" data-name="Caminho 128130" d="M88.3,92.363a1,1,0,1,1-.989,1A.993.993,0,0,1,88.3,92.363Z" transform="translate(-87.308 -92.363)" fill="#89a25b"/>
        </g>
        <g id="Grupo_30280" data-name="Grupo 30280" transform="translate(36.135 46.889)">
          <path id="Caminho_128131" data-name="Caminho 128131" d="M84.177,98.593a1,1,0,1,1-.989.994A.992.992,0,0,1,84.177,98.593Z" transform="translate(-83.188 -98.593)" fill="#89a25b"/>
        </g>
        <g id="Grupo_30281" data-name="Grupo 30281" transform="translate(18.312 39.416)">
          <path id="Caminho_128132" data-name="Caminho 128132" d="M47.567,83.033a1.494,1.494,0,1,1-1.489,1.494A1.49,1.49,0,0,1,47.567,83.033Z" transform="translate(-46.078 -83.033)" fill="#89a25b"/>
        </g>
        <g id="Grupo_30282" data-name="Grupo 30282" transform="translate(26.828 27.309)">
          <path id="Caminho_128133" data-name="Caminho 128133" d="M67.189,59.5c.562,1.253.331,2.584-.519,2.968s-1.993-.317-2.555-1.57-.331-2.584.519-2.968S66.627,58.246,67.189,59.5Z" transform="translate(-63.809 -57.824)" fill="#89a25b"/>
        </g>
        <g id="Grupo_30283" data-name="Grupo 30283" transform="translate(0.315 19.951)">
          <path id="Caminho_128134" data-name="Caminho 128134" d="M11.281,42.58c.869.331,1.186,1.642.7,2.93s-1.58,2.065-2.449,1.734-1.186-1.642-.7-2.93S10.412,42.249,11.281,42.58Z" transform="translate(-8.604 -42.504)" fill="#89a25b"/>
        </g>
        <g id="Grupo_30284" data-name="Grupo 30284" transform="translate(23.021 8.026)">
          <path id="Caminho_128135" data-name="Caminho 128135" d="M59.2,18.687c.932,1.009,1.129,2.344.442,2.978s-1.988.331-2.915-.677S55.607,18.643,56.289,18s1.988-.331,2.915.682Z" transform="translate(-55.883 -17.673)" fill="#89a25b"/>
        </g>
        <g id="Grupo_30285" data-name="Grupo 30285" transform="translate(23.427 1.622)">
          <path id="Caminho_128136" data-name="Caminho 128136" d="M61.521,5.4c.264.9-.581,1.945-1.887,2.339s-2.589-.01-2.858-.908.581-1.945,1.887-2.339,2.589.01,2.858.908Z" transform="translate(-56.727 -4.339)" fill="#89a25b"/>
        </g>
        <g id="Grupo_30286" data-name="Grupo 30286" transform="translate(6.262 9.249)">
          <path id="Caminho_128137" data-name="Caminho 128137" d="M23.475,20.269c.888.274,1.287,1.561.888,2.877s-1.446,2.166-2.334,1.892-1.287-1.561-.888-2.877S22.581,20,23.475,20.269Z" transform="translate(-20.986 -20.219)" fill="#ffc05a"/>
        </g>
        <g id="Grupo_30287" data-name="Grupo 30287" transform="translate(51.48 17.969)">
          <path id="Caminho_128138" data-name="Caminho 128138" d="M118.184,38.668c1.249.552,1.964,1.7,1.59,2.55s-1.686,1.109-2.939.557-1.969-1.691-1.594-2.55S116.931,38.12,118.184,38.668Z" transform="translate(-115.141 -38.376)" fill="#ffc05a"/>
        </g>
        <g id="Grupo_30288" data-name="Grupo 30288" transform="translate(41.086 46.889)">
          <path id="Caminho_128139" data-name="Caminho 128139" d="M94.487,98.593a1,1,0,1,1-.989.994A.992.992,0,0,1,94.487,98.593Z" transform="translate(-93.498 -98.593)" fill="#ffc05a"/>
        </g>
        <g id="Grupo_30289" data-name="Grupo 30289" transform="translate(28.215 41.904)">
          <ellipse id="Elipse_913" data-name="Elipse 913" cx="1.979" cy="1.993" rx="1.979" ry="1.993" fill="#ffc05a"/>
        </g>
        <g id="Grupo_30290" data-name="Grupo 30290" transform="translate(38.113 37.918)">
          <path id="Caminho_128140" data-name="Caminho 128140" d="M88.792,79.913a1.5,1.5,0,1,1-1.484,1.5A1.5,1.5,0,0,1,88.792,79.913Z" transform="translate(-87.308 -79.913)" fill="#ffc05a"/>
        </g>
        <g id="Grupo_30291" data-name="Grupo 30291" transform="translate(37.225 1.158)">
          <path id="Caminho_128141" data-name="Caminho 128141" d="M94.16,11.682c1.5-2.118.581-6.306-2.2-8.309A8.471,8.471,0,0,1,93.9,5.212c1.46,1.921,2.982,5.725,1.1,8.275-1.623,2.2-4.793,2.128-5.59,2.075a7.658,7.658,0,0,1-3.948-1.446,14.326,14.326,0,0,0,4.217-.331C91.562,13.353,93.257,12.959,94.16,11.682Z" transform="translate(-85.458 -3.373)" fill="#f9b132"/>
        </g>
        <g id="Grupo_30292" data-name="Grupo 30292" transform="translate(33.734)">
          <path id="Caminho_128142" data-name="Caminho 128142" d="M85.9,12.531a14.326,14.326,0,0,1-4.217.331,19.144,19.144,0,0,1-1.7-2.5c-1.114-1.959-2.228-3.914-1.609-5.84a3.849,3.849,0,0,1,.927-1.537c1.883-1.9,5.874-2.968,8.818-.912.019.014.043.029.067.043,2.786,2,3.708,6.191,2.2,8.309-.9,1.277-2.6,1.671-4.486,2.1Z" transform="translate(-78.188 -0.961)" fill="#ffc05a"/>
        </g>
        <g id="Grupo_30293" data-name="Grupo 30293" transform="translate(0 36.923)">
          <path id="Caminho_128143" data-name="Caminho 128143" d="M7.948,88.3c2.978,1.7,7.141.768,8.414-1.494.768-1.364.4-3.078,0-4.98a14.44,14.44,0,0,0-1.484-3.986,7.735,7.735,0,0,1,2.968,2.987c.389.706,1.8,3.568.495,5.979-1.5,2.79-5.566,3.011-7.919,2.493a8.274,8.274,0,0,1-2.473-1Z" transform="translate(-7.948 -77.843)" fill="#a35757"/>
        </g>
      </g>
      <g id="Grupo_30298" data-name="Grupo 30298" transform="translate(11.993 20.614)">
        <g id="XMLID_92_" transform="translate(0)">
          <g id="Grupo_30297" data-name="Grupo 30297">
            <g id="Grupo_30295" data-name="Grupo 30295" transform="translate(0 4.841)">
              <path id="Caminho_128144" data-name="Caminho 128144" d="M40.58,58.458A4.906,4.906,0,0,0,39.1,55.966a3.653,3.653,0,0,0-.495,1.993,3.326,3.326,0,0,0,.495,1.494s1.321,2.329-1.983,2.81a10.632,10.632,0,0,1-5.907-.552c-4.654-2.036-4.591-7.747-4.591-7.747a7.828,7.828,0,0,0-.389,4.99,8.8,8.8,0,0,0,5.446,5.576v0a7.578,7.578,0,0,0,3.957.4,6.393,6.393,0,0,0,4.457-2.987,5.025,5.025,0,0,0,.495-3.487Z" transform="translate(-25.972 -53.963)" fill="#dbc98f"/>
            </g>
            <g id="Grupo_30296" data-name="Grupo 30296" transform="translate(30.941)">
              <path id="Caminho_128145" data-name="Caminho 128145" d="M98.317,55.212A6.229,6.229,0,0,1,92.381,57.2a6.061,6.061,0,0,1-1.983-.8c10.455.279,6.258-12.035,6.09-12.52.125.12.235.24.346.365C99.321,47.077,100.829,52.216,98.317,55.212Z" transform="translate(-90.398 -43.883)" fill="#a35757"/>
            </g>
          </g>
        </g>
      </g>
    </g>
    <g id="Grupo_30299" data-name="Grupo 30299" transform="translate(-0.001 0)">
      <path id="Caminho_128146" data-name="Caminho 128146" d="M39.99,50.209a5.43,5.43,0,0,0,.538-3.822,5.321,5.321,0,0,0-1.362-2.477c.624-1.2,1.186-2.123,1.533-2.7.112-.186.205-.338.272-.454,1.2-2.078,1.868-5.3.485-7.473a5.483,5.483,0,0,0-3.271-2.2c-4.479-1-9.685,4.019-11.931,9.247-.788,1.835-1.769,4.118-1.01,6.8a9.317,9.317,0,0,0,5.623,5.833.473.473,0,0,0,.208.082,8.445,8.445,0,0,0,2.847.519,7.023,7.023,0,0,0,1.275-.114,6.9,6.9,0,0,0,4.793-3.237Zm-8.428,2a21.218,21.218,0,0,1,.244-10.072.48.48,0,1,0-.925-.255,22.222,22.222,0,0,0-.395,9.879,8.192,8.192,0,0,1-4.318-4.9c-.665-2.351.2-4.372.97-6.156,1.92-4.469,6.133-8.737,9.8-8.789a21.653,21.653,0,0,0-4.232,5.446.48.48,0,0,0,.843.46A20.638,20.638,0,0,1,38.2,32.08a4.377,4.377,0,0,1,2.44,1.722c1.116,1.751.59,4.583-.506,6.476-.065.112-.154.258-.262.438-.383.632-1.023,1.689-1.725,3.063l-.01.019a4.142,4.142,0,0,0-.541,2.236,3.773,3.773,0,0,0,.565,1.711.48.48,0,0,0,.819-.5,2.834,2.834,0,0,1-.426-1.278,2.706,2.706,0,0,1,.161-1.109,4.366,4.366,0,0,1,.873,1.752,4.478,4.478,0,0,1-.452,3.153A5.935,5.935,0,0,1,35.023,52.5a7,7,0,0,1-3.462-.288Z" transform="translate(-12.977 -16.088)" fill="#3a322b"/>
      <path id="Caminho_128147" data-name="Caminho 128147" d="M10.985,76.224c-.014-.008-.031-.008-.045-.014a.452.452,0,0,0-.074-.034h0a19.191,19.191,0,0,0-3.047-.511c-2.3-.2-4.68-.4-6.308,1.124A4.338,4.338,0,0,0,.4,78.471,7.85,7.85,0,0,0,3.483,87.46c.007,0,.011.012.018.017l.06.034.018.012.044.023A8.732,8.732,0,0,0,6.188,88.57a10.489,10.489,0,0,0,2.226.231c2.329,0,5.015-.727,6.22-2.964,1.39-2.581-.029-5.579-.5-6.436a8.2,8.2,0,0,0-3.153-3.178ZM1.3,78.8a3.37,3.37,0,0,1,.866-1.308,4.623,4.623,0,0,1,3.3-1c.723,0,1.49.065,2.272.131l.034,0c-.062.025-.124.046-.187.074a6.661,6.661,0,0,0-2.668,2.148.48.48,0,1,0,.775.568A5.693,5.693,0,0,1,7.97,77.578a5.635,5.635,0,0,1,2.342-.477,5.66,5.66,0,0,1-.5,2.825,5.564,5.564,0,0,1-1.368,1.835.48.48,0,0,0,.638.718,6.517,6.517,0,0,0,2.1-3.727,13.993,13.993,0,0,1,.577,1.973c.391,1.845.73,3.439.05,4.647a4.408,4.408,0,0,1-2.723,1.876A6.74,6.74,0,0,1,4.074,86.7l-.033-.018C1.016,84.941.5,80.989,1.3,78.8Zm12.491,6.583a4.564,4.564,0,0,1-2.838,2.125,4.551,4.551,0,0,0,1.7-1.661c.856-1.524.465-3.366.051-5.317a14.907,14.907,0,0,0-.726-2.379,6.964,6.964,0,0,1,1.319,1.714C13.7,80.611,14.95,83.226,13.789,85.381Z" transform="translate(0.001 -39.257)" fill="#3a322b"/>
      <path id="Caminho_128148" data-name="Caminho 128148" d="M80.785,12.665c.008.009.019.013.027.022a.5.5,0,0,0,.066.065h0a8.163,8.163,0,0,0,4.195,1.535c.146.01.344.018.583.018,1.346,0,3.952-.282,5.429-2.288,2.028-2.754.448-6.8-1.108-8.853a8.787,8.787,0,0,0-2.02-1.916c-.009-.007-.017-.014-.026-.021l-.018-.012c-.019-.013-.036-.027-.055-.04s-.015,0-.023-.009a7.743,7.743,0,0,0-9.406.984,4.35,4.35,0,0,0-1.043,1.727C76.7,6,77.891,8.088,79.038,10.1a19.438,19.438,0,0,0,1.747,2.562Zm9.527-1.215c-1.448,1.968-4.329,1.936-5.174,1.88a6.9,6.9,0,0,1-2.1-.478,14.7,14.7,0,0,0,2.442-.35c1.933-.448,3.759-.87,4.77-2.3a4.585,4.585,0,0,0,.779-2.177,4.591,4.591,0,0,1-.722,3.421ZM78.3,4.172a3.386,3.386,0,0,1,.811-1.343c1.635-1.65,5.41-2.851,8.25-.825l.025.019c2.67,1.927,3.379,5.8,2.084,7.628-.8,1.128-2.377,1.493-4.2,1.915a13.7,13.7,0,0,1-2.026.307,6.451,6.451,0,0,0,1.217-1.127,6.527,6.527,0,0,0,1.259-2.37.48.48,0,0,0-.922-.269,5.547,5.547,0,0,1-3.4,3.668,5.722,5.722,0,0,1,.13-5.2.48.48,0,1,0-.844-.458,6.7,6.7,0,0,0-.807,3.339c0,.065.008.127.012.191l-.012-.019C78.78,7.708,77.748,5.9,78.3,4.172Z" transform="translate(-40.116 0)" fill="#3a322b"/>
      <path id="Caminho_128149" data-name="Caminho 128149" d="M83.705,53.517a6.486,6.486,0,0,0,1.323.135,6.706,6.706,0,0,0,5.083-2.29c2.622-3.128,1.267-8.45-1.492-11.586-3.043-3.46-9.186-5.327-12.546-2.544a6.415,6.415,0,0,0-2.152,5.395,6.839,6.839,0,0,0,2.93,4.918,7.936,7.936,0,0,1,2.291,2.56A6.891,6.891,0,0,0,83.705,53.517Zm-6.3-6.754a5.883,5.883,0,0,1-2.53-4.221,5.008,5.008,0,0,1,5.337-5.673A10.733,10.733,0,0,1,87.9,40.41c2.507,2.851,3.7,7.684,1.477,10.335A5.766,5.766,0,0,1,83.9,52.576a5.937,5.937,0,0,1-3.924-2.943,8.9,8.9,0,0,0-2.571-2.871Z" transform="translate(-38.406 -18.651)" fill="#3a322b"/>
      <path id="Caminho_128150" data-name="Caminho 128150" d="M84.112,55.814a1.962,1.962,0,0,0,.978-.251,7.968,7.968,0,0,1,.443,1.818.48.48,0,0,0,.476.426.424.424,0,0,0,.055,0,.48.48,0,0,0,.423-.531,8.588,8.588,0,0,0-2.624-5.279,8.4,8.4,0,0,0-4.2-2.114.48.48,0,1,0-.176.945,7.644,7.644,0,0,1,1.618.5,2.78,2.78,0,0,0,.708,3.433A3.34,3.34,0,0,0,84.112,55.814Zm-2.147-4.048A7.173,7.173,0,0,1,84.7,54.675a1,1,0,0,1-.586.179,2.418,2.418,0,0,1-1.618-.776C81.73,53.309,81.489,52.253,81.965,51.766Z" transform="translate(-41.108 -25.92)" fill="#3a322b"/>
      <path id="Caminho_128151" data-name="Caminho 128151" d="M68.157,87.216a2.473,2.473,0,1,0,2.46,2.473A2.469,2.469,0,0,0,68.157,87.216Zm0,3.986a1.512,1.512,0,1,1,1.5-1.512A1.508,1.508,0,0,1,68.157,91.2Z" transform="translate(-34.145 -45.329)" fill="#3a322b"/>
      <path id="Caminho_128152" data-name="Caminho 128152" d="M55.829,102.777a1.477,1.477,0,1,0,1.471,1.476A1.475,1.475,0,0,0,55.829,102.777Zm0,1.993a.516.516,0,1,1,.51-.516A.514.514,0,0,1,55.829,104.77Z" transform="translate(-28.252 -53.417)" fill="#3a322b"/>
      <path id="Caminho_128153" data-name="Caminho 128153" d="M37.278,99.664a1.477,1.477,0,1,0,1.471,1.476A1.475,1.475,0,0,0,37.278,99.664Zm0,1.993a.516.516,0,1,1,.51-.516A.514.514,0,0,1,37.278,101.657Z" transform="translate(-18.61 -51.799)" fill="#3a322b"/>
      <path id="Caminho_128154" data-name="Caminho 128154" d="M60.983,80.991a1.477,1.477,0,1,0,1.471,1.477A1.476,1.476,0,0,0,60.983,80.991Zm0,1.993a.516.516,0,1,1,.51-.516A.513.513,0,0,1,60.983,82.984Z" transform="translate(-30.93 -42.094)" fill="#3a322b"/>
      <path id="Caminho_128155" data-name="Caminho 128155" d="M85.127,99.066a1.471,1.471,0,1,0-1.471,1.476A1.475,1.475,0,0,0,85.127,99.066Zm-1.471.516a.516.516,0,1,1,.51-.516A.513.513,0,0,1,83.657,99.582Z" transform="translate(-42.715 -50.721)" fill="#3a322b"/>
      <path id="Caminho_128156" data-name="Caminho 128156" d="M93.964,97.589a1.477,1.477,0,1,0,1.471,1.477A1.476,1.476,0,0,0,93.964,97.589Zm0,1.993a.516.516,0,1,1,.51-.516A.513.513,0,0,1,93.964,99.582Z" transform="translate(-48.072 -50.721)" fill="#3a322b"/>
      <path id="Caminho_128157" data-name="Caminho 128157" d="M97.056,89.29a1.477,1.477,0,1,0,1.471,1.477A1.476,1.476,0,0,0,97.056,89.29Zm0,1.993a.516.516,0,1,1,.51-.516A.513.513,0,0,1,97.056,91.283Z" transform="translate(-49.679 -46.407)" fill="#3a322b"/>
      <path id="Caminho_128158" data-name="Caminho 128158" d="M87.78,91.365a1.477,1.477,0,1,0,1.47,1.476A1.475,1.475,0,0,0,87.78,91.365Zm0,1.993a.516.516,0,1,1,.51-.516A.514.514,0,0,1,87.78,93.358Z" transform="translate(-44.858 -47.486)" fill="#3a322b"/>
      <path id="Caminho_128159" data-name="Caminho 128159" d="M87.78,103.814a1.477,1.477,0,1,0,1.47,1.476A1.475,1.475,0,0,0,87.78,103.814Zm0,1.993a.516.516,0,1,1,.51-.516A.514.514,0,0,1,87.78,105.807Z" transform="translate(-44.858 -53.956)" fill="#3a322b"/>
      <path id="Caminho_128160" data-name="Caminho 128160" d="M37.793,12.885a1.477,1.477,0,1,0-1.471-1.476A1.475,1.475,0,0,0,37.793,12.885Zm0-1.993a.516.516,0,1,1-.51.516A.514.514,0,0,1,37.793,10.893Z" transform="translate(-18.878 -5.162)" fill="#3a322b"/>
      <path id="Caminho_128161" data-name="Caminho 128161" d="M37.793,23.259a1.477,1.477,0,1,0-1.471-1.477A1.476,1.476,0,0,0,37.793,23.259Zm0-1.993a.516.516,0,1,1-.51.516A.513.513,0,0,1,37.793,21.267Z" transform="translate(-18.878 -10.554)" fill="#3a322b"/>
      <path id="Caminho_128162" data-name="Caminho 128162" d="M44.568,24.894a1.471,1.471,0,1,0,1.471-1.477A1.475,1.475,0,0,0,44.568,24.894Zm1.98,0a.51.51,0,1,1-.51-.516A.514.514,0,0,1,46.548,24.894Z" transform="translate(-23.163 -12.171)" fill="#3a322b"/>
      <path id="Caminho_128163" data-name="Caminho 128163" d="M43.977,17.035a1.477,1.477,0,1,0-1.471-1.476A1.475,1.475,0,0,0,43.977,17.035Zm0-1.993a.516.516,0,1,1-.51.516A.514.514,0,0,1,43.977,15.042Z" transform="translate(-22.092 -7.319)" fill="#3a322b"/>
      <path id="Caminho_128164" data-name="Caminho 128164" d="M31.609,17.035a1.477,1.477,0,1,0-1.47-1.476A1.475,1.475,0,0,0,31.609,17.035Zm0-1.993a.516.516,0,1,1-.51.516A.514.514,0,0,1,31.609,15.042Z" transform="translate(-15.664 -7.319)" fill="#3a322b"/>
      <path id="Caminho_128165" data-name="Caminho 128165" d="M47.048,82.029A1.975,1.975,0,1,0,49.013,84,1.972,1.972,0,0,0,47.048,82.029Zm0,2.989a1.014,1.014,0,1,1,1-1.014A1.011,1.011,0,0,1,47.048,85.018Z" transform="translate(-23.431 -42.634)" fill="#3a322b"/>
      <path id="Caminho_128166" data-name="Caminho 128166" d="M88.275,78.917a1.975,1.975,0,1,0,1.965,1.974A1.972,1.972,0,0,0,88.275,78.917Zm0,2.989a1.014,1.014,0,1,1,1-1.014A1.011,1.011,0,0,1,88.275,81.906Z" transform="translate(-44.858 -41.016)" fill="#3a322b"/>
      <path id="Caminho_128167" data-name="Caminho 128167" d="M102.786,76.925a1.8,1.8,0,0,0-1.365.342c-.957.748-.912,2.364.1,3.679A3.417,3.417,0,0,0,103.68,82.3a2.285,2.285,0,0,0,.277.018,1.739,1.739,0,0,0,1.088-.36c.957-.748.912-2.364-.1-3.679A3.413,3.413,0,0,0,102.786,76.925Zm1.669,4.279a.874.874,0,0,1-.653.146,2.447,2.447,0,0,1-1.519-.99c-.664-.862-.788-1.932-.27-2.336a.8.8,0,0,1,.5-.156,1.145,1.145,0,0,1,.152.01,2.447,2.447,0,0,1,1.519.99C104.848,79.729,104.972,80.8,104.455,81.2Z" transform="translate(-52.354 -39.971)" fill="#3a322b"/>
      <path id="Caminho_128168" data-name="Caminho 128168" d="M63.914,56.969c-1.1.5-1.437,2.084-.756,3.6A3.425,3.425,0,0,0,64.945,62.4a2.015,2.015,0,0,0,.71.136,1.667,1.667,0,0,0,.694-.149c1.1-.5,1.436-2.084.756-3.6a3.425,3.425,0,0,0-1.787-1.827,1.8,1.8,0,0,0-1.4.013Zm1.064.885a2.464,2.464,0,0,1,1.251,1.322c.446.994.318,2.063-.277,2.334a.879.879,0,0,1-.667-.011,2.46,2.46,0,0,1-1.251-1.321c-.446-.994-.319-2.063.277-2.334a.719.719,0,0,1,.3-.062A1.056,1.056,0,0,1,64.978,57.854Z" transform="translate(-32.642 -29.531)" fill="#3a322b"/>
      <path id="Caminho_128169" data-name="Caminho 128169" d="M8.838,47.173a1.656,1.656,0,0,0,.593.109,1.959,1.959,0,0,0,.809-.183,3.43,3.43,0,0,0,1.67-1.935c.585-1.557.155-3.116-.98-3.548a1.8,1.8,0,0,0-1.4.075,3.428,3.428,0,0,0-1.67,1.935C7.274,45.183,7.7,46.741,8.838,47.173Zm-.08-3.21a2.462,2.462,0,0,1,1.166-1.4,1.023,1.023,0,0,1,.414-.1.692.692,0,0,1,.25.045c.612.233.805,1.291.422,2.312a2.463,2.463,0,0,1-1.166,1.4.88.88,0,0,1-.665.052C8.568,46.042,8.374,44.983,8.758,43.963Z" transform="translate(-3.948 -21.572)" fill="#3a322b"/>
      <path id="Caminho_128170" data-name="Caminho 128170" d="M58.12,21.957l.091,0a1.779,1.779,0,0,0,1.24-.461c.89-.827.708-2.433-.414-3.656a3.413,3.413,0,0,0-2.266-1.166,1.784,1.784,0,0,0-1.331.458c-.89.827-.707,2.433.414,3.657A3.411,3.411,0,0,0,58.12,21.957Zm-2.027-4.119a.854.854,0,0,1,.589-.2h.05a2.443,2.443,0,0,1,1.6.855c.735.8.95,1.856.469,2.3a.867.867,0,0,1-.639.2,2.44,2.44,0,0,1-1.6-.854c-.735-.8-.95-1.857-.469-2.3Z" transform="translate(-28.52 -8.666)" fill="#3a322b"/>
      <path id="Caminho_128171" data-name="Caminho 128171" d="M117.854,37.711a3.4,3.4,0,0,0-2.536-.153,1.81,1.81,0,0,0-1.04.959c-.485,1.117.325,2.514,1.841,3.181a3.84,3.84,0,0,0,1.526.331,2.773,2.773,0,0,0,1.011-.179,1.812,1.812,0,0,0,1.04-.959c.484-1.118-.325-2.515-1.842-3.181Zm.961,2.8a.889.889,0,0,1-.51.447,2.435,2.435,0,0,1-1.8-.137c-.992-.436-1.609-1.315-1.347-1.92a.891.891,0,0,1,.51-.447,1.827,1.827,0,0,1,.663-.115,2.873,2.873,0,0,1,1.137.253c.992.436,1.609,1.315,1.347,1.92Z" transform="translate(-59.322 -19.427)" fill="#3a322b"/>
      <path id="Caminho_128172" data-name="Caminho 128172" d="M56.715,7.524a2.976,2.976,0,0,0,1.4.324,3.915,3.915,0,0,0,1.131-.17c1.587-.478,2.557-1.768,2.209-2.935a1.812,1.812,0,0,0-.918-1.078,3.4,3.4,0,0,0-2.535-.154C56.42,3.989,55.45,5.278,55.8,6.446A1.814,1.814,0,0,0,56.715,7.524ZM58.284,4.43a2.993,2.993,0,0,1,.86-.131,1.994,1.994,0,0,1,.941.212.894.894,0,0,1,.453.507c.188.631-.529,1.429-1.566,1.742a2.436,2.436,0,0,1-1.8-.081.9.9,0,0,1-.454-.506c-.187-.632.53-1.43,1.567-1.742Z" transform="translate(-28.963 -1.736)" fill="#3a322b"/>
      <path id="Caminho_128173" data-name="Caminho 128173" d="M21.363,24.976a1.649,1.649,0,0,0,.487.073,1.925,1.925,0,0,0,.905-.24A3.431,3.431,0,0,0,24.3,22.768c.483-1.593-.048-3.12-1.208-3.476a1.8,1.8,0,0,0-1.392.166A3.433,3.433,0,0,0,20.156,21.5C19.673,23.093,20.2,24.62,21.363,24.976Zm-.289-3.2a2.465,2.465,0,0,1,1.074-1.472.992.992,0,0,1,.456-.126.685.685,0,0,1,.2.03c.625.192.887,1.235.571,2.279A2.464,2.464,0,0,1,22.3,23.962a.873.873,0,0,1-.659.1c-.625-.192-.887-1.235-.571-2.279Z" transform="translate(-10.383 -9.989)" fill="#3a322b"/>
      <path id="Caminho_128174" data-name="Caminho 128174" d="M19.321,40.642a1.841,1.841,0,0,0,.327.029,2.56,2.56,0,0,0,1.445-.492,1.93,1.93,0,0,0,.834-2.56,1.365,1.365,0,0,0-.911-.559,2.407,2.407,0,0,0-1.773.464,1.929,1.929,0,0,0-.834,2.561A1.365,1.365,0,0,0,19.321,40.642Zm.474-2.333a1.636,1.636,0,0,1,.9-.317.9.9,0,0,1,.155.013.426.426,0,0,1,.29.161c.178.256-.04.835-.6,1.227a1.5,1.5,0,0,1-1.051.3.426.426,0,0,1-.291-.161C19.02,39.28,19.238,38.7,19.8,38.309Z" transform="translate(-9.446 -19.246)" fill="#3a322b"/>
    </g>
  </g>
</svg>
