<svg id="filled_outline" xmlns="http://www.w3.org/2000/svg" width="51.508" height="56.434" viewBox="0 0 51.508 56.434">
  <path id="Caminho_127910" data-name="Caminho 127910" d="M224,342.589a18.344,18.344,0,0,1,2.727-5.205L227.765,336l1.038,1.384a18.344,18.344,0,0,1,2.727,5.205l-3.765,6.824Z" transform="translate(-202.234 -298.392)" fill="#02a437"/>
  <path id="Caminho_127911" data-name="Caminho 127911" d="M204.235,374.037a7.531,7.531,0,1,1-9.688.231l.063.058a22.86,22.86,0,0,1,4.918,6.416l.46-.891a22.867,22.867,0,0,1,3.53-5.038Z" transform="translate(-173.998 -331.954)" fill="#f7ba61"/>
  <path id="Caminho_127912" data-name="Caminho 127912" d="M367.567,57.924l-2.642,5.594a10.723,10.723,0,0,0,.507,10.107,5.8,5.8,0,0,0,10.748-2.4,10.722,10.722,0,0,0-3.842-9.361Z" transform="translate(-325.671 -53.035)" fill="#c38325"/>
  <g id="Grupo_30209" data-name="Grupo 30209" transform="translate(40.251 10.378)">
    <path id="Caminho_127913" data-name="Caminho 127913" d="M402.074,114.726a.941.941,0,0,1-.918-.736l-1.847-8.268a.941.941,0,0,1,1.837-.41l1.848,8.268a.942.942,0,0,1-.92,1.147Z" transform="translate(-397.146 -104.575)" fill="#97661d"/>
    <path id="Caminho_127914" data-name="Caminho 127914" d="M382.859,138.788a.941.941,0,0,1-.918-.736l-.821-3.675a.941.941,0,1,1,1.837-.411l.821,3.675a.942.942,0,0,1-.92,1.147Z" transform="translate(-381.098 -129.859)" fill="#97661d"/>
    <path id="Caminho_127915" data-name="Caminho 127915" d="M429.706,128.324a.941.941,0,0,1-.918-.736l-.821-3.675a.941.941,0,1,1,1.837-.411l.821,3.675a.942.942,0,0,1-.92,1.147Z" transform="translate(-422.433 -120.625)" fill="#97661d"/>
  </g>
  <path id="Caminho_127916" data-name="Caminho 127916" d="M198.548,192.416a7.383,7.383,0,0,0-5.22,2.162l-.645.645a2.33,2.33,0,0,0,3.295,3.295l.658-.658a2.519,2.519,0,0,1,3.292-.234l1.23.922a2.33,2.33,0,0,0,3.261-.466,2.453,2.453,0,0,0-.43-3.386l-.828-.663A7.383,7.383,0,0,0,198.548,192.416Z" transform="translate(-174 -171.703)" fill="#ffc864"/>
  <path id="Caminho_127917" data-name="Caminho 127917" d="M204.906,196.617a2.441,2.441,0,0,1-.026.358,2.433,2.433,0,0,0-.894-1.568l-.828-.662a7.383,7.383,0,0,0-9.832.544l-.645.645a2.316,2.316,0,0,0-.655,1.292,2.319,2.319,0,0,1,.655-2l.645-.645a7.383,7.383,0,0,1,9.832-.544l.828.662A2.448,2.448,0,0,1,204.906,196.617Z" transform="translate(-173.997 -171.706)" fill="#fbb540"/>
  <path id="Caminho_127918" data-name="Caminho 127918" d="M360.087,256.418A7.383,7.383,0,0,0,363,251.576l.136-.9a2.33,2.33,0,0,0-4.608-.692l-.138.92a2.519,2.519,0,0,1-2.509,2.144l-1.537-.012A2.33,2.33,0,0,0,352,255.348h0a2.452,2.452,0,0,0,2.358,2.468l1.06.041A7.382,7.382,0,0,0,360.087,256.418Z" transform="translate(-315.172 -220.746)" fill="#fbb540"/>
  <path id="Caminho_127919" data-name="Caminho 127919" d="M213.178,33.77v-.036a6.589,6.589,0,0,0-1.93-4.659l-4.659-4.659-4.659,4.659A6.589,6.589,0,0,0,200,33.735v.036a6.589,6.589,0,1,0,13.178,0Z" transform="translate(-181.058 -23.47)" fill="#683b0d"/>
  <path id="Caminho_127920" data-name="Caminho 127920" d="M230.62,28.69l-1.062-2.478-1.792-1.792-1.792,1.792-1.062,2.478A11.2,11.2,0,0,0,224,33.127a11.321,11.321,0,0,0,2.358,6.9l.172.222a6.547,6.547,0,0,0,2.471,0l.173-.222a11.327,11.327,0,0,0,2.357-6.9A11.2,11.2,0,0,0,230.62,28.69Zm-2.854,10.072a9.426,9.426,0,0,1-1.883-5.635,9.318,9.318,0,0,1,.759-3.695l1.124-2.623,1.124,2.623a9.318,9.318,0,0,1,.759,3.695A9.426,9.426,0,0,1,227.765,38.762Z" transform="translate(-202.234 -23.474)" fill="#683b0d"/>
  <path id="Caminho_127921" data-name="Caminho 127921" d="M230.62,28.69l-1.062-2.478-1.792-1.792-1.792,1.792-1.062,2.478A11.2,11.2,0,0,0,224,33.127a11.321,11.321,0,0,0,2.358,6.9l.172.222a6.547,6.547,0,0,0,2.471,0l.173-.222a11.327,11.327,0,0,0,2.357-6.9A11.2,11.2,0,0,0,230.62,28.69Zm-2.854,10.072a9.426,9.426,0,0,1-1.883-5.635,9.318,9.318,0,0,1,.759-3.695l1.124-2.623,1.124,2.623a9.318,9.318,0,0,1,.759,3.695A9.426,9.426,0,0,1,227.765,38.762Z" transform="translate(-202.234 -23.474)" fill="#533222"/>
  <path id="Caminho_127922" data-name="Caminho 127922" d="M122.824,244.844l-1.472,1.962A6.762,6.762,0,0,0,120,250.863a2.824,2.824,0,0,0,5.648,0,6.762,6.762,0,0,0-1.352-4.057Z" transform="translate(-110.471 -217.962)" fill="#89b140"/>
  <path id="Caminho_127923" data-name="Caminho 127923" d="M142.8,250.86a2.824,2.824,0,0,1-2.824,2.824,2.738,2.738,0,0,1-.535-.052,2.824,2.824,0,0,0,2.287-2.772,6.76,6.76,0,0,0-1.353-4.057l-.935-1.247.537-.715,1.472,1.963A6.769,6.769,0,0,1,142.8,250.86Z" transform="translate(-127.623 -217.958)" fill="#aac16b"/>
  <path id="Caminho_127924" data-name="Caminho 127924" d="M52.782,210.168l-1.015-1.282a4.509,4.509,0,0,0-2.386-1.56,1.882,1.882,0,1,0-.958,3.641,4.508,4.508,0,0,0,2.845-.184Z" transform="translate(-46.077 -184.804)" fill="#02a437"/>
  <path id="Caminho_127925" data-name="Caminho 127925" d="M272,280.04l.49,1.56a4.508,4.508,0,0,0,1.671,2.31,1.883,1.883,0,1,0,2.2-3.058,4.507,4.507,0,0,0-2.723-.845Z" transform="translate(-244.586 -248.986)" fill="#683b0d"/>
  <path id="Caminho_127926" data-name="Caminho 127926" d="M90.909,114.908l-.347-2.428a6.761,6.761,0,0,0-1.912-3.825,2.824,2.824,0,0,0-3.994,3.994,6.761,6.761,0,0,0,3.825,1.912Z" transform="translate(-78.556 -97.067)" fill="#fbb540"/>
  <path id="Caminho_127927" data-name="Caminho 127927" d="M58.993,343.2a3.749,3.749,0,0,0-2.039-1.71l-.394-.7a2.353,2.353,0,1,0-4.1,2.3,2.353,2.353,0,0,0-4.1,2.3l.394.7a3.762,3.762,0,0,0,2.436,4.342l.394.7a2.353,2.353,0,1,0,4.118-2.279l-.013-.023a2.353,2.353,0,1,0,4.1-2.3l-.394-.7a3.75,3.75,0,0,0-.4-2.632Z" transform="translate(-46.992 -301.553)" fill="#ea9d2d"/>
  <path id="Caminho_127928" data-name="Caminho 127928" d="M106.973,415.746l.461.821" transform="translate(-98.977 -368.755)" fill="none"/>
  <path id="Caminho_127929" data-name="Caminho 127929" d="M379.563,362.669a6.152,6.152,0,0,1-.878-3.665q.018-.208.044-.415l.039-.312-.219.226q-.146.15-.3.3a6.06,6.06,0,0,1-3.38,1.607,4.706,4.706,0,1,0,4.689,2.264Z" transform="translate(-331.767 -318.048)" fill="#533222"/>
  <path id="Caminho_127930" data-name="Caminho 127930" d="M389.619,395.412a.941.941,0,0,1-.941-.926,5.175,5.175,0,0,1,1.991-4.155.941.941,0,0,1,1.155,1.487,3.284,3.284,0,0,0-1.263,2.636.941.941,0,0,1-.925.957h-.016Z" transform="translate(-347.535 -346.16)" fill="#683b0d"/>
  <path id="Caminho_127931" data-name="Caminho 127931" d="M192.463,347.767c.134,0,.269,0,.4-.009a8.472,8.472,0,0,0,4.9-15.075.941.941,0,0,0-1.28.1l-.242.261a19.29,19.29,0,0,0-1.983-3.279l-1.037-1.384a.941.941,0,0,0-1.506,0l-1.038,1.384a19.282,19.282,0,0,0-2.127,3.594c-.121-.115-.241-.232-.365-.345l-.063-.058a.941.941,0,0,0-1.258-.01,8.472,8.472,0,0,0,5.6,14.826Zm-.28-16.877.285-.38.285.38a17.407,17.407,0,0,1,2.116,3.693,23.816,23.816,0,0,0-2.431,3.568,23.661,23.661,0,0,0-2.468-3.331,17.387,17.387,0,0,1,2.214-3.93Zm-4.676,4.07a21.841,21.841,0,0,1,4.125,5.593.941.941,0,0,0,1.673,0l.46-.891a21.919,21.919,0,0,1,3.384-4.831l.083-.09a6.527,6.527,0,0,1,1.817,4.887,6.589,6.589,0,1,1-11.542-4.669Z" transform="translate(-166.937 -291.333)"/>
  <path id="Caminho_127932" data-name="Caminho 127932" d="M363.319,70.321a6.751,6.751,0,0,0,6.716-6.06,11.64,11.64,0,0,0-4.179-10.183l-4.771-3.938a.941.941,0,0,0-1.45.324l-2.642,5.594a11.641,11.641,0,0,0,.552,10.994A6.736,6.736,0,0,0,363.319,70.321Zm-4.624-13.459,2.125-4.5,3.838,3.167a9.763,9.763,0,0,1,3.5,8.54,4.863,4.863,0,0,1-9.005,2.012A9.762,9.762,0,0,1,358.695,56.861Z" transform="translate(-318.59 -45.977)"/>
  <path id="Caminho_127933" data-name="Caminho 127933" d="M401.16,113.989a.942.942,0,0,0,1.838-.411l-1.847-8.268a.941.941,0,0,0-1.837.41Z" transform="translate(-356.899 -94.196)"/>
  <path id="Caminho_127934" data-name="Caminho 127934" d="M382.86,138.788a.942.942,0,0,0,.92-1.147l-.821-3.675a.941.941,0,1,0-1.837.411l.821,3.675A.941.941,0,0,0,382.86,138.788Z" transform="translate(-340.848 -119.482)"/>
  <path id="Caminho_127935" data-name="Caminho 127935" d="M428.788,127.587a.941.941,0,0,0,1.839-.4l0-.009L429.8,123.5a.941.941,0,0,0-1.837.411Z" transform="translate(-382.181 -110.248)"/>
  <path id="Caminho_127936" data-name="Caminho 127936" d="M185.308,192.43a3.287,3.287,0,0,0,4.275-.3l.658-.658a1.567,1.567,0,0,1,1.115-.462,1.588,1.588,0,0,1,.946.315l1.23.922a3.275,3.275,0,0,0,4.579-.654,3.379,3.379,0,0,0-.6-4.686l-.828-.663a8.354,8.354,0,0,0-5.2-1.824,8.27,8.27,0,0,0-5.886,2.438l-.645.645a3.271,3.271,0,0,0,.35,4.93Zm.981-3.6.645-.645a6.4,6.4,0,0,1,4.555-1.887,6.465,6.465,0,0,1,4.024,1.412l.828.663a1.5,1.5,0,0,1,.265,2.087,1.39,1.39,0,0,1-1.944.278l-1.23-.922a3.482,3.482,0,0,0-2.076-.692,3.437,3.437,0,0,0-2.446,1.013l-.657.658a1.388,1.388,0,0,1-1.963-1.963Z" transform="translate(-166.94 -164.646)"/>
  <path id="Caminho_127937" data-name="Caminho 127937" d="M347.261,251.7l1.06.041c.106,0,.211.006.317.006a8.357,8.357,0,0,0,4.95-1.629,8.27,8.27,0,0,0,3.286-5.458l.135-.9A3.271,3.271,0,0,0,353.8,240h-.024a3.287,3.287,0,0,0-3.235,2.785l-.138.92a1.567,1.567,0,0,1-.622,1.034,1.588,1.588,0,0,1-.937.309h-.012l-1.537-.011h-.024A3.275,3.275,0,0,0,344,248.283a3.379,3.379,0,0,0,3.263,3.415Zm.008-4.78h.01l1.537.012h.025a3.483,3.483,0,0,0,2.056-.677,3.437,3.437,0,0,0,1.366-2.269l.138-.92a1.4,1.4,0,0,1,1.373-1.182h.01a1.388,1.388,0,0,1,1.363,1.595l-.135.9a6.442,6.442,0,0,1-6.618,5.479l-1.06-.041a1.5,1.5,0,0,1-1.453-1.521A1.39,1.39,0,0,1,347.269,246.919Z" transform="translate(-308.113 -213.688)"/>
  <path id="Caminho_127938" data-name="Caminho 127938" d="M198.853,16.67l-4.648,4.646A7.481,7.481,0,0,0,192,26.641v.036a7.53,7.53,0,1,0,15.061,0v-.036a7.481,7.481,0,0,0-2.206-5.325l-4.647-4.647A.93.93,0,0,0,198.853,16.67Zm-.447,5.665,1.124-2.623,1.124,2.623a9.328,9.328,0,0,1,.759,3.7,9.428,9.428,0,0,1-1.883,5.634,9.428,9.428,0,0,1-1.883-5.634A9.329,9.329,0,0,1,198.406,22.335Zm6.772,4.306v.036a5.66,5.66,0,0,1-2.846,4.9,5.567,5.567,0,0,1-.7.337,11.327,11.327,0,0,0,1.665-5.887,11.2,11.2,0,0,0-.911-4.437l-.064-.149,1.2,1.2a5.611,5.611,0,0,1,1.654,3.994Zm-11.3,0a5.611,5.611,0,0,1,1.654-3.994l1.2-1.2-.064.149a11.2,11.2,0,0,0-.911,4.437,11.326,11.326,0,0,0,1.665,5.887,5.594,5.594,0,0,1-.7-.337,5.66,5.66,0,0,1-2.846-4.9Z" transform="translate(-173.999 -16.377)"/>
  <path id="Caminho_127939" data-name="Caminho 127939" d="M115.765,236.844a.942.942,0,0,0-.753.377l-1.472,1.962A7.751,7.751,0,0,0,112,243.8a3.765,3.765,0,1,0,7.53,0,7.751,7.751,0,0,0-1.541-4.622l-1.472-1.962A.942.942,0,0,0,115.765,236.844Zm1.044,8.527a1.883,1.883,0,0,1-2.927-1.566,5.857,5.857,0,0,1,1.164-3.492l.718-.958.718.958a5.857,5.857,0,0,1,1.164,3.492A1.879,1.879,0,0,1,116.809,245.371Z" transform="translate(-103.412 -210.903)"/>
  <path id="Caminho_127940" data-name="Caminho 127940" d="M41.118,204.815a5.482,5.482,0,0,0,3.439-.222l1.515-.616a.941.941,0,0,0,.383-1.456l-1.015-1.282a5.484,5.484,0,0,0-2.885-1.886,2.824,2.824,0,1,0-1.437,5.462Zm.094-3.436a.94.94,0,0,1,.864-.206,3.59,3.59,0,0,1,1.888,1.235l.235.3-.352.143a3.589,3.589,0,0,1-2.25.145.941.941,0,0,1-.385-1.615Z" transform="translate(-39.012 -177.741)"/>
  <path id="Caminho_127941" data-name="Caminho 127941" d="M269.847,273.029a5.484,5.484,0,0,0-3.291-1.022l-1.635.034a.941.941,0,0,0-.879,1.224l.49,1.56a5.483,5.483,0,0,0,2.02,2.792,2.824,2.824,0,1,0,3.306-4.579l-.011-.008Zm-1.316,3.175a.94.94,0,0,1-.881-.116,3.589,3.589,0,0,1-1.322-1.828l-.114-.363.38-.008a3.594,3.594,0,0,1,2.154.669.941.941,0,0,1-.217,1.645Z" transform="translate(-237.527 -241.928)"/>
  <path id="Caminho_127942" data-name="Caminho 127942" d="M81.288,108.434l2.428.347a.941.941,0,0,0,1.074-.932.947.947,0,0,0-.009-.133l-.347-2.428a7.751,7.751,0,0,0-2.179-4.358,3.765,3.765,0,1,0-5.325,5.325A7.752,7.752,0,0,0,81.288,108.434Zm-3.541-5.21a1.883,1.883,0,0,1,3.177-.962,5.856,5.856,0,0,1,1.646,3.293l.169,1.185-1.185-.169a5.857,5.857,0,0,1-3.292-1.646,1.879,1.879,0,0,1-.515-1.7Z" transform="translate(-71.495 -90.008)"/>
  <path id="Caminho_127943" data-name="Caminho 127943" d="M372.6,351.648l.039-.312a.941.941,0,0,0-1.61-.772l-.218.226q-.134.138-.272.271a5.092,5.092,0,0,1-2.857,1.354,5.648,5.648,0,1,0,5.628,2.717,5.2,5.2,0,0,1-.751-3.1Q372.579,351.839,372.6,351.648Zm-.754,7.989a3.766,3.766,0,0,1-5.024,1.768q-.121-.058-.238-.125a3.765,3.765,0,0,1,1.355-7,7.1,7.1,0,0,0,2.773-.986,7.311,7.311,0,0,0,.977,2.8,3.761,3.761,0,0,1,.157,3.546Z" transform="translate(-324.707 -310.99)"/>
  <path id="Caminho_127944" data-name="Caminho 127944" d="M390.673,390.336a5.176,5.176,0,0,0-1.991,4.155.941.941,0,0,0,.941.926h.016a.941.941,0,0,0,.926-.957h0a3.284,3.284,0,0,1,1.263-2.636.941.941,0,0,0-1.155-1.487Z" transform="translate(-347.538 -346.165)"/>
  <path id="Caminho_127945" data-name="Caminho 127945" d="M53.5,339l-.231-.412a4.7,4.7,0,0,0-2.762-4.923l-.231-.412a3.293,3.293,0,0,0-6.052.753l-.034-.01a3.295,3.295,0,0,0-3.765,4.783l.231.412a4.7,4.7,0,0,0,2.762,4.924l.231.412a3.295,3.295,0,0,0,6.045-.72l.009-.032.032.009a3.295,3.295,0,0,0,3.765-4.783ZM51.987,341a1.412,1.412,0,0,1-2.591.309.941.941,0,1,0-1.642.921,1.412,1.412,0,1,1-2.455,1.4l-.008-.014-.394-.7a.941.941,0,0,0-.51-.428,2.821,2.821,0,0,1-1.826-3.256.941.941,0,0,0-.1-.658l-.394-.7a1.412,1.412,0,1,1,2.463-1.381l.691,1.231a.942.942,0,1,0,1.643-.921l-.691-1.232a1.412,1.412,0,0,1,2.463-1.381l.394.7a.941.941,0,0,0,.51.428,2.821,2.821,0,0,1,1.826,3.256.941.941,0,0,0,.1.659l.394.7A1.4,1.4,0,0,1,51.987,341Z" transform="translate(-39.888 -294.487)"/>
</svg>
