<svg xmlns="http://www.w3.org/2000/svg" width="51.035" height="51.036" viewBox="0 0 51.035 51.036">
  <g id="Grupo_30237" data-name="Grupo 30237" transform="translate(-562.257 -847.654)">
    <g id="garlic_1_" data-name="garlic (1)" transform="translate(562.257 847.654)">
      <path id="XMLID_881_" d="M14.918,26.311a6.587,6.587,0,0,1-4.91-6.281,6.344,6.344,0,0,1,4.821-6.244L30.132,10l2.824,2.824,2.824,2.824-3.785,15.3a6.344,6.344,0,0,1-6.244,4.821,6.587,6.587,0,0,1-6.281-4.91Z" transform="translate(-9.01 -9.004)" fill="#e8e7e9"/>
      <path id="XMLID_865_" d="M63.083,56.655a6.812,6.812,0,0,1-2.269-13.2l13.877-5.126L69.565,52.2a6.812,6.812,0,0,1-6.482,4.451Z" transform="translate(-50.745 -34.507)" fill="#f9f9f9"/>
      <path id="XMLID_827_" d="M219.353,196.242l.94.94V202l-.184.184a4.628,4.628,0,0,0,0,6.544l1.768,1.768a4.628,4.628,0,0,0,6.544,0l3.612-3.612h6.994a2.436,2.436,0,0,0,2.446-2.439,2.392,2.392,0,0,0-2.392-2.346h-2.263l5.79-5.79a5.879,5.879,0,0,0,1.245-1.838l2.626-7a5.137,5.137,0,0,0-2.694-6.747l-1.362-.585a5.137,5.137,0,0,0-6.747,2.694l-1.813,5.1-1.025-3.824a3.589,3.589,0,1,0-6.932,1.858l2.172,8.106c.009.035.021.068.031.1l-3.032,3.032v-1.029a2.392,2.392,0,0,0-.7-1.692l-1.641-1.641a2.392,2.392,0,1,0-3.383,3.383Z" transform="translate(-196.857 -161.816)" fill="#ffd89e"/>
      <path id="XMLID_1506_" d="M23.959,22.188l3.785-15.3a1,1,0,0,0-.263-.944L24.658,3.116,21.834.292A1,1,0,0,0,20.89.03L13.549,1.845a1,1,0,0,0,.479,1.935L20.822,2.1l1.325,1.325L9.731,8.012a7.822,7.822,0,0,0-5.1,7.43c0,.08.005.16.009.24A5.607,5.607,0,0,1,2,11.013a5.362,5.362,0,0,1,3.445-5.07,1,1,0,0,0-.708-1.864A7.362,7.362,0,0,0,.008,11.04a7.606,7.606,0,0,0,3.429,6.24L2.028,18.689a1,1,0,1,0,1.41,1.41l1.78-1.78a7.753,7.753,0,0,0,1.039,1.789l-1.4,1.4a1,1,0,1,0,1.41,1.41l1.4-1.4a7.751,7.751,0,0,0,1.789,1.039l-1.78,1.78a1,1,0,1,0,1.41,1.41l1.409-1.409a7.606,7.606,0,0,0,6.24,3.429h.1a7.31,7.31,0,0,0,7.123-5.579ZM10.422,9.882,22.268,5.506,17.892,17.352a5.825,5.825,0,0,1-5.455,3.8h-.078A5.815,5.815,0,0,1,10.422,9.882Zm6.339,15.89a5.606,5.606,0,0,1-4.669-2.636c.08,0,.16.008.24.009h.105a7.823,7.823,0,0,0,7.325-5.1L24.349,5.626l1.325,1.325-3.65,14.758a5.323,5.323,0,0,1-5.263,4.063Z" transform="translate(-0.007 0)"/>
      <path id="XMLID_1530_" d="M85.569,31.014a1,1,0,1,0-.7-.292A1,1,0,0,0,85.569,31.014Z" transform="translate(-76.143 -26.127)"/>
      <path id="XMLID_1541_" d="M235.19,170.8l-1.362-.585a6.134,6.134,0,0,0-8.056,3.216c-.008.02-.016.039-.023.06l-.74,2.083-.2-.729a4.585,4.585,0,0,0-8.858,2.374l.945,3.529,0,.006,1.1,4.12L216.879,186a3.38,3.38,0,0,0-.786-1.226l-1.641-1.641a3.389,3.389,0,1,0-4.793,4.793l.648.648v4a5.624,5.624,0,0,0,.108,7.843l1.768,1.768a5.624,5.624,0,0,0,7.954,0l3.32-3.32h6.581a3.487,3.487,0,0,0,2.473-1.041,3.334,3.334,0,0,0,.969-2.413,3.407,3.407,0,0,0-3.248-3.321L234.324,188a6.845,6.845,0,0,0,1.456-2.149l.017-.043,2.618-6.975A6.141,6.141,0,0,0,235.19,170.8Zm-1.25,14.285a4.863,4.863,0,0,1-1.025,1.506l-1.665,1.665-.729-.729a1,1,0,1,0-1.41,1.41l.729.729-2.01,2.01-4.149-4.149a1,1,0,1,0-1.41,1.41l4.854,4.854h0a1,1,0,0,0,.7.292h2.263a1.4,1.4,0,0,1,1.4,1.368,1.356,1.356,0,0,1-.4.979,1.482,1.482,0,0,1-1.05.444h-6.423l-1.933-1.933a1,1,0,0,0-1.41,1.41l1.441,1.441-2.985,2.985a3.635,3.635,0,0,1-5.135,0l-1.768-1.768a3.632,3.632,0,0,1-.468-4.561l2.662,2.662a1,1,0,1,0,1.41-1.41l-3.128-3.128V188.16a1,1,0,0,0-.292-.7l-.94-.94h0a1.4,1.4,0,0,1,1.973-1.974l1.641,1.641a1.386,1.386,0,0,1,.409.987V188.2a1,1,0,0,0,1.7.7l3.032-3.032a1,1,0,0,0,.25-.992l-.016-.051-1-3.73,1.587-.608a1,1,0,1,0-.713-1.862l-1.393.534-.66-2.462a2.592,2.592,0,0,1,5.007-1.341l1.025,3.824a.994.994,0,0,0,.258.446h0l3.4,3.4a1,1,0,1,0,1.41-1.41l-2.958-2.958,1.591-4.477a4.14,4.14,0,0,1,5.426-2.143l1.362.585a4.144,4.144,0,0,1,2.2,5.356l-3.076-1.321a1,1,0,0,0-.787,1.832l3.158,1.356Z" transform="translate(-187.868 -152.794)"/>
    </g>
  </g>
</svg>
