<svg xmlns="http://www.w3.org/2000/svg" width="49.908" height="55.477" viewBox="0 0 49.908 55.477">
  <g id="Grupo_30239" data-name="Grupo 30239" transform="translate(-17.546)">
    <g id="legumes" transform="translate(17.546)">
      <g id="Grupo_30213" data-name="Grupo 30213" transform="translate(0.813 0.811)">
        <path id="Caminho_127989" data-name="Caminho 127989" d="M165.056,255.115c-.671-7.61-11.194-4.769-16.013-1.2-2.106,2.071-2.235,6.256-.307,8.185s4.426,2.016,6.853,1.028a4.828,4.828,0,0,1,3.7,0,6.987,6.987,0,0,0,6.694-1.158,5.707,5.707,0,0,0-.925-6.856Z" transform="translate(-135.001 -223.989)" fill="#d8ab8c"/>
        <path id="Caminho_127990" data-name="Caminho 127990" d="M266.353,250.907a4.011,4.011,0,0,1,3.639-.344s.336-4.228-1.682-4.228S266.353,250.907,266.353,250.907Z" transform="translate(-241.088 -220.453)" fill="#b1705b"/>
        <path id="Caminho_127991" data-name="Caminho 127991" d="M187.29,50.71A5.706,5.706,0,0,0,181.584,45c-2.728,0-4.555,1.7-5.572,4.119a4.828,4.828,0,0,1-2.615,2.615,8.965,8.965,0,0,0-1.242.637c-.453.791-1.793,2.8-1.793,3.852a5.706,5.706,0,0,0,5.706,5.706c2.848,0,6.552-2.049,8.636-3.67A12.255,12.255,0,0,0,187.29,50.71Z" transform="translate(-155.499 -40.938)" fill="#f2d1a5"/>
        <path id="Caminho_127992" data-name="Caminho 127992" d="M162.53,115.792a5.479,5.479,0,0,1,.71-2.768,5.614,5.614,0,0,0-2.877,4.935,5.706,5.706,0,0,0,5.706,5.706,12.281,12.281,0,0,0,9.719-4.754,12.256,12.256,0,0,1-7.552,2.586A5.706,5.706,0,0,1,162.53,115.792Z" transform="translate(-146.583 -101.587)" fill="#d8ab8c"/>
        <path id="Caminho_127993" data-name="Caminho 127993" d="M297.563,219.668a5.677,5.677,0,0,0-2.8.736,6.729,6.729,0,0,0-1.82,3.886c0,2.728,1.7,4.555,4.119,5.572a4.828,4.828,0,0,1,2.615,2.615c1.017,2.414,2.845,4.119,5.572,4.119a6.438,6.438,0,0,0,3.886-1.82,5.678,5.678,0,0,0,.736-2.8,12.3,12.3,0,0,0-12.306-12.306" transform="translate(-264.795 -196.675)" fill="#d8ab8c"/>
        <path id="Caminho_127994" data-name="Caminho 127994" d="M285.227,224.575s2.378-1.009,2.943-4.719a3.981,3.981,0,0,0-2.325.716,5.7,5.7,0,0,0-2.9,4.97c0,2.728,1.7,4.555,4.119,5.572a4.828,4.828,0,0,1,2.615,2.615c1.017,2.414,2.845,4.119,5.572,4.119a5.7,5.7,0,0,0,4.97-2.9,5.678,5.678,0,0,1-2.8.736c-2.728,0-4.555-1.7-5.572-4.119a4.828,4.828,0,0,0-2.615-2.615,6.2,6.2,0,0,1-4-4.372" transform="translate(-255.879 -196.843)" fill="#c38778"/>
        <path id="Caminho_127995" data-name="Caminho 127995" d="M189.364,161.21a4.882,4.882,0,0,1,1.6-1.079c2.414-1.017,4.119-2.845,4.119-5.572a5.706,5.706,0,0,0-5.706-5.706,12.256,12.256,0,0,0-7.552,2.586c-1.621,2.084-3.67,4.885-3.67,8.636,0,2.42,2.555,5.706,5.706,5.706,1.056,0,3.06-1.34,3.852-1.793a8.965,8.965,0,0,0,.637-1.242A4.89,4.89,0,0,1,189.364,161.21Z" transform="translate(-162.445 -133.534)" fill="#d8ab8c"/>
        <path id="Caminho_127996" data-name="Caminho 127996" d="M170.319,180.274a12.256,12.256,0,0,1,2.586-7.552,12.281,12.281,0,0,0-4.754,9.719,5.706,5.706,0,0,0,5.706,5.706,5.614,5.614,0,0,0,4.935-2.877,5.479,5.479,0,0,1-2.768.71A5.706,5.706,0,0,1,170.319,180.274Z" transform="translate(-153.528 -154.817)" fill="#c38778"/>
        <path id="Caminho_127997" data-name="Caminho 127997" d="M148.927,291.8a4.829,4.829,0,0,0-3.7,0c-2.426.988-4.924.9-6.853-1.028a5.738,5.738,0,0,1-.644-.767c2.741-.876,4.9-5.719-.133-6.334a12.427,12.427,0,0,0-1.39,1.2,5.706,5.706,0,0,0,0,8.07c1.929,1.929,4.426,2.016,6.853,1.028a4.828,4.828,0,0,1,3.7,0c2.426.988,4.924.9,6.853-1.028a5.709,5.709,0,0,0,.925-1.214A6.3,6.3,0,0,1,148.927,291.8Z" transform="translate(-123.557 -253.74)" fill="#c38778"/>
        <path id="Caminho_127998" data-name="Caminho 127998" d="M176.21,349.526c2.414-1.017,4.119-2.845,4.119-5.572a5.706,5.706,0,0,0-5.706-5.706,12.256,12.256,0,0,0-7.552,2.586c-1.621,2.084-3.67,4.4-3.67,7.552a6.935,6.935,0,0,0,6.79,6.79c1.056,0,2.768-1.793,2.768-1.793a8.982,8.982,0,0,0,.637-1.242A4.828,4.828,0,0,1,176.21,349.526Z" transform="translate(-149.292 -302.406)" fill="#f2d1a5"/>
        <path id="Caminho_127999" data-name="Caminho 127999" d="M155.567,369.669a12.256,12.256,0,0,1,2.586-7.552,12.281,12.281,0,0,0-4.754,9.719,5.706,5.706,0,0,0,5.706,5.706,5.614,5.614,0,0,0,4.935-2.877,5.479,5.479,0,0,1-2.768.71A5.706,5.706,0,0,1,155.567,369.669Z" transform="translate(-140.375 -323.689)" fill="#d8ab8c"/>
        <path id="Caminho_128000" data-name="Caminho 128000" d="M380.965,9.151a5.707,5.707,0,0,0-7.03-.822A10.81,10.81,0,0,0,373.742,16a4.829,4.829,0,0,1,0,3.7c-.988,2.426-.545,5.232.571,6.1a6.422,6.422,0,0,0,7.856-.648A12.3,12.3,0,0,0,380.965,9.151Z" transform="translate(-336.296 -7.48)" fill="#f2d1a5"/>
        <path id="Caminho_128001" data-name="Caminho 128001" d="M359.9,31.7c-1.116-.871-1.559-2.594-.571-5.02a4.829,4.829,0,0,0,0-3.7c-.861-2.113-1.909-5.549-.89-7.674a5.714,5.714,0,0,0-1.04.822c-1.929,1.929-2.016,4.426-1.028,6.853a4.829,4.829,0,0,1,0,3.7c-.988,2.426-.9,4.924,1.028,6.853a5.706,5.706,0,0,0,8.07,0,12.426,12.426,0,0,0,1.2-1.4A6,6,0,0,1,359.9,31.7Z" transform="translate(-320.795 -14.462)" fill="#d8ab8c"/>
        <path id="Caminho_128002" data-name="Caminho 128002" d="M58.2,169.325a4.829,4.829,0,0,1-2.615-2.615c-1.017-2.414-2.845-4.119-5.572-4.119a5.677,5.677,0,0,0-2.8.736c-.468.828-1.553,1.723-1.553,3.954,0,6.991,6.321,12.238,13.123,12.238,1.019,0,1.975-1.352,2.8-1.82a5.677,5.677,0,0,0,.736-2.8C62.316,172.17,60.611,170.342,58.2,169.325Z" transform="translate(-44.304 -145.784)" fill="#f2d1a5"/>
        <path id="Caminho_128003" data-name="Caminho 128003" d="M35.362,172.19a5.677,5.677,0,0,1,.736-2.8,5.7,5.7,0,0,0-2.9,4.97A12.3,12.3,0,0,0,45.5,186.663a5.7,5.7,0,0,0,4.97-2.9,5.678,5.678,0,0,1-2.8.736A12.3,12.3,0,0,1,35.362,172.19Z" transform="translate(-33.195 -151.843)" fill="#d8ab8c"/>
        <g id="Grupo_30212" data-name="Grupo 30212" transform="translate(9.298 8.185)">
          <path id="Caminho_128004" data-name="Caminho 128004" d="M365.122,85.328c0-1.835-1.6-2.685-3.651-1.849a6.712,6.712,0,0,1,0,3.7C363.524,88.013,365.122,87.163,365.122,85.328Z" transform="translate(-335.197 -83.141)" fill="#b1705b"/>
          <path id="Caminho_128005" data-name="Caminho 128005" d="M200.988,83.014a6,6,0,0,1-2.615,2.615c.861,2.043,2.591,2.572,3.889,1.274S203.031,83.875,200.988,83.014Z" transform="translate(-189.772 -83.014)" fill="#b1705b"/>
          <path id="Caminho_128006" data-name="Caminho 128006" d="M120.983,200.6h0c-2.043.861-2.572,2.591-1.274,3.889s3.028.769,3.889-1.274A6,6,0,0,1,120.983,200.6Z" transform="translate(-119.003 -187.861)" fill="#b1705b"/>
          <path id="Caminho_128007" data-name="Caminho 128007" d="M239.914,424.763c-1.3,1.3-.769,3.028,1.274,3.889a6,6,0,0,1,2.615-2.615C242.942,423.994,241.212,423.466,239.914,424.763Z" transform="translate(-226.183 -387.102)" fill="#b1705b"/>
          <path id="Caminho_128008" data-name="Caminho 128008" d="M258.555,236.642c-.861-2.043-2.591-2.572-3.889-1.274s-.769,3.028,1.274,3.889a4.419,4.419,0,0,1,1.016-1.428,5.182,5.182,0,0,1,1.6-1.187Z" transform="translate(-239.336 -218.229)" fill="#b1705b"/>
          <path id="Caminho_128009" data-name="Caminho 128009" d="M324.84,306.181c-1.3-1.3-3.028-.769-3.889,1.274a6,6,0,0,1,2.615,2.615C325.609,309.21,326.137,307.479,324.84,306.181Z" transform="translate(-299.068 -281.37)" fill="#b1705b"/>
        </g>
      </g>
      <g id="Grupo_30214" data-name="Grupo 30214" transform="translate(0 0)">
        <path id="Caminho_128010" data-name="Caminho 128010" d="M45.239,55.476a6.526,6.526,0,0,1-6.519-6.519A13.116,13.116,0,0,1,40.7,42.008a6.422,6.422,0,0,1-2.117-1.428,6.527,6.527,0,0,1-1.9-4.31,13.086,13.086,0,0,1-10.595-9.741.813.813,0,1,1,1.577-.4,11.47,11.47,0,0,0,11.148,8.683,4.9,4.9,0,0,0,4.893-4.893,4.977,4.977,0,0,0-2.944-4.5,3.445,3.445,0,0,1-2.2,1.674,3.142,3.142,0,0,1-3.516-3.516,3.445,3.445,0,0,1,1.674-2.2,4.977,4.977,0,0,0-4.5-2.944,4.9,4.9,0,0,0-4.893,4.893.813.813,0,1,1-1.625,0A6.526,6.526,0,0,1,32.214,16.8c2.822,0,5.067,1.639,6.321,4.616A4.014,4.014,0,0,0,40.716,23.6q.227.1.444.2a13.233,13.233,0,0,1,4.365-5.835,13.009,13.009,0,0,1,7.912-2.65,6.482,6.482,0,0,1,2.739.6,11.493,11.493,0,0,0,1.31-5.338,4.9,4.9,0,0,0-4.893-4.893,4.978,4.978,0,0,0-4.5,2.944,3.444,3.444,0,0,1,1.674,2.2,2.876,2.876,0,0,1-.895,2.622,2.876,2.876,0,0,1-2.622.895,3.445,3.445,0,0,1-2.2-1.674,4.978,4.978,0,0,0-2.944,4.5,4.852,4.852,0,0,0,.451,2.054.813.813,0,1,1-1.475.683,6.464,6.464,0,0,1-.6-2.738c0-2.822,1.639-5.067,4.616-6.321a4.014,4.014,0,0,0,2.18-2.179V8.676c1.254-2.975,3.5-4.613,6.32-4.613a6.526,6.526,0,0,1,6.519,6.519,13.115,13.115,0,0,1-1.555,6.2,6.509,6.509,0,0,1,2.4,5.048,6.822,6.822,0,0,1-.1,1.167A13.134,13.134,0,0,1,72.395,36.108a6.526,6.526,0,0,1-6.519,6.519c-2.821,0-5.066-1.639-6.32-4.613v0a4.141,4.141,0,0,0-.588-.99,6.446,6.446,0,0,1-1.142,2.756,6.485,6.485,0,0,1,.534,2.583c0,2.821-1.638,5.066-4.613,6.32h0a4.014,4.014,0,0,0-2.179,2.181c-1.254,2.977-3.5,4.616-6.321,4.616Zm3.592-19.268a.813.813,0,0,1,.2,1.6,11.47,11.47,0,0,0-8.683,11.148,4.9,4.9,0,0,0,4.893,4.893,4.977,4.977,0,0,0,4.5-2.944,3.445,3.445,0,0,1-1.674-2.2,3.142,3.142,0,0,1,3.516-3.516,3.444,3.444,0,0,1,2.2,1.674,4.978,4.978,0,0,0,2.944-4.5,4.9,4.9,0,0,0-4.893-4.893.813.813,0,0,1,0-1.625,6.508,6.508,0,0,1,5.037,2.385,4.846,4.846,0,0,0,.545-2.374l-.048-.02A6.975,6.975,0,0,1,52.9,30.905a6.6,6.6,0,0,1-6.062,4.049,6.485,6.485,0,0,1-3.088-.776,6.506,6.506,0,0,1-4.936,2.265q-.246,0-.489-.009a4.9,4.9,0,0,0,1.411,3,4.725,4.725,0,0,0,1.951,1.2,13.066,13.066,0,0,1,6.947-4.4A.8.8,0,0,1,48.832,36.208Zm2.245,10.555a1.419,1.419,0,0,0-.965.468,1.319,1.319,0,0,0-.449,1.16,1.756,1.756,0,0,0,.8,1.05,5.538,5.538,0,0,1,1.857-1.857,1.757,1.757,0,0,0-1.05-.8A1.015,1.015,0,0,0,51.077,46.763Zm10.3-8.705A4.977,4.977,0,0,0,65.876,41a4.9,4.9,0,0,0,4.893-4.893A11.506,11.506,0,0,0,59.345,24.615a7.446,7.446,0,0,1-4,3.541,4.169,4.169,0,0,0-.884.505,4.919,4.919,0,0,0,2.871,5.35,3.445,3.445,0,0,1,2.2-1.674,3.142,3.142,0,0,1,3.517,3.516A3.446,3.446,0,0,1,61.373,38.057Zm-2.58-3.323a5.536,5.536,0,0,1,1.857,1.857,1.756,1.756,0,0,0,.8-1.05,1.538,1.538,0,0,0-1.609-1.609,1.757,1.757,0,0,0-1.05.8ZM44.655,32.816a4.87,4.87,0,0,0,2.183.512,4.977,4.977,0,0,0,4.5-2.944,3.444,3.444,0,0,1-1.674-2.2,3.142,3.142,0,0,1,3.516-3.516,3.445,3.445,0,0,1,2.2,1.674,4.977,4.977,0,0,0,2.944-4.5,4.9,4.9,0,0,0-4.893-4.893,11.4,11.4,0,0,0-6.932,2.321,11.587,11.587,0,0,0-3.922,5.378,6.33,6.33,0,0,1,2.748,5.282,6.481,6.481,0,0,1-.678,2.892Zm8.021-6.576a1.419,1.419,0,0,0-.965.468,1.319,1.319,0,0,0-.449,1.16,1.756,1.756,0,0,0,.8,1.05,5.538,5.538,0,0,1,1.857-1.857,1.756,1.756,0,0,0-1.05-.8,1.007,1.007,0,0,0-.195-.019ZM37.44,22.84a1.756,1.756,0,0,0-.8,1.05A1.538,1.538,0,0,0,38.247,25.5a1.756,1.756,0,0,0,1.05-.8A5.538,5.538,0,0,1,37.44,22.84ZM45.51,11.955a1.756,1.756,0,0,0,1.05.8,1.319,1.319,0,0,0,1.16-.449,1.319,1.319,0,0,0,.449-1.16,1.756,1.756,0,0,0-.8-1.05A5.536,5.536,0,0,1,45.51,11.955ZM67.142,22.364a6.5,6.5,0,0,1-4.609-1.906c-2-2-2.424-4.742-1.206-7.734a4.014,4.014,0,0,0,0-3.085c-1.218-2.991-.79-5.738,1.206-7.734a6.526,6.526,0,0,1,9.219,0A.813.813,0,1,1,70.6,3.055a4.9,4.9,0,0,0-6.92,0,4.978,4.978,0,0,0-1.1,5.266,3.445,3.445,0,0,1,2.742.374,2.876,2.876,0,0,1,1.221,2.487,2.876,2.876,0,0,1-1.221,2.486,3.445,3.445,0,0,1-2.742.374,4.977,4.977,0,0,0,1.1,5.266,4.9,4.9,0,0,0,6.92,0A11.472,11.472,0,0,0,72.35,5.293a.813.813,0,0,1,1.395-.834,13.1,13.1,0,0,1-1.993,16,6.5,6.5,0,0,1-4.609,1.906ZM63.1,12.494a1.756,1.756,0,0,0,1.31-.175,1.318,1.318,0,0,0,.5-1.138,1.319,1.319,0,0,0-.5-1.138,1.757,1.757,0,0,0-1.31-.175,5.54,5.54,0,0,1,0,2.626Z" transform="translate(-25.695 0.001)"/>
      </g>
    </g>
  </g>
</svg>
