<svg id="cereais" xmlns="http://www.w3.org/2000/svg" width="44.109" height="47.831" viewBox="0 0 44.109 47.831">
  <g id="Grupo_30219" data-name="Grupo 30219" transform="translate(0.936 0.936)">
    <g id="Grupo_30216" data-name="Grupo 30216" transform="translate(23.938)">
      <path id="Caminho_128020" data-name="Caminho 128020" d="M295.331,116.713a3.67,3.67,0,0,1-3.75,3.585,3.728,3.728,0,0,1-3.612-2.622l-1.787-6.125,6.407,1.709a3.613,3.613,0,0,1,2.742,3.453Z" transform="translate(-286.182 -102.066)" fill="#ffdb8a"/>
      <path id="Caminho_128021" data-name="Caminho 128021" d="M384.119,116.713a3.67,3.67,0,0,0,3.75,3.585,3.729,3.729,0,0,0,3.612-2.622l1.787-6.125-6.407,1.709a3.614,3.614,0,0,0-2.742,3.453Z" transform="translate(-374.97 -102.066)" fill="#ffdb8a"/>
      <path id="Caminho_128022" data-name="Caminho 128022" d="M295.331,200.653a3.67,3.67,0,0,1-3.75,3.585,3.729,3.729,0,0,1-3.612-2.622l-1.787-6.125,6.407,1.709A3.613,3.613,0,0,1,295.331,200.653Z" transform="translate(-286.182 -178.164)" fill="#ffe7b1"/>
      <path id="Caminho_128023" data-name="Caminho 128023" d="M384.119,200.653a3.67,3.67,0,0,0,3.75,3.585,3.729,3.729,0,0,0,3.612-2.622l1.787-6.125-6.407,1.709A3.613,3.613,0,0,0,384.119,200.653Z" transform="translate(-374.97 -178.164)" fill="#ffe7b1"/>
      <path id="Caminho_128024" data-name="Caminho 128024" d="M295.331,284.592a3.67,3.67,0,0,1-3.75,3.585,3.728,3.728,0,0,1-3.612-2.622l-1.787-6.125,6.407,1.709A3.614,3.614,0,0,1,295.331,284.592Z" transform="translate(-286.182 -254.261)" fill="#ffdb8a"/>
      <path id="Caminho_128025" data-name="Caminho 128025" d="M384.119,284.592a3.67,3.67,0,0,0,3.75,3.585,3.729,3.729,0,0,0,3.612-2.622l1.787-6.125-6.407,1.709A3.614,3.614,0,0,0,384.119,284.592Z" transform="translate(-374.97 -254.261)" fill="#ffdb8a"/>
      <g id="Grupo_30215" data-name="Grupo 30215" transform="translate(0)">
        <path id="Caminho_128026" data-name="Caminho 128026" d="M295.331,368.532a3.67,3.67,0,0,1-3.75,3.585,3.728,3.728,0,0,1-3.612-2.622l-1.787-6.125,6.407,1.709A3.614,3.614,0,0,1,295.331,368.532Z" transform="translate(-286.182 -330.36)" fill="#ffe7b1"/>
        <path id="Caminho_128027" data-name="Caminho 128027" d="M384.119,368.532a3.67,3.67,0,0,0,3.75,3.585,3.729,3.729,0,0,0,3.612-2.622l1.787-6.125-6.407,1.709A3.614,3.614,0,0,0,384.119,368.532Z" transform="translate(-374.97 -330.36)" fill="#ffe7b1"/>
        <path id="Caminho_128028" data-name="Caminho 128028" d="M347.849,20.642a4.241,4.241,0,0,1-5.779.055,3.712,3.712,0,0,1-.621-4.645l3.623-6.033,3.5,5.965A3.765,3.765,0,0,1,347.849,20.642Z" transform="translate(-335.79 -10.019)" fill="#ffe7b1"/>
      </g>
    </g>
    <g id="Grupo_30218" data-name="Grupo 30218" transform="translate(0)">
      <path id="Caminho_128029" data-name="Caminho 128029" d="M39.093,116.713a3.67,3.67,0,0,1-3.75,3.585,3.728,3.728,0,0,1-3.612-2.622l-1.787-6.125,6.407,1.709a3.614,3.614,0,0,1,2.742,3.453Z" transform="translate(-29.944 -102.066)" fill="#ffdb8a"/>
      <path id="Caminho_128030" data-name="Caminho 128030" d="M127.881,116.713a3.67,3.67,0,0,0,3.75,3.585,3.728,3.728,0,0,0,3.612-2.622l1.787-6.125-6.407,1.709a3.613,3.613,0,0,0-2.742,3.453Z" transform="translate(-118.732 -102.066)" fill="#ffdb8a"/>
      <path id="Caminho_128031" data-name="Caminho 128031" d="M39.093,200.653a3.67,3.67,0,0,1-3.75,3.585,3.729,3.729,0,0,1-3.612-2.622l-1.787-6.125,6.407,1.709A3.613,3.613,0,0,1,39.093,200.653Z" transform="translate(-29.944 -178.164)" fill="#ffe7b1"/>
      <path id="Caminho_128032" data-name="Caminho 128032" d="M127.881,200.653a3.67,3.67,0,0,0,3.75,3.585,3.729,3.729,0,0,0,3.612-2.622l1.787-6.125-6.407,1.709A3.613,3.613,0,0,0,127.881,200.653Z" transform="translate(-118.732 -178.164)" fill="#ffe7b1"/>
      <path id="Caminho_128033" data-name="Caminho 128033" d="M39.093,284.592a3.67,3.67,0,0,1-3.75,3.585,3.728,3.728,0,0,1-3.612-2.622l-1.787-6.125,6.407,1.709A3.614,3.614,0,0,1,39.093,284.592Z" transform="translate(-29.944 -254.261)" fill="#ffdb8a"/>
      <path id="Caminho_128034" data-name="Caminho 128034" d="M127.881,284.592a3.67,3.67,0,0,0,3.75,3.585,3.728,3.728,0,0,0,3.612-2.622l1.787-6.125-6.407,1.709A3.614,3.614,0,0,0,127.881,284.592Z" transform="translate(-118.732 -254.261)" fill="#ffdb8a"/>
      <g id="Grupo_30217" data-name="Grupo 30217">
        <path id="Caminho_128035" data-name="Caminho 128035" d="M39.093,368.532a3.67,3.67,0,0,1-3.75,3.585,3.728,3.728,0,0,1-3.612-2.622l-1.787-6.125,6.407,1.709A3.614,3.614,0,0,1,39.093,368.532Z" transform="translate(-29.944 -330.36)" fill="#ffe7b1"/>
        <path id="Caminho_128036" data-name="Caminho 128036" d="M127.881,368.532a3.67,3.67,0,0,0,3.75,3.585,3.728,3.728,0,0,0,3.612-2.622l1.787-6.125-6.407,1.709A3.614,3.614,0,0,0,127.881,368.532Z" transform="translate(-118.732 -330.36)" fill="#ffe7b1"/>
        <path id="Caminho_128037" data-name="Caminho 128037" d="M91.611,20.642a4.241,4.241,0,0,1-5.779.055,3.712,3.712,0,0,1-.621-4.645l3.623-6.033,3.5,5.965A3.766,3.766,0,0,1,91.611,20.642Z" transform="translate(-79.552 -10.019)" fill="#ffe7b1"/>
      </g>
    </g>
  </g>
  <g id="Grupo_30220" data-name="Grupo 30220" transform="translate(0 0)">
    <path id="Caminho_128038" data-name="Caminho 128038" d="M40.055,45.724a.936.936,0,0,0-1.14-1.167L34.68,45.687a4.64,4.64,0,0,0-.236-4.219l-1.38-2.354a.936.936,0,1,0-1.615.947l1.38,2.354a2.845,2.845,0,0,1-.557,3.506,3.3,3.3,0,0,1-4.49.055,2.793,2.793,0,0,1-.463-3.484l1.445-2.405a.936.936,0,1,0-1.6-.964l-1.445,2.405a4.667,4.667,0,0,0-.339,4.171L21.1,44.558a.936.936,0,0,0-1.14,1.167l1.787,6.125a4.389,4.389,0,0,0,.328.81L21.1,52.4a.936.936,0,0,0-1.14,1.167l1.787,6.125a4.389,4.389,0,0,0,.328.81l-.976-.26a.936.936,0,0,0-1.14,1.167l1.787,6.125a4.389,4.389,0,0,0,.328.81l-.976-.26a.936.936,0,0,0-1.14,1.167l1.787,6.125a4.681,4.681,0,0,0,4.511,3.3,4.773,4.773,0,0,0,2.814-.908v4.175a.936.936,0,0,0,1.872,0V77.762a4.773,4.773,0,0,0,2.814.908,4.681,4.681,0,0,0,4.511-3.3l1.787-6.125a.936.936,0,0,0-1.14-1.167l-.976.26a4.381,4.381,0,0,0,.328-.81l1.787-6.125a.936.936,0,0,0-1.14-1.167l-.976.26a4.38,4.38,0,0,0,.328-.81l1.787-6.125a.936.936,0,0,0-1.14-1.167l-.976.26a4.38,4.38,0,0,0,.328-.81ZM30.007,71.444a4.655,4.655,0,0,0-1.42-1.217,4.671,4.671,0,0,0,1.42-1.212,4.671,4.671,0,0,0,1.42,1.212A4.653,4.653,0,0,0,30.007,71.444Zm-2.984-7.685a2.688,2.688,0,0,1,2.047,2.549,2.738,2.738,0,0,1-2.814,2.649,2.8,2.8,0,0,1-2.713-1.948l-1.322-4.531Zm3.92,2.549a2.688,2.688,0,0,1,2.047-2.549l4.8-1.281L36.47,67.008a2.8,2.8,0,0,1-2.713,1.948A2.738,2.738,0,0,1,30.943,66.307Zm-.936-2.7a4.654,4.654,0,0,0-1.42-1.217,4.671,4.671,0,0,0,1.42-1.212,4.67,4.67,0,0,0,1.42,1.212A4.651,4.651,0,0,0,30.007,63.6Zm-2.984-7.686a2.688,2.688,0,0,1,2.047,2.549,2.738,2.738,0,0,1-2.814,2.649,2.8,2.8,0,0,1-2.713-1.948l-1.322-4.531Zm3.92,2.549a2.688,2.688,0,0,1,2.047-2.549l4.8-1.281L36.47,59.167a2.8,2.8,0,0,1-2.713,1.948A2.738,2.738,0,0,1,30.943,58.466Zm-.936-2.7a4.655,4.655,0,0,0-1.42-1.217,4.671,4.671,0,0,0,1.42-1.212,4.67,4.67,0,0,0,1.42,1.212A4.652,4.652,0,0,0,30.007,55.761Zm.936-5.137a2.688,2.688,0,0,1,2.047-2.549l4.8-1.281-1.322,4.53a2.8,2.8,0,0,1-2.713,1.948,2.738,2.738,0,0,1-2.814-2.649Zm-3.92-2.549a2.688,2.688,0,0,1,2.047,2.549,2.738,2.738,0,0,1-2.814,2.649,2.8,2.8,0,0,1-2.713-1.948l-1.322-4.53ZM26.257,76.8a2.8,2.8,0,0,1-2.713-1.948L22.222,70.32l4.8,1.281a2.688,2.688,0,0,1,2.047,2.549A2.738,2.738,0,0,1,26.257,76.8ZM36.47,74.85A2.8,2.8,0,0,1,33.757,76.8a2.738,2.738,0,0,1-2.814-2.649A2.689,2.689,0,0,1,32.991,71.6l4.8-1.281Z" transform="translate(-19.921 -35.041)"/>
    <path id="Caminho_128039" data-name="Caminho 128039" d="M296.293,18.525a.936.936,0,0,0-1.14-1.167l-.976.26a4.387,4.387,0,0,0,.328-.81l1.787-6.125a.936.936,0,0,0-1.14-1.167l-4.235,1.129a4.64,4.64,0,0,0-.236-4.219l-3.5-5.965a.936.936,0,0,0-.8-.463h-.005a.936.936,0,0,0-.8.454l-3.623,6.033a4.667,4.667,0,0,0-.339,4.171l-4.276-1.14a.936.936,0,0,0-1.14,1.167l1.787,6.125a4.383,4.383,0,0,0,.328.81l-.976-.26a.936.936,0,0,0-1.14,1.167l1.787,6.125a4.385,4.385,0,0,0,.328.81l-.976-.26a.936.936,0,0,0-1.14,1.167l1.787,6.125a4.381,4.381,0,0,0,.328.81l-.976-.26a.936.936,0,0,0-1.14,1.167l1.787,6.125a4.681,4.681,0,0,0,4.511,3.3,4.773,4.773,0,0,0,2.814-.908V46.9a.936.936,0,1,0,1.872,0V42.721a4.773,4.773,0,0,0,2.814.908,4.681,4.681,0,0,0,4.511-3.3l1.787-6.125a.936.936,0,0,0-1.14-1.167l-.976.26a4.38,4.38,0,0,0,.328-.81l1.787-6.125a.936.936,0,0,0-1.14-1.167l-.976.26a4.385,4.385,0,0,0,.328-.81ZM286.245,36.4a4.655,4.655,0,0,0-1.42-1.217,4.67,4.67,0,0,0,1.42-1.212,4.671,4.671,0,0,0,1.42,1.212A4.655,4.655,0,0,0,286.245,36.4Zm-2.983-7.685a2.688,2.688,0,0,1,2.047,2.549,2.738,2.738,0,0,1-2.814,2.649,2.8,2.8,0,0,1-2.713-1.948l-1.322-4.531Zm3.92,2.549a2.688,2.688,0,0,1,2.047-2.549l4.8-1.281-1.322,4.53a2.8,2.8,0,0,1-2.713,1.948A2.738,2.738,0,0,1,287.181,31.266Zm-.936-2.7a4.654,4.654,0,0,0-1.42-1.217,4.671,4.671,0,0,0,1.42-1.212,4.67,4.67,0,0,0,1.42,1.212A4.652,4.652,0,0,0,286.245,28.562Zm0-10.271a4.67,4.67,0,0,0,1.42,1.212,4.653,4.653,0,0,0-1.42,1.217,4.654,4.654,0,0,0-1.42-1.217A4.67,4.67,0,0,0,286.245,18.291Zm-2.983,2.585a2.688,2.688,0,0,1,2.047,2.549,2.738,2.738,0,0,1-2.814,2.649,2.8,2.8,0,0,1-2.713-1.948L278.46,19.6Zm3.92,2.549a2.688,2.688,0,0,1,2.047-2.549l4.8-1.281-1.322,4.53a2.8,2.8,0,0,1-2.713,1.948A2.738,2.738,0,0,1,287.181,23.425Zm5.527-7.141a2.8,2.8,0,0,1-2.713,1.948,2.738,2.738,0,0,1-2.814-2.649,2.688,2.688,0,0,1,2.047-2.549l4.8-1.281Zm-9.151-8.834,2.811-4.68,2.7,4.6a2.845,2.845,0,0,1-.556,3.506h0a3.3,3.3,0,0,1-4.49.055A2.793,2.793,0,0,1,283.557,7.451Zm-.3,5.584a2.688,2.688,0,0,1,2.047,2.549,2.738,2.738,0,0,1-2.814,2.649,2.8,2.8,0,0,1-2.713-1.948l-1.322-4.53ZM282.5,41.757a2.8,2.8,0,0,1-2.713-1.948l-1.322-4.531,4.8,1.281a2.688,2.688,0,0,1,2.047,2.549,2.738,2.738,0,0,1-2.814,2.649Zm10.213-1.948a2.8,2.8,0,0,1-2.713,1.948,2.738,2.738,0,0,1-2.814-2.649,2.689,2.689,0,0,1,2.047-2.549l4.8-1.281Z" transform="translate(-252.221 0)"/>
    <circle id="Elipse_910" data-name="Elipse 910" cx="0.934" cy="0.934" r="0.934" transform="translate(9.28 0.002)"/>
  </g>
</svg>
