<svg id="Grupo_30238" data-name="Grupo 30238" xmlns="http://www.w3.org/2000/svg" width="50.162" height="44.051" viewBox="0 0 50.162 44.051">
  <g id="potato_1_" data-name="potato (1)">
    <path id="Caminho_127946" data-name="Caminho 127946" d="M30.987,8.071a13.205,13.205,0,0,0-11.866,7.2A48.669,48.669,0,0,1,12.182,25.6,17.775,17.775,0,0,0,7.571,37.367q0,.173,0,.346A12.925,12.925,0,0,0,20.491,50.638h.041q.146,0,.293,0a23.6,23.6,0,0,0,23.268-23.6V21.442A13.313,13.313,0,0,0,30.987,8.071Zm0,0" transform="translate(-6.825 -7.329)" fill="#f0a65f"/>
    <path id="Caminho_127947" data-name="Caminho 127947" d="M66.365,49.953V44.359a13.442,13.442,0,0,0-5.543-10.883,13.427,13.427,0,0,1,2.567,7.907v1.358a4.927,4.927,0,0,1-4.084,4.85,31.409,31.409,0,0,1-3.635.424,15.783,15.783,0,0,0-10.2,4.453c-.075.071-.149.143-.222.216a11.88,11.88,0,0,0-3.5,8.457,11.513,11.513,0,0,0,1.2,4.955,3.113,3.113,0,0,1-2.767,4.479h-.056a12.389,12.389,0,0,1-7.863-2.415,12.908,12.908,0,0,0,10.505,5.395A23.839,23.839,0,0,0,66.365,49.953Zm0,0" transform="translate(-29.097 -30.246)" fill="#e28540"/>
    <path id="Caminho_127948" data-name="Caminho 127948" d="M181.206,181.137a10.2,10.2,0,0,0-10.413-2.546,37.587,37.587,0,0,1-9.427,1.85,13.725,13.725,0,0,0-8.942,3.906q-.1.092-.191.186a9.98,9.98,0,0,0,0,14.114c.007.008.13.128.184.18a18.224,18.224,0,0,0,25.589-.18l3.055-3.054A10.28,10.28,0,0,0,181.206,181.137Zm0,0" transform="translate(-134.681 -160.696)" fill="#f0a65f"/>
    <path id="Caminho_127949" data-name="Caminho 127949" d="M199.334,198.443a10.282,10.282,0,0,0-1.364-1.162,10.314,10.314,0,0,1-1.19,13.21l-3.054,3.055a18.226,18.226,0,0,1-24.319,1.3,10.049,10.049,0,0,0,1.139,1.284,18.224,18.224,0,0,0,25.589-.18l3.055-3.054a10.28,10.28,0,0,0,.145-14.457Zm0,0" transform="translate(-152.809 -178.002)" fill="#e28540"/>
    <path id="Caminho_127950" data-name="Caminho 127950" d="M47.052,20.42a10.879,10.879,0,0,0-9.044-3.194V14.613A14.068,14.068,0,0,0,24.166.5,13.946,13.946,0,0,0,11.633,8.108c-.467.914-.955,1.81-1.45,2.663a.742.742,0,1,0,1.284.745c.508-.876,1.008-1.795,1.487-2.732a12.541,12.541,0,0,1,2.586-3.445,8.758,8.758,0,0,1,2.958.455A.742.742,0,0,0,19,4.4a9.14,9.14,0,0,0-1.714-.423,12.437,12.437,0,0,1,6.87-1.99A12.58,12.58,0,0,1,36.524,14.613V17.5c-.215.055-.429.116-.642.185a40.733,40.733,0,0,1-5,1.29A5.431,5.431,0,0,0,27.9,16.472a.742.742,0,0,0-.489,1.4,3.951,3.951,0,0,1,1.882,1.368q-1.338.188-2.65.263a14.713,14.713,0,0,0-9.616,4.309,10.735,10.735,0,0,0,0,15.165,19.718,19.718,0,0,0,3.8,2.943,27.175,27.175,0,0,1-7.158,1.145A12.309,12.309,0,0,1,1.487,30.551,16.949,16.949,0,0,1,5.909,19.267a44.832,44.832,0,0,0,3.683-4.754.742.742,0,0,0-1.23-.83,43.318,43.318,0,0,1-3.56,4.6A18.4,18.4,0,0,0,0,30.519,13.809,13.809,0,0,0,13.665,44.551a24.374,24.374,0,0,0,8.946-1.7,19,19,0,0,0,21.238-3.873.742.742,0,0,0-1.049-1.05A17.372,17.372,0,0,1,32.5,42.9a5.88,5.88,0,0,0,.217-3.971.742.742,0,0,0-1.423.423,4.494,4.494,0,0,1-.514,3.664,17.663,17.663,0,0,1-12.708-5.087,9.249,9.249,0,0,1-.3-12.749,1.948,1.948,0,0,1,1.419,1.63.742.742,0,1,0,1.483-.074,3.212,3.212,0,0,0-1.753-2.653,12.883,12.883,0,0,1,7.8-3.093A38.492,38.492,0,0,0,36.339,19.1q.468-.151.941-.253a4.232,4.232,0,0,1,2.4,2.969.742.742,0,0,0,1.473-.186,4.923,4.923,0,0,0-1.6-2.991,9.414,9.414,0,0,1,6.445,2.822,9.545,9.545,0,0,1-.141,13.411l-.588.589a.742.742,0,0,0,1.049,1.049l.588-.589a11.032,11.032,0,0,0,.149-15.5Zm0,0" transform="translate(0.002 -0.5)"/>
    <path id="Caminho_127951" data-name="Caminho 127951" d="M154.249,141.895a.742.742,0,0,0-.009,1.484,4.669,4.669,0,0,1,3.358,1.562.742.742,0,1,0,1.218-.848c-1.488-2.136-4.433-2.2-4.558-2.2Zm0,0" transform="translate(-138.468 -128.042)"/>
    <path id="Caminho_127952" data-name="Caminho 127952" d="M271.531,67.25a.749.749,0,0,0,.547-.9,4.714,4.714,0,0,0-3.542-3.224.742.742,0,0,0-.3,1.454,3.219,3.219,0,0,1,2.4,2.119A.788.788,0,0,0,271.531,67.25Zm0,0" transform="translate(-241.425 -56.98)"/>
    <path id="Caminho_127953" data-name="Caminho 127953" d="M67.935,223.178c-.813-3.02-4.334-3.493-4.484-3.512a.742.742,0,0,0-.186,1.473c.027,0,2.685.375,3.237,2.425a.742.742,0,0,0,1.433-.386C67.122,220.159,68.042,223.574,67.935,223.178Zm0,0" transform="translate(-56.483 -198.189)"/>
    <path id="Caminho_127954" data-name="Caminho 127954" d="M304.035,227.8a.742.742,0,0,0-.6,1.355c.023.01,2.275,1.048,2.433,2.947a.742.742,0,0,0,1.479-.123c-.232-2.781-3.182-4.123-3.308-4.179Zm0,0" transform="translate(-273.307 -205.477)"/>
    <path id="Caminho_127955" data-name="Caminho 127955" d="M393.986,260.151a.742.742,0,0,0-.711,1.3,2.953,2.953,0,0,1,1.4,2.007.742.742,0,0,0,1.475-.17,4.421,4.421,0,0,0-2.165-3.141C393.627,259.956,394.065,260.194,393.986,260.151Zm0,0" transform="translate(-354.4 -234.632)"/>
  </g>
</svg>
