<svg xmlns="http://www.w3.org/2000/svg" width="56.626" height="56.256" viewBox="0 0 56.626 56.256">
  <g id="Grupo_30236" data-name="Grupo 30236" transform="translate(-390.953 -842.434)">
    <g id="fruit" transform="translate(390.953 842.434)">
      <g id="Grupo_30210" data-name="Grupo 30210" transform="translate(0.911 0.828)">
        <path id="Caminho_127970" data-name="Caminho 127970" d="M67.556,16.036l-3.221,1.47c-.188.086-.372.178-.552.275V15.22a6.632,6.632,0,0,1,1.246-3.87l.765-1.065a.7.7,0,0,0-.858-1.044l-2.258,1.03A6.632,6.632,0,0,0,58.8,16.305a6.632,6.632,0,0,0-3.878-6.033l-2.258-1.03a.7.7,0,0,0-.858,1.044l.765,1.065a6.632,6.632,0,0,1,1.246,3.87v2.561c-.18-.1-.364-.189-.552-.275l-3.221-1.47a1,1,0,0,0-1.224,1.489l1.092,1.519a9.463,9.463,0,0,1,1.778,5.522v1.548H65.909V24.567a9.463,9.463,0,0,1,1.778-5.522l1.092-1.519a1,1,0,0,0-1.224-1.489Z" transform="translate(-44.169 -9.174)" fill="#97da7b"/>
        <path id="Caminho_127971" data-name="Caminho 127971" d="M54.592,17.508l-3.221-1.47a.979.979,0,0,0-1.252.369l2.413,1.1a3.9,3.9,0,0,0,2.613.275Q54.874,17.637,54.592,17.508Zm1.655-7.234L53.99,9.244a.7.7,0,0,0-.977.495l1.174.536c2.362,1.078,5.939,4.253,5.939,6.033A6.63,6.63,0,0,0,56.247,10.275Zm10.014-1.03-1.083.495a.677.677,0,0,1-.12.549l-.765,1.065-.024.034a4.659,4.659,0,0,0,.2,5.606l.636.791v-2.56a6.631,6.631,0,0,1,1.247-3.871l.765-1.065a.7.7,0,0,0-.858-1.044Zm2.62,6.794-.808.369a.967.967,0,0,1-.03,1.12l-1.091,1.52a9.464,9.464,0,0,0-1.779,5.523v1.547h2.062V24.569a9.463,9.463,0,0,1,1.778-5.523l1.092-1.52A1,1,0,0,0,68.881,16.038Z" transform="translate(-45.494 -9.177)" fill="#80d261"/>
        <path id="Caminho_127972" data-name="Caminho 127972" d="M24.893,155.374a13.5,13.5,0,0,1-12.69-8.894l-.094-.259a26.054,26.054,0,0,1,0-17.776l.094-.259a13.5,13.5,0,0,1,12.69-8.894h.129a13.5,13.5,0,0,1,12.66,8.812,26.054,26.054,0,0,1,.114,17.782l-.183.515a13.5,13.5,0,0,1-12.718,8.974Z" transform="translate(-10.293 -107.13)" fill="#fcea81"/>
        <path id="Caminho_127973" data-name="Caminho 127973" d="M141.63,137.153a26.063,26.063,0,0,1-1.507,8.734l-.183.516a13.5,13.5,0,0,1-14.361,8.874,13.5,13.5,0,0,0,11.07-8.874l.183-.516a26.064,26.064,0,0,0-.113-17.781,13.5,13.5,0,0,0-11.077-8.719,13.369,13.369,0,0,1,1.579-.093h.128a13.5,13.5,0,0,1,12.659,8.812,26.034,26.034,0,0,1,1.621,9.047Z" transform="translate(-112.621 -107.133)" fill="#ffc344"/>
        <path id="Caminho_127974" data-name="Caminho 127974" d="M132,72.451a26.578,26.578,0,0,1-37.587,37.587l3.055-3.055L115.1,91.97,128.94,75.507Z" transform="translate(-84.894 -65.463)" fill="#97da7b"/>
        <path id="Caminho_127975" data-name="Caminho 127975" d="M270.544,110.041a26.518,26.518,0,0,1-20.386,7.737,26.58,26.58,0,0,0,18.725-43.663l1.661-1.661A26.577,26.577,0,0,1,270.544,110.041Z" transform="translate(-223.443 -65.466)" fill="#80d261"/>
        <path id="Caminho_127976" data-name="Caminho 127976" d="M153.55,100.115a22.258,22.258,0,1,1-31.477,31.477l15.738-15.738Z" transform="translate(-109.503 -90.072)" fill="#f88c8c"/>
        <circle id="Elipse_908" data-name="Elipse 908" cx="10.162" cy="10.162" r="10.162" transform="translate(16.167 34.275)" fill="#ffd15b"/>
        <path id="Caminho_127977" data-name="Caminho 127977" d="M245.266,329.7a10.164,10.164,0,0,1-11.6,10.061,10.163,10.163,0,0,0,0-20.121,10.164,10.164,0,0,1,11.6,10.061Z" transform="translate(-208.774 -285.259)" fill="#ffc344"/>
        <path id="Caminho_127978" data-name="Caminho 127978" d="M20.253,347.329l-.132-.042a3.628,3.628,0,0,0-2.229,0c-4.028,1.295-8.223-1.366-9.257-5.871l-.011-.049a14.864,14.864,0,0,1,0-6.632l.045-.2c1.021-4.448,5.129-7.109,9.126-5.911l.169.051a3.619,3.619,0,0,0,2.085,0l.3-.089c3.947-1.182,8.013,1.4,9.092,5.768l.036.146a14.859,14.859,0,0,1,0,7.1C28.382,346.029,24.23,348.607,20.253,347.329Z" transform="translate(-8.249 -293.057)" fill="#f79595"/>
        <path id="Caminho_127979" data-name="Caminho 127979" d="M144.673,341.641a7.719,7.719,0,0,1-6.131,5.976,11.3,11.3,0,0,0,3.494-5.976,14.85,14.85,0,0,0,0-7.1l-.035-.146c-.689-2.792-2.213-5.073-4.253-6.05a7.619,7.619,0,0,1,6.89,6.05l.035.146A14.85,14.85,0,0,1,144.673,341.641Z" transform="translate(-123.447 -293.096)" fill="#f47c7c"/>
      </g>
      <g id="Grupo_30211" data-name="Grupo 30211" transform="translate(0 0)">
        <path id="Caminho_127980" data-name="Caminho 127980" d="M56.626,28.284A27.227,27.227,0,0,0,48.6,8.9a.829.829,0,0,0-1.171,0L18.518,37.814c-2.15-1.135-4.114-.806-6.368-.411A8.556,8.556,0,0,0,8.428,32.21a.828.828,0,0,0-.785,1.459,6.768,6.768,0,0,1,2.693,3.511A7.864,7.864,0,0,0,2.9,39.39c-2.623-9.565.531-23.916,12.743-23.9A12.875,12.875,0,0,1,27.66,24.144a.828.828,0,1,0,1.562-.551,14.581,14.581,0,0,0-5.589-7.318A8.665,8.665,0,0,1,25.1,12.856l1.092-1.519a1.841,1.841,0,0,0-2.24-2.726L21.353,9.8a8.391,8.391,0,0,1,1.856-5.7,1.527,1.527,0,0,0-1.874-2.281c-2.316,1.057-4.55,2-5.792,4.407C14.31,3.829,12.055,2.867,9.751,1.815A1.527,1.527,0,0,0,7.876,4.1,8.4,8.4,0,0,1,9.733,9.8L7.131,8.61a1.841,1.841,0,0,0-2.24,2.726l1.092,1.519a8.663,8.663,0,0,1,1.478,3.469C-.131,21.489-.952,32.983,1.652,41.007a13.546,13.546,0,0,0-.371,12.237.828.828,0,0,0,1.478-.749c-2-3.947-1.4-10.644,2.732-13.05,1.809-1.053,3.4-.812,5.306-.43a10.984,10.984,0,0,1,.115,1.6.828.828,0,1,0,1.657,0,12.959,12.959,0,0,0-.1-1.588c1.952-.359,3.6-.712,5.459.352,5.243,2.994,5.252,13.18-.019,16.121a5.983,5.983,0,0,1-4.876.444,4.449,4.449,0,0,0-2.736,0,5.914,5.914,0,0,1-5.156-.737.828.828,0,1,0-.913,1.382,7.64,7.64,0,0,0,6.576.932,2.8,2.8,0,0,1,1.723,0,7.672,7.672,0,0,0,6.189-.574,8.253,8.253,0,0,0,1.772-1.335,10.974,10.974,0,0,0,14.017-.434A27.409,27.409,0,0,0,56.626,28.284ZM7.328,11.889,6.236,10.369q-.091-.286.207-.252c1.239.565,2.524,1.076,3.725,1.721a.828.828,0,0,0,1.22-.73c0-2.842-.077-5.184-1.884-7.584,2.691,1.228,5.209,2.7,5.209,6.108a.828.828,0,1,0,1.657,0c0-3.386,2.519-4.88,5.209-6.108-1.806,2.4-1.883,4.742-1.883,7.584a.828.828,0,0,0,1.221.729c1.2-.645,2.485-1.156,3.724-1.721q.3-.033.207.252l-1.092,1.52a10.327,10.327,0,0,0-1.624,3.5,14.542,14.542,0,0,0-13.172.04A10.324,10.324,0,0,0,7.328,11.889Zm14.225,42.45c2.722-3.943,2.6-10.659-.471-14.412a9.245,9.245,0,0,1,6.157-2.322,9.334,9.334,0,1,1-5.687,16.734ZM36.391,53.02a10.942,10.942,0,0,0,1.492-3.333A23.116,23.116,0,0,0,51.855,32.834a.828.828,0,1,0-1.624-.325A21.468,21.468,0,0,1,38.2,47.745a11.107,11.107,0,0,0-10.961-11.8,10.887,10.887,0,0,0-7.206,2.692L44.947,13.728a21.254,21.254,0,0,1,5.7,14.8.828.828,0,1,0,1.657.018,22.9,22.9,0,0,0-6.186-15.984L48,10.671A25.759,25.759,0,0,1,36.391,53.02Z" transform="translate(0 -1.674)"/>
        <path id="Caminho_127981" data-name="Caminho 127981" d="M347.628,324.5a.828.828,0,0,0-1.171,1.171l1.251,1.251a.828.828,0,0,0,1.172-1.171Z" transform="translate(-307.98 -288.633)"/>
        <path id="Caminho_127982" data-name="Caminho 127982" d="M377.167,283.54l-1.612-.718a.828.828,0,0,0-.674,1.513l1.612.718a.828.828,0,1,0,.674-1.513Z" transform="translate(-333.043 -251.709)"/>
        <path id="Caminho_127983" data-name="Caminho 127983" d="M388.009,233.68l-1.753-.088h-.042a.828.828,0,0,0-.041,1.655l1.753.088h.042a.828.828,0,0,0,.041-1.655Z" transform="translate(-342.826 -207.979)"/>
        <path id="Caminho_127984" data-name="Caminho 127984" d="M378.525,180.681a.828.828,0,0,0,.263-.043l1.655-.555a.828.828,0,1,0-.526-1.571l-1.655.555a.828.828,0,0,0,.263,1.614Z" transform="translate(-335.985 -158.945)"/>
        <path id="Caminho_127985" data-name="Caminho 127985" d="M119.367,190.369a.826.826,0,0,0,.586-.243l1.825-1.825a.828.828,0,1,0-1.171-1.171l-1.239,1.239-1.239-1.239a.828.828,0,1,0-1.171,1.171l1.825,1.825a.826.826,0,0,0,.586.243Z" transform="translate(-103.824 -166.434)"/>
        <path id="Caminho_127986" data-name="Caminho 127986" d="M187.01,190.369a.826.826,0,0,0,.586-.243l1.825-1.825a.828.828,0,0,0-1.171-1.171l-1.239,1.239-1.239-1.239A.828.828,0,1,0,184.6,188.3l1.825,1.825A.826.826,0,0,0,187.01,190.369Z" transform="translate(-163.997 -166.434)"/>
        <path id="Caminho_127987" data-name="Caminho 127987" d="M86.457,234.492l-1.239,1.239-1.239-1.239a.828.828,0,1,0-1.171,1.171l1.825,1.825a.829.829,0,0,0,1.172,0l1.825-1.825a.828.828,0,0,0-1.171-1.171Z" transform="translate(-73.446 -208.565)"/>
        <path id="Caminho_127988" data-name="Caminho 127988" d="M152.276,237.49a.828.828,0,0,0,1.171,0l1.825-1.825a.828.828,0,0,0-1.171-1.171l-1.239,1.239-1.239-1.239a.828.828,0,1,0-1.171,1.171Z" transform="translate(-133.62 -208.566)"/>
        <ellipse id="Elipse_909" data-name="Elipse 909" cx="0.828" cy="0.828" rx="0.828" ry="0.828" transform="translate(28.266 38.61)"/>
      </g>
    </g>
  </g>
</svg>
